<svg xmlns="http://www.w3.org/2000/svg" xmlns:xlink="http://www.w3.org/1999/xlink" width="1328" height="650" viewBox="0 0 1328 650">
  <defs>
    <clipPath id="clip-path">
      <rect id="Rectángulo_403008" data-name="Rectángulo 403008" width="1328" height="650" transform="translate(136.051 7545)" fill="#8f61c2"/>
    </clipPath>
  </defs>
  <g id="Grupo_1101697" data-name="Grupo 1101697" transform="translate(-136.051 -1352)">
    <g id="Grupo_1101696" data-name="Grupo 1101696">
      <g id="Grupo_1101695" data-name="Grupo 1101695">
        <g id="Grupo_1101694" data-name="Grupo 1101694">
          <g id="Grupo_1101693" data-name="Grupo 1101693">
            <g id="Grupo_1101692" data-name="Grupo 1101692">
              <rect id="Rectángulo_403007" data-name="Rectángulo 403007" width="1328" height="650" transform="translate(136.051 1352)" fill="#8f61c2"/>
              <g id="Enmascarar_grupo_1098693" data-name="Enmascarar grupo 1098693" transform="translate(0 -6193)" clip-path="url(#clip-path)">
                <path id="Trazado_911233" data-name="Trazado 911233" d="M10.252,339.729a1.1,1.1,0,0,1-1.03-.711C.663,316.454-1.523,299.326,1.914,281.747c1.618-8.274,4.5-16.885,9.082-27.1,4.624-10.317,10.631-21.46,16.433-31.964,10.965-19.853,8.148-43.341,5.166-68.208-2.064-17.211-4.2-35.008-1.892-52.683a98.339,98.339,0,0,1,2.644-13.256A86.81,86.81,0,0,1,45.371,62.488a99.635,99.635,0,0,1,10.213-12.61,108.933,108.933,0,0,1,15.75-13.741,93.907,93.907,0,0,1,16.724-9.5,89.941,89.941,0,0,1,17.44-5.583,95.18,95.18,0,0,1,17.894-2,114.439,114.439,0,0,1,30.523,3.786A153.719,153.719,0,0,1,183.846,34.17,198.442,198.442,0,0,1,212.063,51.4a228.948,228.948,0,0,1,25.38,21.5c37.164,36.387,83.884,54.961,136,54.961,26.743,0,54.906-4.89,83.931-14.772a94.954,94.954,0,0,1,19.043-4.333,103.259,103.259,0,0,1,19.5-.493,113.918,113.918,0,0,1,19.457,3.065,124,124,0,0,1,18.92,6.343,130.762,130.762,0,0,1,17.892,9.344,132.557,132.557,0,0,1,16.373,12.072,129.35,129.35,0,0,1,14.361,14.528,122.753,122.753,0,0,1,11.853,16.716,112.145,112.145,0,0,1,13.808,36.752,110.53,110.53,0,0,1-.445,41.742,126.566,126.566,0,0,1-6.625,22.127,150.2,150.2,0,0,1-11.444,22.637A187.623,187.623,0,0,1,573.4,316.493a242.651,242.651,0,0,1-22.312,22.95,1.1,1.1,0,1,1-1.479-1.633c16.062-14.552,29.044-29.82,38.586-45.379a135.173,135.173,0,0,0,17.787-44.044,107.846,107.846,0,0,0-13.1-76.945c-28.1-47.722-87.3-72.44-134.791-56.274a298.265,298.265,0,0,1-35.067,9.657,252.618,252.618,0,0,1-33.122,4.692,221.254,221.254,0,0,1-31.109.1,201.615,201.615,0,0,1-29.025-4.115,191.614,191.614,0,0,1-26.871-7.954,189.453,189.453,0,0,1-24.646-11.412A197.017,197.017,0,0,1,235.9,74.469c-16.226-15.887-34.566-29.14-53.037-38.326a151.516,151.516,0,0,0-29.5-11.171,112.241,112.241,0,0,0-29.934-3.717C98.055,21.709,75.765,31.85,57.181,51.4,26.343,83.83,30.633,119.61,34.783,154.212c1.526,12.723,2.967,24.74,2.659,36.4a85.892,85.892,0,0,1-2.028,17.1,64.981,64.981,0,0,1-2.441,8.171,59.2,59.2,0,0,1-3.615,7.871c-5.779,10.463-11.76,21.557-16.351,31.8-4.508,10.058-7.346,18.517-8.93,26.622-3.352,17.148-1.2,33.915,7.205,56.067a1.1,1.1,0,0,1-1.03,1.492Z" transform="translate(1124.641 7901.271)" fill="#b1ce95"/>
                <path id="Trazado_911233-2" data-name="Trazado 911233" d="M10.252,339.729a1.1,1.1,0,0,1-1.03-.711C.663,316.454-1.523,299.326,1.914,281.747c1.618-8.274,4.5-16.885,9.082-27.1,4.624-10.317,10.631-21.46,16.433-31.964,10.965-19.853,8.148-43.341,5.166-68.208-2.064-17.211-4.2-35.008-1.892-52.683a98.339,98.339,0,0,1,2.644-13.256A86.81,86.81,0,0,1,45.371,62.488a99.635,99.635,0,0,1,10.213-12.61,108.933,108.933,0,0,1,15.75-13.741,93.907,93.907,0,0,1,16.724-9.5,89.941,89.941,0,0,1,17.44-5.583,95.18,95.18,0,0,1,17.894-2,114.439,114.439,0,0,1,30.523,3.786A153.719,153.719,0,0,1,183.846,34.17,198.442,198.442,0,0,1,212.063,51.4a228.948,228.948,0,0,1,25.38,21.5c37.164,36.387,83.884,54.961,136,54.961,26.743,0,54.906-4.89,83.931-14.772a94.954,94.954,0,0,1,19.043-4.333,103.259,103.259,0,0,1,19.5-.493,113.918,113.918,0,0,1,19.457,3.065,124,124,0,0,1,18.92,6.343,130.762,130.762,0,0,1,17.892,9.344,132.557,132.557,0,0,1,16.373,12.072,129.35,129.35,0,0,1,14.361,14.528,122.753,122.753,0,0,1,11.853,16.716,112.145,112.145,0,0,1,13.808,36.752,110.53,110.53,0,0,1-.445,41.742,126.566,126.566,0,0,1-6.625,22.127,150.2,150.2,0,0,1-11.444,22.637A187.623,187.623,0,0,1,573.4,316.493a242.651,242.651,0,0,1-22.312,22.95,1.1,1.1,0,1,1-1.479-1.633c16.062-14.552,29.044-29.82,38.586-45.379a135.173,135.173,0,0,0,17.787-44.044,107.846,107.846,0,0,0-13.1-76.945c-28.1-47.722-87.3-72.44-134.791-56.274a298.265,298.265,0,0,1-35.067,9.657,252.618,252.618,0,0,1-33.122,4.692,221.254,221.254,0,0,1-31.109.1,201.615,201.615,0,0,1-29.025-4.115,191.614,191.614,0,0,1-26.871-7.954,189.453,189.453,0,0,1-24.646-11.412A197.017,197.017,0,0,1,235.9,74.469c-16.226-15.887-34.566-29.14-53.037-38.326a151.516,151.516,0,0,0-29.5-11.171,112.241,112.241,0,0,0-29.934-3.717C98.055,21.709,75.765,31.85,57.181,51.4,26.343,83.83,30.633,119.61,34.783,154.212c1.526,12.723,2.967,24.74,2.659,36.4a85.892,85.892,0,0,1-2.028,17.1,64.981,64.981,0,0,1-2.441,8.171,59.2,59.2,0,0,1-3.615,7.871c-5.779,10.463-11.76,21.557-16.351,31.8-4.508,10.058-7.346,18.517-8.93,26.622-3.352,17.148-1.2,33.915,7.205,56.067a1.1,1.1,0,0,1-1.03,1.492Z" transform="translate(848.497 7803.829) rotate(-120)" fill="#b1ce95"/>
                <path id="Trazado_911233-3" data-name="Trazado 911233" d="M13.831,455.76a1.5,1.5,0,0,1-1.4-.968C.772,424.064-2.2,400.739,2.477,376.8c2.2-11.268,6.133-22.994,12.368-36.905,6.3-14.05,14.477-29.224,22.379-43.529,14.932-27.036,11.1-59.022,7.036-92.887-2.811-23.438-5.717-47.674-2.577-71.744a133.919,133.919,0,0,1,3.6-18.053A118.218,118.218,0,0,1,61.657,78.209,135.683,135.683,0,0,1,75.565,61.037,148.347,148.347,0,0,1,97.014,42.324a127.885,127.885,0,0,1,22.775-12.939,122.483,122.483,0,0,1,23.749-7.6,129.618,129.618,0,0,1,24.368-2.723,155.845,155.845,0,0,1,41.567,5.156,209.337,209.337,0,0,1,40.762,15.432,270.242,270.242,0,0,1,38.426,23.461,311.783,311.783,0,0,1,34.563,29.275c50.611,49.553,114.235,74.847,185.211,74.847,36.419,0,74.771-6.659,114.3-20.117a129.309,129.309,0,0,1,25.933-5.9,140.619,140.619,0,0,1,26.556-.671,155.135,155.135,0,0,1,26.5,4.175,168.858,168.858,0,0,1,25.766,8.638,178.068,178.068,0,0,1,24.365,12.725,180.518,180.518,0,0,1,22.3,16.439A176.146,176.146,0,0,1,793.705,202.3a167.161,167.161,0,0,1,16.141,22.764,152.72,152.72,0,0,1,18.8,50.049,150.521,150.521,0,0,1-.606,56.845,172.365,172.365,0,0,1-9.022,30.133,204.545,204.545,0,0,1-15.585,30.827,255.5,255.5,0,0,1-22.705,31.2,330.45,330.45,0,0,1-30.385,31.254,1.5,1.5,0,1,1-2.014-2.223c21.873-19.818,39.553-40.609,52.548-61.8,12.048-19.644,20.2-39.824,24.223-59.979a146.867,146.867,0,0,0-17.842-104.785C769,161.6,688.368,127.937,623.7,149.952a406.184,406.184,0,0,1-47.755,13.15,344.021,344.021,0,0,1-45.106,6.39,301.308,301.308,0,0,1-42.364.137,274.562,274.562,0,0,1-39.527-5.6,260.942,260.942,0,0,1-36.593-10.832,258,258,0,0,1-33.563-15.541,268.3,268.3,0,0,1-57.667-43.127c-22.1-21.636-47.073-39.684-72.226-52.193a206.337,206.337,0,0,0-40.175-15.213,152.851,152.851,0,0,0-40.765-5.061C133.4,22.676,103.048,36.486,77.74,63.1c-42,44.169-36.153,92.894-30.5,140.015,2.078,17.326,4.04,33.691,3.621,49.566A116.969,116.969,0,0,1,48.1,275.967,88.493,88.493,0,0,1,44.773,287.1a80.619,80.619,0,0,1-4.924,10.719c-7.87,14.248-16.015,29.356-22.267,43.306-6.139,13.7-10,25.217-12.161,36.254-4.565,23.352-1.631,46.186,9.812,76.353a1.5,1.5,0,0,1-1.4,2.032Z" transform="translate(-612.746 7408.24)" fill="#b1ce95"/>
                <g id="Grupo_1101556" data-name="Grupo 1101556" transform="translate(3.718 7433.352)">
                  <path id="Elipse_11537" data-name="Elipse 11537" d="M9.836-1.5A11.336,11.336,0,0,1,21.172,9.836,11.336,11.336,0,0,1,9.836,21.172,11.336,11.336,0,0,1-1.5,9.836,11.336,11.336,0,0,1,9.836-1.5Zm0,19.672A8.336,8.336,0,1,0,1.5,9.836,8.345,8.345,0,0,0,9.836,18.172Z" transform="translate(1040.981 709.798) rotate(-58.283)" fill="#39274d"/>
                  <path id="Elipse_11538" data-name="Elipse 11538" d="M9.836-1.5A11.336,11.336,0,0,1,21.172,9.836,11.336,11.336,0,0,1,9.836,21.172,11.336,11.336,0,0,1-1.5,9.836,11.336,11.336,0,0,1,9.836-1.5Zm0,19.672A8.336,8.336,0,1,0,1.5,9.836,8.345,8.345,0,0,0,9.836,18.172Z" transform="matrix(0.987, -0.16, 0.16, 0.987, 1407.932, 211.096)" fill="#39274d"/>
                  <path id="Elipse_11538-2" data-name="Elipse 11538" d="M9.836-1.5A11.336,11.336,0,0,1,21.172,9.836,11.336,11.336,0,0,1,9.836,21.172,11.336,11.336,0,0,1-1.5,9.836,11.336,11.336,0,0,1,9.836-1.5Zm0,19.672A8.336,8.336,0,1,0,1.5,9.836,8.345,8.345,0,0,0,9.836,18.172Z" transform="matrix(0.987, -0.16, 0.16, 0.987, 1051.992, 470.405)" fill="#39274d"/>
                  <path id="Rectángulo_402855" data-name="Rectángulo 402855" d="M0-1.5H19.446a1.5,1.5,0,0,1,1.5,1.5V19.446a1.5,1.5,0,0,1-1.5,1.5H0a1.5,1.5,0,0,1-1.5-1.5V0A1.5,1.5,0,0,1,0-1.5Zm17.946,3H1.5V17.946H17.946Z" transform="translate(1315.2 123.455)" fill="#39274d"/>
                  <path id="Rectángulo_402855-2" data-name="Rectángulo 402855" d="M0-1.5H19.446a1.5,1.5,0,0,1,1.5,1.5V19.446a1.5,1.5,0,0,1-1.5,1.5H0a1.5,1.5,0,0,1-1.5-1.5V0A1.5,1.5,0,0,1,0-1.5Zm17.946,3H1.5V17.946H17.946Z" transform="translate(912.782 418.764)" fill="#39274d"/>
                  <path id="Rectángulo_402855-3" data-name="Rectángulo 402855" d="M0-1.5H19.446a1.5,1.5,0,0,1,1.5,1.5V19.446a1.5,1.5,0,0,1-1.5,1.5H0a1.5,1.5,0,0,1-1.5-1.5V0A1.5,1.5,0,0,1,0-1.5Zm17.946,3H1.5V17.946H17.946Z" transform="matrix(0.883, -0.469, 0.469, 0.883, 216.774, 285.158)" fill="#39274d"/>
                  <path id="Trazado_911233-4" data-name="Trazado 911233" d="M580.58,252.767H561.134a1.5,1.5,0,0,1-1.342-2.171l9.723-19.446a1.5,1.5,0,0,1,2.683,0l9.723,19.446a1.5,1.5,0,0,1-1.342,2.171Zm-17.019-3h14.592l-7.3-14.592Z" transform="translate(806.333 91)" fill="#39274d"/>
                  <path id="Trazado_911233-5" data-name="Trazado 911233" d="M580.58,252.767H561.134a1.5,1.5,0,0,1-1.342-2.171l9.723-19.446a1.5,1.5,0,0,1,2.683,0l9.723,19.446a1.5,1.5,0,0,1-1.342,2.171Zm-17.019-3h14.592l-7.3-14.592Z" transform="translate(1831.229 393.351) rotate(149)" fill="#39274d"/>
                  <path id="Trazado_911233-6" data-name="Trazado 911233" d="M580.58,252.767H561.134a1.5,1.5,0,0,1-1.342-2.171l9.723-19.446a1.5,1.5,0,0,1,2.683,0l9.723,19.446a1.5,1.5,0,0,1-1.342,2.171Zm-17.019-3h14.592l-7.3-14.592Z" transform="matrix(-0.799, 0.602, -0.602, -0.799, 1083.777, 4.979)" fill="#39274d"/>
                  <path id="Trazado_911233-7" data-name="Trazado 911233" d="M580.58,252.767H561.134a1.5,1.5,0,0,1-1.342-2.171l9.723-19.446a1.5,1.5,0,0,1,2.683,0l9.723,19.446a1.5,1.5,0,0,1-1.342,2.171Zm-17.019-3h14.592l-7.3-14.592Z" transform="translate(-267.667 518.036)" fill="#39274d"/>
                  <path id="Rectángulo_402856" data-name="Rectángulo 402856" d="M0-1.5H19.445a1.5,1.5,0,0,1,1.5,1.5V19.446a1.5,1.5,0,0,1-1.5,1.5H0a1.5,1.5,0,0,1-1.5-1.5V0A1.5,1.5,0,0,1,0-1.5Zm17.945,3H1.5V17.946H17.945Z" transform="translate(960.571 167.396) rotate(-30.001)" fill="#39274d"/>
                  <path id="Unión_25" data-name="Unión 25" d="M12704.815,11627.091l-4.11-7.121-7.122,4.112a1.5,1.5,0,0,1-1.5-2.6l7.122-4.112-4.11-7.12a1.5,1.5,0,0,1,2.6-1.5l4.111,7.12,7.121-4.112a1.5,1.5,0,0,1,1.5,2.6l-7.12,4.111,4.111,7.122a1.5,1.5,0,0,1-2.6,1.5Z" transform="translate(-11827.731 -10879.484)" fill="#39274d"/>
                  <path id="Unión_26" data-name="Unión 26" d="M12704.815,11627.091l-4.11-7.121-7.122,4.112a1.5,1.5,0,0,1-1.5-2.6l7.122-4.112-4.11-7.12a1.5,1.5,0,0,1,2.6-1.5l4.111,7.12,7.121-4.112a1.5,1.5,0,0,1,1.5,2.6l-7.12,4.111,4.111,7.122a1.5,1.5,0,0,1-2.6,1.5Z" transform="translate(-12542.731 -11036.357)" fill="#39274d"/>
                  <path id="Trazado_912106" data-name="Trazado 912106" d="M430.333,65a5.481,5.481,0,1,0-5.481,5.481A5.482,5.482,0,0,0,430.333,65" transform="translate(941.115 62.698)" fill="#fe729d"/>
                  <path id="Trazado_912107" data-name="Trazado 912107" d="M430.333,65a5.481,5.481,0,1,0-5.481,5.481A5.482,5.482,0,0,0,430.333,65" transform="translate(539.151 468.644)" fill="#b1ce95"/>
                  <path id="Trazado_912108" data-name="Trazado 912108" d="M5.538,157.159a2.769,2.769,0,1,0-2.769,2.769,2.769,2.769,0,0,0,2.769-2.769" transform="translate(669.333 568.588)" fill="#fe729d"/>
                  <path id="Trazado_912109" data-name="Trazado 912109" d="M5.538,157.159a2.769,2.769,0,1,0-2.769,2.769,2.769,2.769,0,0,0,2.769-2.769" transform="translate(158.522 176.769)" fill="#b1ce95"/>
                  <path id="Trazado_912110" data-name="Trazado 912110" d="M121.08,33.08a2.769,2.769,0,1,0-2.769,2.769,2.769,2.769,0,0,0,2.769-2.769" transform="translate(880.74 122.544)" fill="#fe729d"/>
                  <path id="Trazado_912111" data-name="Trazado 912111" d="M605.816,292.4a2.769,2.769,0,1,0-2.769,2.769,2.769,2.769,0,0,0,2.769-2.769" transform="translate(826.406 169.755)" fill="#ffdba9"/>
                </g>
              </g>
            </g>
          </g>
        </g>
      </g>
    </g>
  </g>
</svg>
