<svg xmlns="http://www.w3.org/2000/svg" xmlns:xlink="http://www.w3.org/1999/xlink" width="85" height="76" viewBox="0 0 85 76">
  <defs>
    <clipPath id="clip-path">
      <rect id="Rect치ngulo_403090" data-name="Rect치ngulo 403090" width="67" height="67" transform="translate(1167.051 2472)" fill="#fff" stroke="#707070" stroke-width="1"/>
    </clipPath>
    <clipPath id="clip-path-2">
      <path id="path12288" d="M0-67H67V0H0Z"/>
    </clipPath>
  </defs>
  <g id="Grupo_1101695" data-name="Grupo 1101695" transform="translate(-1158.051 -2472)">
    <g id="Grupo_1101694" data-name="Grupo 1101694">
      <g id="Grupo_1101693" data-name="Grupo 1101693">
        <rect id="Rect치ngulo_403091" data-name="Rect치ngulo 403091" width="85" height="50" rx="10" transform="translate(1158.051 2498)" fill="#8f61c2"/>
        <g id="Enmascarar_grupo_1098705" data-name="Enmascarar grupo 1098705" clip-path="url(#clip-path)">
          <g id="g12282" transform="translate(1167.051 2539)">
            <g id="g12284">
              <g id="g12286" clip-path="url(#clip-path-2)">
                <g id="g12292" transform="translate(50.076 -8.419)">
                  <path id="path12294" d="M0,0H-42.355a.654.654,0,0,1-.654-.654v-54a.654.654,0,0,1,.654-.654H0a.654.654,0,0,1,.654.654v54A.654.654,0,0,1,0,0" fill="#a79ca7"/>
                </g>
                <g id="g12296" transform="translate(50.076 -8.419)">
                  <path id="path12298" d="M0,0H-42.355a.654.654,0,0,1-.654-.654v-54a.654.654,0,0,1,.654-.654H0a.654.654,0,0,1,.654.654v54A.654.654,0,0,1,0,0Z" fill="none" stroke="#000" stroke-linecap="round" stroke-linejoin="round" stroke-miterlimit="10" stroke-width="1.963"/>
                </g>
                <g id="g12300" transform="translate(54.153 -4.322)">
                  <path id="path12302" d="M0,0H-42.355a.654.654,0,0,1-.654-.654v-54a.654.654,0,0,1,.654-.654H0a.654.654,0,0,1,.654.654v54A.654.654,0,0,1,0,0" fill="#fff"/>
                </g>
                <g id="g12304" transform="translate(16.619 -4.977)">
                  <path id="path12306" d="M0,0V-42.1H-5.476V0a.654.654,0,0,0,.654.654H.654A.654.654,0,0,1,0,0" fill="#f3f0f3"/>
                </g>
                <g id="g12308" transform="translate(22.246 -59.632)">
                  <path id="path12310" d="M0,0H-10.449A.654.654,0,0,0-11.1.654v54a.654.654,0,0,0,.654.654H31.907a.654.654,0,0,0,.654-.654v-54A.654.654,0,0,0,31.907,0H4.58" fill="none" stroke="#000" stroke-linecap="round" stroke-linejoin="round" stroke-miterlimit="10" stroke-width="1.963"/>
                </g>
                <g id="g12312" transform="translate(59.331 -39.258)">
                  <path id="path12314" d="M0,0H3.953V7.447A3.272,3.272,0,0,1,3.742,8.6L2.221,12.631a.262.262,0,0,1-.49,0L.211,8.6A3.272,3.272,0,0,1,0,7.447Z" fill="#fff"/>
                </g>
                <g id="g12316" transform="translate(59.331 -39.258)">
                  <path id="path12318" d="M0,0H3.953V7.447A3.272,3.272,0,0,1,3.742,8.6L2.221,12.631a.262.262,0,0,1-.49,0L.211,8.6A3.272,3.272,0,0,1,0,7.447Z" fill="none" stroke="#000" stroke-linecap="round" stroke-linejoin="round" stroke-miterlimit="10" stroke-width="1.963"/>
                </g>
                <g id="g12320" transform="translate(63.284 -33.243)">
                  <path id="path12322" d="M0,0V-24.413a1.977,1.977,0,0,0-1.977-1.976,1.977,1.977,0,0,0-1.977,1.976V0Z" fill="#fed402"/>
                </g>
                <g id="g12324" transform="translate(63.284 -46.717)">
                  <path id="path12326" d="M0,0V-10.939a1.977,1.977,0,0,0-1.977-1.977,1.976,1.976,0,0,0-1.977,1.977V13.474H0V4.58" fill="none" stroke="#000" stroke-linecap="round" stroke-linejoin="round" stroke-miterlimit="10" stroke-width="1.963"/>
                </g>
                <g id="g12328" transform="translate(61.656 -10.736)">
                  <path id="path12330" d="M0,0A9.755,9.755,0,0,1-9.755,9.755,9.755,9.755,0,0,1-19.51,0,9.755,9.755,0,0,1-9.755-9.755,9.755,9.755,0,0,1,0,0" fill="#00c27a"/>
                </g>
                <g id="g12332" transform="translate(47.49 -10.736)">
                  <path id="path12334" d="M0,0A9.757,9.757,0,0,1,7.083-9.381a9.751,9.751,0,0,0-2.672-.374A9.755,9.755,0,0,0-5.344,0,9.755,9.755,0,0,0,4.411,9.755a9.751,9.751,0,0,0,2.672-.374A9.757,9.757,0,0,1,0,0" fill="#09a755"/>
                </g>
                <g id="g12336" transform="translate(61.3 -13.348)">
                  <path id="path12338" d="M0,0A9.757,9.757,0,0,0-9.4-7.144a9.755,9.755,0,0,0-9.755,9.755A9.755,9.755,0,0,0-9.4,12.366,9.758,9.758,0,0,0,.157,4.58" fill="none" stroke="#000" stroke-linecap="round" stroke-linejoin="round" stroke-miterlimit="10" stroke-width="1.963"/>
                </g>
                <g id="g12340" transform="translate(47.041 -11.324)">
                  <path id="path12342" d="M0,0,3.694,3.694,9.721-2.333" fill="none" stroke="#000" stroke-linecap="round" stroke-linejoin="round" stroke-miterlimit="10" stroke-width="1.963"/>
                </g>
                <g id="g12344" transform="translate(17.727 -47.082)">
                  <path id="path12346" d="M0,0H-13.357a.654.654,0,0,1-.654-.654V-18.283a.654.654,0,0,1,.654-.654H0a.654.654,0,0,1,.654.654V-.654A.654.654,0,0,1,0,0" fill="#d8ecfe"/>
                </g>
                <g id="g12348" transform="translate(7.842 -47.736)">
                  <path id="path12350" d="M0,0V-17.628a.654.654,0,0,1,.654-.654H-3.472a.654.654,0,0,0-.654.654V0a.654.654,0,0,0,.654.654H.654A.654.654,0,0,1,0,0" fill="#c4e2ff"/>
                </g>
                <g id="g12352" transform="translate(4.37 -47.082)">
                  <path id="path12354" d="M0,0H13.357a.652.652,0,0,0,.562-.325c-.541-3.886-3.574-6.863-7.241-6.863S-.021-4.211-.562-.325A.652.652,0,0,0,0,0" fill="#27a5fe"/>
                </g>
                <g id="g12356" transform="translate(11.049 -53.776)">
                  <path id="path12358" d="M0,0A3.976,3.976,0,0,1-1.545-.311a7.818,7.818,0,0,0-5.7,6.68.652.652,0,0,0,.562.325h4.088a.652.652,0,0,1-.562-.325,7.9,7.9,0,0,1,5.2-6.542q-.245-.079-.5-.139A3.975,3.975,0,0,1,0,0" fill="#0593fc"/>
                </g>
                <g id="g12360" transform="translate(17.727 -47.082)">
                  <path id="path12362" d="M0,0H-13.357a.654.654,0,0,1-.654-.654V-18.283a.654.654,0,0,1,.654-.654H0a.654.654,0,0,1,.654.654V-.654A.654.654,0,0,1,0,0Z" fill="none" stroke="#000" stroke-linecap="round" stroke-linejoin="round" stroke-miterlimit="10" stroke-width="1.963"/>
                </g>
                <g id="g12364" transform="translate(18.29 -47.406)">
                  <path id="path12366" d="M0,0C-.541-3.886-3.574-6.863-7.241-6.863S-13.94-3.886-14.482,0" fill="none" stroke="#000" stroke-linecap="round" stroke-linejoin="round" stroke-miterlimit="10" stroke-width="1.963"/>
                </g>
                <g id="g12368" transform="translate(15.035 -57.763)">
                  <path id="path12370" d="M0,0A3.987,3.987,0,0,1-3.987,3.987,3.987,3.987,0,0,1-7.973,0,3.987,3.987,0,0,1-3.987-3.987,3.987,3.987,0,0,1,0,0" fill="#27a5fe"/>
                </g>
                <g id="g12372" transform="translate(15.035 -57.763)">
                  <path id="path12374" d="M0,0A3.987,3.987,0,0,1-3.987,3.987,3.987,3.987,0,0,1-7.973,0,3.987,3.987,0,0,1-3.987-3.987,3.987,3.987,0,0,1,0,0Z" fill="none" stroke="#000" stroke-linecap="round" stroke-linejoin="round" stroke-miterlimit="10" stroke-width="1.963"/>
                </g>
                <g id="g12376" transform="translate(17.068 -11.181)">
                  <path id="path12378" d="M0,0H12.842" fill="none" stroke="#000" stroke-linecap="round" stroke-linejoin="round" stroke-miterlimit="10" stroke-width="1.963"/>
                </g>
                <g id="g12380" transform="translate(23.68 -15.559)">
                  <path id="path12382" d="M0,0H-6.22a.393.393,0,0,1-.393-.393v-4.76a.393.393,0,0,1,.393-.393H0a.393.393,0,0,1,.393.393v4.76A.393.393,0,0,1,0,0" fill="#f6a96c"/>
                </g>
                <g id="g12384" transform="translate(23.68 -15.559)">
                  <path id="path12386" d="M0,0H-6.22a.393.393,0,0,1-.393-.393v-4.76a.393.393,0,0,1,.393-.393H0a.393.393,0,0,1,.393.393v4.76A.393.393,0,0,1,0,0Z" fill="none" stroke="#000" stroke-linecap="round" stroke-linejoin="round" stroke-miterlimit="10" stroke-width="1.963"/>
                </g>
                <g id="g12388" transform="translate(28.159 -52.043)">
                  <path id="path12390" d="M0,0H9.632" fill="none" stroke="#000" stroke-linecap="round" stroke-linejoin="round" stroke-miterlimit="10" stroke-width="1.963"/>
                </g>
                <g id="g12392" transform="translate(24.803 -47.082)">
                  <path id="path12394" d="M0,0H16.345" fill="none" stroke="#000" stroke-linecap="round" stroke-linejoin="round" stroke-miterlimit="10" stroke-width="1.963"/>
                </g>
                <g id="g12396" transform="translate(17.068 -38.617)">
                  <path id="path12398" d="M0,0H31.814" fill="none" stroke="#000" stroke-linecap="round" stroke-linejoin="round" stroke-miterlimit="10" stroke-width="1.963"/>
                </g>
                <g id="g12400" transform="translate(17.068 -33.656)">
                  <path id="path12402" d="M0,0H31.814" fill="none" stroke="#000" stroke-linecap="round" stroke-linejoin="round" stroke-miterlimit="10" stroke-width="1.963"/>
                </g>
                <g id="g12404" transform="translate(17.068 -28.694)">
                  <path id="path12406" d="M0,0H31.814" fill="none" stroke="#000" stroke-linecap="round" stroke-linejoin="round" stroke-miterlimit="10" stroke-width="1.963"/>
                </g>
              </g>
            </g>
          </g>
        </g>
      </g>
    </g>
  </g>
</svg>
