<svg xmlns="http://www.w3.org/2000/svg" xmlns:xlink="http://www.w3.org/1999/xlink" width="85" height="76" viewBox="0 0 85 76">
  <defs>
    <clipPath id="clip-path">
      <rect id="Rect치ngulo_403087" data-name="Rect치ngulo 403087" width="67" height="67" transform="translate(680.051 2472)" fill="#fff" stroke="#707070" stroke-width="1"/>
    </clipPath>
  </defs>
  <g id="Grupo_1101689" data-name="Grupo 1101689" transform="translate(-671.051 -2472)">
    <g id="Grupo_1101688" data-name="Grupo 1101688">
      <g id="Grupo_1101687" data-name="Grupo 1101687">
        <rect id="Rect치ngulo_402863" data-name="Rect치ngulo 402863" width="85" height="50" rx="10" transform="translate(671.051 2498)" fill="#8f61c2"/>
        <g id="Enmascarar_grupo_1098703" data-name="Enmascarar grupo 1098703" clip-path="url(#clip-path)">
          <g id="_38._Letter" data-name="38. Letter" transform="translate(680.051 2472)">
            <path id="Trazado_912292" data-name="Trazado 912292" d="M4.188,26.172H62.813V61.766a4.188,4.188,0,0,1-4.187,4.188H8.375a4.188,4.188,0,0,1-4.187-4.187Z" fill="#e9a648"/>
            <path id="Trazado_912293" data-name="Trazado 912293" d="M58.625,67H8.375a5.234,5.234,0,0,1-5.234-5.234V26.172a1.047,1.047,0,0,1,1.047-1.047H62.813a1.047,1.047,0,0,1,1.047,1.047V55.484a1.047,1.047,0,0,1-2.094,0V27.219H5.234V61.766a3.141,3.141,0,0,0,3.141,3.141h50.25a3.141,3.141,0,0,0,3.141-3.141V60.719a1.047,1.047,0,0,1,2.094,0v1.047A5.234,5.234,0,0,1,58.625,67Z"/>
            <path id="Trazado_912294" data-name="Trazado 912294" d="M62.813,26.172,33.5,47.109,4.188,26.172,33.5,5.234Z" fill="#e38343"/>
            <path id="Trazado_912295" data-name="Trazado 912295" d="M32.892,47.961,3.579,27.024a1.047,1.047,0,0,1,0-1.7L32.892,4.385a1.047,1.047,0,0,1,1.217,0L63.421,25.323a1.047,1.047,0,0,1,0,1.7L34.108,47.961a1.047,1.047,0,0,1-1.217,0ZM5.988,26.172,33.5,45.823,61.012,26.172,33.5,6.521Z"/>
            <path id="Trazado_912296" data-name="Trazado 912296" d="M54.438,5.234V32.153L33.5,47.109,12.563,32.153V17.8H8.375V1.047H50.25A4.187,4.187,0,0,1,54.438,5.234Z" fill="#eaf2ff"/>
            <path id="Trazado_912297" data-name="Trazado 912297" d="M43.246,40.148,33.5,47.109l-9.746-6.962a10.469,10.469,0,0,1,19.5,0Z" fill="#c1d1f7"/>
            <path id="Trazado_912298" data-name="Trazado 912298" d="M54.438,28.294v3.859L33.5,47.109,12.563,32.153V28.294L33.5,43.25Z" fill="#c1d1f7"/>
            <path id="Trazado_912299" data-name="Trazado 912299" d="M32.892,47.961,11.954,33.005a1.047,1.047,0,0,1-.438-.852V18.844H8.375A1.047,1.047,0,0,1,7.328,17.8V1.047A1.047,1.047,0,0,1,8.375,0H17.8a1.047,1.047,0,0,1,0,2.094H9.422V16.75h3.141A1.047,1.047,0,0,1,13.609,17.8V31.614L33.5,45.823,53.391,31.614V5.234A3.141,3.141,0,0,0,50.25,2.094H21.984a1.047,1.047,0,0,1,0-2.094H50.25a5.234,5.234,0,0,1,5.234,5.234V32.153a1.047,1.047,0,0,1-.438.852L34.108,47.961a1.047,1.047,0,0,1-1.217,0Z"/>
            <path id="Trazado_912300" data-name="Trazado 912300" d="M4.188,61.766V60.719L33.5,39.781,62.813,60.719v1.047a4.188,4.188,0,0,1-4.187,4.188H8.375A4.188,4.188,0,0,1,4.188,61.766Z" fill="#ead590"/>
            <path id="Trazado_912301" data-name="Trazado 912301" d="M58.625,62.813H8.375a4.187,4.187,0,0,1-3.781-2.384l-.407.291v1.047a4.188,4.188,0,0,0,4.188,4.188h50.25a4.187,4.187,0,0,0,4.188-4.187V60.719l-.407-.291A4.188,4.188,0,0,1,58.625,62.813Z" fill="#f1cb66"/>
            <path id="Trazado_912302" data-name="Trazado 912302" d="M58.625,67H8.375a5.234,5.234,0,0,1-5.234-5.234V60.719a1.047,1.047,0,0,1,.438-.852L32.892,38.929a1.047,1.047,0,0,1,1.217,0L63.421,59.867a1.047,1.047,0,0,1,.438.852v1.047A5.234,5.234,0,0,1,58.625,67ZM5.234,61.258v.508a3.141,3.141,0,0,0,3.141,3.141h50.25a3.141,3.141,0,0,0,3.141-3.141v-.508L33.5,41.068Z"/>
            <path id="Trazado_912303" data-name="Trazado 912303" d="M4.188,19.891h8.375V5.234a4.188,4.188,0,0,0-8.375,0Z" fill="#c1d1f7"/>
            <path id="Trazado_912304" data-name="Trazado 912304" d="M6.8,1.352A4.188,4.188,0,0,1,9.422,5.234V19.891h3.141V5.234A4.188,4.188,0,0,0,6.8,1.352Z" fill="#adbeee"/>
            <path id="Trazado_912305" data-name="Trazado 912305" d="M12.563,20.938H4.188a1.047,1.047,0,0,1-1.047-1.047V5.234a5.234,5.234,0,0,1,10.469,0V19.891A1.047,1.047,0,0,1,12.563,20.938ZM5.234,18.844h6.281V5.234a3.141,3.141,0,0,0-6.281,0Z"/>
            <path id="Trazado_912306" data-name="Trazado 912306" d="M41.875,8.375H25.125a1.047,1.047,0,0,1,0-2.094h16.75a1.047,1.047,0,0,1,0,2.094Z"/>
            <path id="Trazado_912307" data-name="Trazado 912307" d="M47.109,14.656H19.891a1.047,1.047,0,0,1,0-2.094H47.109a1.047,1.047,0,0,1,0,2.094Z"/>
            <path id="Trazado_912308" data-name="Trazado 912308" d="M47.109,19.891H19.891a1.047,1.047,0,0,1,0-2.094H47.109a1.047,1.047,0,0,1,0,2.094Z"/>
            <path id="Trazado_912309" data-name="Trazado 912309" d="M47.109,25.125H19.891a1.047,1.047,0,0,1,0-2.094H47.109a1.047,1.047,0,0,1,0,2.094Z"/>
            <path id="Trazado_912310" data-name="Trazado 912310" d="M31.406,30.359H19.891a1.047,1.047,0,0,1,0-2.094H31.406a1.047,1.047,0,0,1,0,2.094Z"/>
            <circle id="Elipse_11559" data-name="Elipse 11559" cx="7.328" cy="7.328" r="7.328" transform="translate(26.172 36.641)" fill="#cd4f5f"/>
            <path id="Trazado_912311" data-name="Trazado 912311" d="M33.5,48.156A7.328,7.328,0,0,1,26.342,42.4a7.328,7.328,0,1,0,14.316,0A7.328,7.328,0,0,1,33.5,48.156Z" fill="#b24654"/>
            <path id="Trazado_912312" data-name="Trazado 912312" d="M33.5,52.344a8.375,8.375,0,1,1,8.375-8.375A8.375,8.375,0,0,1,33.5,52.344Zm0-14.656a6.281,6.281,0,1,0,6.281,6.281A6.281,6.281,0,0,0,33.5,37.688Z"/>
          </g>
        </g>
      </g>
    </g>
  </g>
</svg>
