<svg xmlns="http://www.w3.org/2000/svg" xmlns:xlink="http://www.w3.org/1999/xlink" width="85" height="76" viewBox="0 0 85 76">
  <defs>
    <clipPath id="clip-path">
      <rect id="Rect치ngulo_403094" data-name="Rect치ngulo 403094" width="67" height="67" transform="translate(924.051 2919)" fill="#fff" stroke="#707070" stroke-width="1"/>
    </clipPath>
    <clipPath id="clip-path-2">
      <path id="path3732" d="M0-67H67V0H0Z"/>
    </clipPath>
  </defs>
  <g id="Grupo_1101699" data-name="Grupo 1101699" transform="translate(-915.051 -2919)">
    <g id="Grupo_1101698" data-name="Grupo 1101698">
      <rect id="Rect치ngulo_403095" data-name="Rect치ngulo 403095" width="85" height="50" rx="10" transform="translate(915.051 2945)" fill="#8f61c2"/>
      <g id="Enmascarar_grupo_1098707" data-name="Enmascarar grupo 1098707" clip-path="url(#clip-path)">
        <g id="g3726" transform="translate(924.051 2986)">
          <g id="g3728">
            <g id="g3730" clip-path="url(#clip-path-2)">
              <g id="g3736" transform="translate(55.438 -5.523)">
                <path id="path3738" d="M0,0H-39.334a2.308,2.308,0,0,1-2.308-2.308V-58.187A2.308,2.308,0,0,1-39.334-60.5H0a2.308,2.308,0,0,1,2.308,2.308V-2.308A2.308,2.308,0,0,1,0,0" fill="#3c87d0"/>
              </g>
              <g id="g3740" transform="translate(50.896 -0.981)">
                <path id="path3742" d="M0,0H-39.334a2.308,2.308,0,0,1-2.308-2.308V-58.187A2.308,2.308,0,0,1-39.334-60.5H0a2.308,2.308,0,0,1,2.308,2.308V-2.308A2.308,2.308,0,0,1,0,0" fill="#c8effe"/>
              </g>
              <g id="g3744" transform="translate(50.896 -61.477)">
                <path id="path3746" d="M0,0H-4.824A2.308,2.308,0,0,1-2.516,2.308V58.187A2.308,2.308,0,0,1-4.824,60.5H0a2.308,2.308,0,0,0,2.308-2.308V2.308A2.308,2.308,0,0,0,0,0" fill="#a8d3d8"/>
              </g>
              <g id="g3748" transform="translate(47.468 -50.995)">
                <path id="path3750" d="M0,0H-12.689A.913.913,0,0,1-13.6-.913a.913.913,0,0,1,.913-.913H0a.913.913,0,0,1,.913.913A.913.913,0,0,1,0,0" fill="#3e5959"/>
              </g>
              <g id="g3752" transform="translate(47.468 -46.725)">
                <path id="path3754" d="M0,0H-12.689A.913.913,0,0,1-13.6-.913a.913.913,0,0,1,.913-.913H0a.913.913,0,0,1,.913.913A.913.913,0,0,1,0,0" fill="#3e5959"/>
              </g>
              <g id="g3756" transform="translate(47.468 -42.454)">
                <path id="path3758" d="M0,0H-12.689A.913.913,0,0,1-13.6-.913a.913.913,0,0,1,.913-.913H0a.913.913,0,0,1,.913.913A.913.913,0,0,1,0,0" fill="#3e5959"/>
              </g>
              <g id="g3760" transform="translate(47.468 -18.621)">
                <path id="path3762" d="M0,0H-11.8a.913.913,0,0,1-.913-.913.913.913,0,0,1,.913-.913H0a.913.913,0,0,1,.913.913A.913.913,0,0,1,0,0" fill="#3e5959"/>
              </g>
              <g id="g3764" transform="translate(27.679 -27.529)">
                <path id="path3766" d="M0,0H-12.689A.913.913,0,0,1-13.6-.913a.913.913,0,0,1,.913-.913H0a.913.913,0,0,1,.913.913A.913.913,0,0,1,0,0" fill="#3e5959"/>
              </g>
              <g id="g3768" transform="translate(27.679 -31.799)">
                <path id="path3770" d="M0,0H-12.689A.913.913,0,0,1-13.6-.913a.913.913,0,0,1,.913-.913H0a.913.913,0,0,1,.913.913A.913.913,0,0,1,0,0" fill="#3e5959"/>
              </g>
              <g id="g3772" transform="translate(22.558 -56.506)">
                <path id="path3774" d="M0,0V8.48H8.48A8.48,8.48,0,0,0,0,0" fill="#ee6161"/>
              </g>
              <g id="g3776" transform="translate(22.558 -56.506)">
                <path id="path3778" d="M0,0A8.48,8.48,0,0,0-8.48,8.48,8.48,8.48,0,0,0,0,16.96,8.48,8.48,0,0,0,8.48,8.48H0Z" fill="#fea95c"/>
              </g>
              <g id="g3780" transform="translate(47.772 -25.586)">
                <path id="path3782" d="M0,0H-15.244a.609.609,0,0,1-.609-.609V-9.373a.609.609,0,0,1,.609-.608H0a.609.609,0,0,1,.609.608V-.609A.609.609,0,0,1,0,0" fill="#ee6161"/>
              </g>
              <g id="g3784" transform="translate(17.353 -7.509)">
                <path id="path3786" d="M0,0H-2.667a.609.609,0,0,1-.608-.609V-13.921a.609.609,0,0,1,.608-.609H0a.609.609,0,0,1,.609.609V-.609A.609.609,0,0,1,0,0" fill="#fe7701"/>
              </g>
              <g id="g3788" transform="translate(24.599 -7.509)">
                <path id="path3790" d="M0,0H-2.667a.609.609,0,0,1-.609-.609v-9.82a.609.609,0,0,1,.609-.609H0a.609.609,0,0,1,.609.609v9.82A.609.609,0,0,1,0,0" fill="#fe9738"/>
              </g>
              <g id="g3792" transform="translate(31.844 -7.509)">
                <path id="path3794" d="M0,0H-2.667a.609.609,0,0,1-.609-.609V-6.077a.609.609,0,0,1,.609-.608H0a.609.609,0,0,1,.609.608V-.609A.609.609,0,0,1,0,0" fill="#fea95c"/>
              </g>
              <g id="g3796" transform="translate(47.468 -14.135)">
                <path id="path3798" d="M0,0H-11.8a.913.913,0,0,1-.913-.913.913.913,0,0,1,.913-.913H0a.913.913,0,0,1,.913.913A.913.913,0,0,1,0,0" fill="#3e5959"/>
              </g>
              <g id="g3800" transform="translate(47.468 -9.65)">
                <path id="path3802" d="M0,0H-11.8a.913.913,0,0,1-.913-.913.913.913,0,0,1,.913-.913H0a.913.913,0,0,1,.913.913A.913.913,0,0,1,0,0" fill="#3e5959"/>
              </g>
              <g id="g3804" transform="translate(34.779 -50.995)">
                <path id="path3806" d="M0,0H12.689A.913.913,0,0,0,13.6-.913a.913.913,0,0,0-.913-.913H0a.913.913,0,0,0-.913.913A.913.913,0,0,0,0,0"/>
              </g>
              <g id="g3808" transform="translate(33.866 -47.638)">
                <path id="path3810" d="M0,0A.913.913,0,0,0,.913.913H13.6A.913.913,0,0,0,14.515,0,.913.913,0,0,0,13.6-.913H.913A.913.913,0,0,0,0,0"/>
              </g>
              <g id="g3812" transform="translate(34.779 -42.454)">
                <path id="path3814" d="M0,0H12.689A.913.913,0,0,0,13.6-.913a.913.913,0,0,0-.913-.913H0a.913.913,0,0,0-.913.913A.913.913,0,0,0,0,0"/>
              </g>
              <g id="g3816" transform="translate(48.38 -19.534)">
                <path id="path3818" d="M0,0A.913.913,0,0,0-.913-.913h-11.8A.913.913,0,0,0-13.622,0a.913.913,0,0,0,.913.913h11.8A.913.913,0,0,0,0,0"/>
              </g>
              <g id="g3820" transform="translate(28.592 -28.442)">
                <path id="path3822" d="M0,0A.913.913,0,0,0-.913-.913H-13.6A.913.913,0,0,0-14.515,0,.913.913,0,0,0-13.6.913H-.913A.913.913,0,0,0,0,0"/>
              </g>
              <g id="g3824" transform="translate(14.99 -31.799)">
                <path id="path3826" d="M0,0H12.689A.913.913,0,0,0,13.6-.913a.913.913,0,0,0-.913-.913H0a.913.913,0,0,0-.913.913A.913.913,0,0,0,0,0"/>
              </g>
              <g id="g3828" transform="translate(23.539 -49.007)">
                <path id="path3830" d="M0,0V-6.453A7.515,7.515,0,0,1,6.453,0ZM-.981,8.48a7.507,7.507,0,0,1-7.5-7.5A7.51,7.51,0,0,1-1.963-6.453V.981a.981.981,0,0,0,.981.981H6.453A7.51,7.51,0,0,1-.981,8.48m0-16.96A9.472,9.472,0,0,0-10.443.981,9.472,9.472,0,0,0-.981,10.443,9.472,9.472,0,0,0,8.48.981,9.472,9.472,0,0,0-.981-8.48"/>
              </g>
              <path id="path3832" d="M32.9-34.586H47.4v8.018H32.9Zm-1.963-.373v8.764a1.592,1.592,0,0,0,1.59,1.59H47.772a1.592,1.592,0,0,0,1.59-1.59v-8.764a1.592,1.592,0,0,0-1.59-1.59H32.527a1.592,1.592,0,0,0-1.59,1.59"/>
              <path id="path3834" d="M15.059-21.058H16.98V-8.49H15.059ZM13.1-8.118a1.592,1.592,0,0,0,1.59,1.59h2.667a1.592,1.592,0,0,0,1.59-1.59V-21.431a1.592,1.592,0,0,0-1.59-1.59H14.686a1.592,1.592,0,0,0-1.59,1.59Z"/>
              <path id="path3836" d="M24.226-8.49H22.3v-9.074h1.921ZM21.932-19.527a1.592,1.592,0,0,0-1.59,1.59v9.82a1.592,1.592,0,0,0,1.59,1.59H24.6a1.592,1.592,0,0,0,1.59-1.59v-9.82a1.592,1.592,0,0,0-1.59-1.59Z"/>
              <path id="path3838" d="M29.55-13.213h1.921v4.722H29.55Zm-.373,6.685h2.667a1.592,1.592,0,0,0,1.59-1.59v-5.468a1.592,1.592,0,0,0-1.59-1.59H29.178a1.592,1.592,0,0,0-1.59,1.59v5.468a1.592,1.592,0,0,0,1.59,1.59"/>
              <g id="g3840" transform="translate(47.468 -15.961)">
                <path id="path3842" d="M0,0H-11.8a.913.913,0,0,0-.913.913.913.913,0,0,0,.913.913H0A.913.913,0,0,0,0,0"/>
              </g>
              <g id="g3844" transform="translate(47.468 -11.476)">
                <path id="path3846" d="M0,0H-11.8a.913.913,0,0,0-.913.913.913.913,0,0,0,.913.913H0A.913.913,0,0,0,0,0"/>
              </g>
              <g id="g3848" transform="translate(57.746 -54.832)">
                <path id="path3850" d="M0,0A.981.981,0,0,0,.981-.981v-7.9a3.293,3.293,0,0,0-3.29-3.29H-41.642a3.293,3.293,0,0,0-3.29,3.29v1.252h-1.252a3.293,3.293,0,0,0-3.29,3.29V37.71a.981.981,0,0,0,.981.981.981.981,0,0,0,.981-.981V-4.337a1.328,1.328,0,0,1,1.327-1.327H-6.85A1.328,1.328,0,0,1-5.523-4.337V51.542A1.328,1.328,0,0,1-6.85,52.869H-46.184a1.328,1.328,0,0,1-1.327-1.327V42.29a.981.981,0,0,0-.981-.981.981.981,0,0,0-.981.981v9.251a3.293,3.293,0,0,0,3.29,3.29H-6.85a3.293,3.293,0,0,0,3.29-3.29V50.29h1.252A3.293,3.293,0,0,0,.981,47V3.6A.981.981,0,0,0,0,2.617.981.981,0,0,0-.981,3.6V47a1.328,1.328,0,0,1-1.327,1.327H-3.561V-4.337a3.293,3.293,0,0,0-3.29-3.29H-42.969V-8.879a1.328,1.328,0,0,1,1.327-1.327H-2.308A1.328,1.328,0,0,1-.981-8.879v7.9A.981.981,0,0,0,0,0"/>
              </g>
            </g>
          </g>
        </g>
      </g>
    </g>
  </g>
</svg>
