<svg xmlns="http://www.w3.org/2000/svg" xmlns:xlink="http://www.w3.org/1999/xlink" width="190" height="150" viewBox="0 0 190 150">
  <defs>
    <clipPath id="clip-path">
      <rect id="Rectángulo_402861" data-name="Rectángulo 402861" width="111" height="111" transform="translate(1269.051 1953)" fill="#fff" stroke="#707070" stroke-width="1"/>
    </clipPath>
  </defs>
  <g id="Grupo_1101688" data-name="Grupo 1101688" transform="translate(-1230.051 -628)">
    <g id="Grupo_1101687" data-name="Grupo 1101687">
      <g id="Grupo_1101686" data-name="Grupo 1101686">
        <rect id="Rectángulo_402860" data-name="Rectángulo 402860" width="190" height="150" rx="10" transform="translate(1230.051 628)" fill="#8f61c2"/>
        <g id="Enmascarar_grupo_1098684" data-name="Enmascarar grupo 1098684" transform="translate(0 -1305)" clip-path="url(#clip-path)">
          <g id="documental" transform="translate(1269.051 1953)">
            <path id="Trazado_911239" data-name="Trazado 911239" d="M102.87,14.634h-6.5V34.146h13.008V21.138A6.5,6.5,0,0,0,102.87,14.634Z" fill="#e8383a"/>
            <path id="Trazado_911240" data-name="Trazado 911240" d="M96.366,14.634H55.5L45.35,4.483a9.756,9.756,0,0,0-6.9-2.857H8.13a6.5,6.5,0,0,0-6.5,6.5V47.153L102.87,21.138A6.5,6.5,0,0,0,96.366,14.634Z" fill="#ff4d4f"/>
            <path id="Trazado_911241" data-name="Trazado 911241" d="M96.366,21.138l-6.5,13.008,13.008-6.5v-6.5Z" fill="#f2f2f2"/>
            <path id="Trazado_911242" data-name="Trazado 911242" d="M8.13,21.138v6.5l88.236,6.5V21.138Z" fill="#fff"/>
            <path id="Trazado_911243" data-name="Trazado 911243" d="M8.13,27.642v6.5l64.419,6.5V27.642Z" fill="#f2f2f2"/>
            <rect id="Rectángulo_402862" data-name="Rectángulo 402862" width="64.419" height="13.008" transform="translate(8.13 34.146)" fill="#fff"/>
            <path id="Trazado_911244" data-name="Trazado 911244" d="M102.87,27.642l-6.5,68.725h6.5a6.5,6.5,0,0,0,6.5-6.5V34.146A6.5,6.5,0,0,0,102.87,27.642Z" fill="#ff4d4f"/>
            <path id="Trazado_911245" data-name="Trazado 911245" d="M102.87,89.862V27.642H72.549a9.756,9.756,0,0,0-6.9,2.857L55.5,40.649H8.13a6.5,6.5,0,0,0-6.5,6.5V89.862a6.5,6.5,0,0,0,6.5,6.5H96.366A6.5,6.5,0,0,0,102.87,89.862Z" fill="#fd7154"/>
            <path id="Trazado_911246" data-name="Trazado 911246" d="M76.855,47.153H27.642A13.008,13.008,0,0,0,14.634,60.161V96.366a3.252,3.252,0,0,0,6.5,0V60.161a6.5,6.5,0,0,1,6.5-6.5H83.358a6.5,6.5,0,0,1,6.5,6.5h3.252C93.114,52.977,85.835,47.154,76.855,47.153Z" fill="#dedede"/>
            <path id="Trazado_911247" data-name="Trazado 911247" d="M83.358,47.153h-6.5A13.008,13.008,0,0,1,89.862,60.161V96.366a3.252,3.252,0,0,0,6.5,0V60.161A13.008,13.008,0,0,0,83.358,47.153Z" fill="#c5c6ce"/>
            <line id="Línea_590" data-name="Línea 590" x2="11.861" transform="translate(21.138 96.366)" fill="none" stroke="#000" stroke-linecap="round" stroke-linejoin="round" stroke-miterlimit="10" stroke-width="3.252"/>
            <path id="Trazado_911248" data-name="Trazado 911248" d="M109.374,58.752V21.138a6.5,6.5,0,0,0-6.5-6.5H55.5L45.35,4.483a9.756,9.756,0,0,0-6.9-2.857H8.13a6.5,6.5,0,0,0-6.5,6.5V89.862a6.5,6.5,0,0,0,6.5,6.5h6.5" fill="none" stroke="#000" stroke-linecap="round" stroke-linejoin="round" stroke-miterlimit="10" stroke-width="3.252"/>
            <path id="Trazado_911249" data-name="Trazado 911249" d="M96.366,96.366h6.5a6.5,6.5,0,0,0,6.5-6.5V65.256" fill="none" stroke="#000" stroke-linecap="round" stroke-linejoin="round" stroke-miterlimit="10" stroke-width="3.252"/>
            <line id="Línea_591" data-name="Línea 591" x2="11.861" transform="translate(78.001 96.366)" fill="none" stroke="#000" stroke-linecap="round" stroke-linejoin="round" stroke-miterlimit="10" stroke-width="3.252"/>
            <path id="Trazado_911250" data-name="Trazado 911250" d="M1.626,47.153a6.5,6.5,0,0,1,6.5-6.5H55.5L65.65,30.5a9.756,9.756,0,0,1,6.9-2.857" fill="none" stroke="#000" stroke-linecap="round" stroke-linejoin="round" stroke-miterlimit="10" stroke-width="3.252"/>
            <path id="Trazado_911251" data-name="Trazado 911251" d="M109.374,34.146a6.5,6.5,0,0,0-6.5-6.5H8.13" fill="none" stroke="#000" stroke-linecap="round" stroke-linejoin="round" stroke-miterlimit="10" stroke-width="3.252"/>
            <path id="Trazado_911252" data-name="Trazado 911252" d="M102.87,27.642v-6.5H8.13V40.649" fill="none" stroke="#000" stroke-linecap="round" stroke-linejoin="round" stroke-miterlimit="10" stroke-width="3.252"/>
            <line id="Línea_592" data-name="Línea 592" x1="53.874" transform="translate(8.13 34.146)" fill="none" stroke="#000" stroke-linecap="round" stroke-linejoin="round" stroke-miterlimit="10" stroke-width="3.252"/>
            <path id="Trazado_911253" data-name="Trazado 911253" d="M49.866,67.107l-3.754,6.512,20.624,35.756h7.507a6.5,6.5,0,0,0,5.635-9.752L61.135,67.107A6.5,6.5,0,0,0,49.866,67.107Z" fill="#fdd56f"/>
            <path id="Trazado_911254" data-name="Trazado 911254" d="M31.121,99.624a6.5,6.5,0,0,0,5.633,9.75H66.737a6.5,6.5,0,0,0,5.635-9.752l-14.99-26a6.5,6.5,0,0,0-11.27,0Z" fill="#fff07e"/>
            <path id="Trazado_911255" data-name="Trazado 911255" d="M55.5,73.616a3.252,3.252,0,0,0-3.252,3.252V86.61a3.252,3.252,0,0,0,6.5,0V76.868A3.252,3.252,0,0,0,55.5,73.616Z" fill="#51577d"/>
            <circle id="Elipse_11539" data-name="Elipse 11539" cx="3.252" cy="3.252" r="3.252" transform="translate(52.249 96.366)" fill="#51577d"/>
            <path id="Trazado_911256" data-name="Trazado 911256" d="M38.872,86.179,31.123,99.622a6.5,6.5,0,0,0,5.632,9.752H74.247a6.5,6.5,0,0,0,5.632-9.752L61.132,67.1a6.5,6.5,0,0,0-11.263,0L42.12,80.544" fill="none" stroke="#000" stroke-linecap="round" stroke-linejoin="round" stroke-miterlimit="10" stroke-width="3.252"/>
            <path id="Trazado_911257" data-name="Trazado 911257" d="M55.5,73.616a3.252,3.252,0,0,0-3.252,3.252V86.61a3.252,3.252,0,0,0,6.5,0V76.868A3.252,3.252,0,0,0,55.5,73.616Z" fill="none" stroke="#000" stroke-linecap="round" stroke-linejoin="round" stroke-miterlimit="10" stroke-width="3.252"/>
            <circle id="Elipse_11540" data-name="Elipse 11540" cx="3.252" cy="3.252" r="3.252" transform="translate(52.249 96.366)" fill="none" stroke="#000" stroke-linecap="round" stroke-linejoin="round" stroke-miterlimit="10" stroke-width="3.252"/>
            <path id="Trazado_911258" data-name="Trazado 911258" d="M14.634,60.161V96.366a3.252,3.252,0,0,0,6.5,0V60.161a6.5,6.5,0,0,1,6.5-6.5H83.358a6.5,6.5,0,0,1,6.5,6.5V96.366a3.252,3.252,0,0,0,6.5,0V60.161A13.008,13.008,0,0,0,83.358,47.153H27.642A13.008,13.008,0,0,0,14.634,60.161Z" fill="none" stroke="#000" stroke-linecap="round" stroke-linejoin="round" stroke-miterlimit="10" stroke-width="3.252"/>
          </g>
        </g>
      </g>
    </g>
  </g>
</svg>
