<svg xmlns="http://www.w3.org/2000/svg" xmlns:xlink="http://www.w3.org/1999/xlink" width="1600" height="220" viewBox="0 0 1600 220">
  <defs>
    <clipPath id="clip-path">
      <rect id="Rectángulo_402987" data-name="Rectángulo 402987" width="1600" height="220" transform="translate(0 70)" fill="#8f61c2"/>
    </clipPath>
  </defs>
  <g id="Grupo_1101551" data-name="Grupo 1101551" transform="translate(0 -70)">
    <g id="Grupo_1101550" data-name="Grupo 1101550">
      <rect id="Rectángulo_402580" data-name="Rectángulo 402580" width="1600" height="220" transform="translate(0 70)" fill="#8f61c2"/>
      <g id="Enmascarar_grupo_1098691" data-name="Enmascarar grupo 1098691" clip-path="url(#clip-path)">
        <g id="Grupo_1101549" data-name="Grupo 1101549">
          <ellipse id="Elipse_11551" data-name="Elipse 11551" cx="139.5" cy="137.5" rx="139.5" ry="137.5" transform="translate(1269 92)" fill="#563a75"/>
          <ellipse id="Elipse_11552" data-name="Elipse 11552" cx="139.5" cy="137.5" rx="139.5" ry="137.5" transform="translate(531 92)" fill="#fe729d" opacity="0.31"/>
          <path id="Trazado_912105" data-name="Trazado 912105" d="M62.459,461.2C81.516,396.266-20.835,299.469,3.873,178.813S95.351,55.708,191.49,44.934,345.778-35.109,413.573,22.866,505.448,116.744,633,53.217s223.552,99.526,172.023,203.289-35.294,204.7-35.294,204.7Z" transform="translate(634.784 118.396)" fill="#734e9b"/>
          <path id="Trazado_911233" data-name="Trazado 911233" d="M13.831,455.76a1.5,1.5,0,0,1-1.4-.968C.772,424.064-2.2,400.739,2.477,376.8c2.2-11.268,6.133-22.994,12.368-36.905,6.3-14.05,14.477-29.224,22.379-43.529,14.932-27.036,11.1-59.022,7.036-92.887-2.811-23.438-5.717-47.674-2.577-71.744a133.919,133.919,0,0,1,3.6-18.053A118.218,118.218,0,0,1,61.657,78.209,135.683,135.683,0,0,1,75.565,61.037,148.347,148.347,0,0,1,97.014,42.324a127.885,127.885,0,0,1,22.775-12.939,122.483,122.483,0,0,1,23.749-7.6,129.618,129.618,0,0,1,24.368-2.723,155.845,155.845,0,0,1,41.567,5.156,209.337,209.337,0,0,1,40.762,15.432,270.242,270.242,0,0,1,38.426,23.461,311.783,311.783,0,0,1,34.563,29.275c50.611,49.553,114.235,74.847,185.211,74.847,36.419,0,74.771-6.659,114.3-20.117a129.309,129.309,0,0,1,25.933-5.9,140.619,140.619,0,0,1,26.556-.671,155.135,155.135,0,0,1,26.5,4.175,168.858,168.858,0,0,1,25.766,8.638,178.068,178.068,0,0,1,24.365,12.725,180.518,180.518,0,0,1,22.3,16.439A176.146,176.146,0,0,1,793.705,202.3a167.161,167.161,0,0,1,16.141,22.764,152.72,152.72,0,0,1,18.8,50.049,150.521,150.521,0,0,1-.606,56.845,172.365,172.365,0,0,1-9.022,30.133,204.545,204.545,0,0,1-15.585,30.827,255.5,255.5,0,0,1-22.705,31.2,330.45,330.45,0,0,1-30.385,31.254,1.5,1.5,0,1,1-2.014-2.223c21.873-19.818,39.553-40.609,52.548-61.8,12.048-19.644,20.2-39.824,24.223-59.979a146.867,146.867,0,0,0-17.842-104.785C769,161.6,688.368,127.937,623.7,149.952a406.184,406.184,0,0,1-47.755,13.15,344.021,344.021,0,0,1-45.106,6.39,301.308,301.308,0,0,1-42.364.137,274.562,274.562,0,0,1-39.527-5.6,260.942,260.942,0,0,1-36.593-10.832,258,258,0,0,1-33.563-15.541,268.3,268.3,0,0,1-57.667-43.127c-22.1-21.636-47.073-39.684-72.226-52.193a206.337,206.337,0,0,0-40.175-15.213,152.851,152.851,0,0,0-40.765-5.061C133.4,22.676,103.048,36.486,77.74,63.1c-42,44.169-36.153,92.894-30.5,140.015,2.078,17.326,4.04,33.691,3.621,49.566A116.969,116.969,0,0,1,48.1,275.967,88.493,88.493,0,0,1,44.773,287.1a80.619,80.619,0,0,1-4.924,10.719c-7.87,14.248-16.015,29.356-22.267,43.306-6.139,13.7-10,25.217-12.161,36.254-4.565,23.352-1.631,46.186,9.812,76.353a1.5,1.5,0,0,1-1.4,2.032Z" transform="translate(622.934 72.963)" fill="#ffdba9"/>
          <g id="Grupo_1101547" data-name="Grupo 1101547" transform="translate(34.667 -13.146)">
            <path id="Elipse_11537" data-name="Elipse 11537" d="M9.836-1.5A11.336,11.336,0,0,1,21.172,9.836,11.336,11.336,0,0,1,9.836,21.172,11.336,11.336,0,0,1-1.5,9.836,11.336,11.336,0,0,1,9.836-1.5Zm0,19.672A8.336,8.336,0,1,0,1.5,9.836,8.345,8.345,0,0,0,9.836,18.172Z" transform="translate(991.981 104.584) rotate(-58.283)" fill="#39274d"/>
            <path id="Elipse_11538" data-name="Elipse 11538" d="M9.836-1.5A11.336,11.336,0,0,1,21.172,9.836,11.336,11.336,0,0,1,9.836,21.172,11.336,11.336,0,0,1-1.5,9.836,11.336,11.336,0,0,1,9.836-1.5Zm0,19.672A8.336,8.336,0,1,0,1.5,9.836,8.345,8.345,0,0,0,9.836,18.172Z" transform="matrix(0.987, -0.16, 0.16, 0.987, 1407.932, 211.096)" fill="#39274d"/>
            <path id="Rectángulo_402855" data-name="Rectángulo 402855" d="M0-1.5H19.446a1.5,1.5,0,0,1,1.5,1.5V19.446a1.5,1.5,0,0,1-1.5,1.5H0a1.5,1.5,0,0,1-1.5-1.5V0A1.5,1.5,0,0,1,0-1.5Zm17.946,3H1.5V17.946H17.946Z" transform="translate(1315.2 123.455)" fill="#39274d"/>
            <path id="Rectángulo_402855-2" data-name="Rectángulo 402855" d="M0-1.5H19.446a1.5,1.5,0,0,1,1.5,1.5V19.446a1.5,1.5,0,0,1-1.5,1.5H0a1.5,1.5,0,0,1-1.5-1.5V0A1.5,1.5,0,0,1,0-1.5Zm17.946,3H1.5V17.946H17.946Z" transform="matrix(0.883, -0.469, 0.469, 0.883, 216.774, 285.158)" fill="#39274d"/>
            <path id="Trazado_911233-2" data-name="Trazado 911233" d="M580.58,252.767H561.134a1.5,1.5,0,0,1-1.342-2.171l9.723-19.446a1.5,1.5,0,0,1,2.683,0l9.723,19.446a1.5,1.5,0,0,1-1.342,2.171Zm-17.019-3h14.592l-7.3-14.592Z" transform="translate(806.333 91)" fill="#39274d"/>
            <path id="Trazado_911233-3" data-name="Trazado 911233" d="M580.58,252.767H561.134a1.5,1.5,0,0,1-1.342-2.171l9.723-19.446a1.5,1.5,0,0,1,2.683,0l9.723,19.446a1.5,1.5,0,0,1-1.342,2.171Zm-17.019-3h14.592l-7.3-14.592Z" transform="translate(59.333 274)" fill="#39274d"/>
            <path id="Rectángulo_402856" data-name="Rectángulo 402856" d="M0-1.5H19.445a1.5,1.5,0,0,1,1.5,1.5V19.446a1.5,1.5,0,0,1-1.5,1.5H0a1.5,1.5,0,0,1-1.5-1.5V0A1.5,1.5,0,0,1,0-1.5Zm17.945,3H1.5V17.946H17.945Z" transform="translate(883.059 238.67) rotate(-30.001)" fill="#39274d"/>
            <path id="Unión_7" data-name="Unión 7" d="M12704.815,11627.091l-4.11-7.121-7.122,4.112a1.5,1.5,0,0,1-1.5-2.6l7.122-4.112-4.11-7.12a1.5,1.5,0,0,1,2.6-1.5l4.111,7.12,7.121-4.112a1.5,1.5,0,0,1,1.5,2.6l-7.12,4.111,4.111,7.122a1.5,1.5,0,0,1-2.6,1.5Z" transform="translate(-11836.731 -11501.357)" fill="#39274d"/>
            <path id="Unión_8" data-name="Unión 8" d="M12704.815,11627.091l-4.11-7.121-7.122,4.112a1.5,1.5,0,0,1-1.5-2.6l7.122-4.112-4.11-7.12a1.5,1.5,0,0,1,2.6-1.5l4.111,7.12,7.121-4.112a1.5,1.5,0,0,1,1.5,2.6l-7.12,4.111,4.111,7.122a1.5,1.5,0,0,1-2.6,1.5Z" transform="translate(-12509.731 -11074.357)" fill="#39274d"/>
            <path id="Trazado_911234" data-name="Trazado 911234" d="M430.333,65a5.481,5.481,0,1,0-5.481,5.481A5.482,5.482,0,0,0,430.333,65" transform="translate(848.333 97)" fill="#fe729d"/>
            <path id="Trazado_911235" data-name="Trazado 911235" d="M5.538,157.159a2.769,2.769,0,1,0-2.769,2.769,2.769,2.769,0,0,0,2.769-2.769" transform="translate(806.333 91)" fill="#fe729d"/>
            <path id="Trazado_911238" data-name="Trazado 911238" d="M5.538,157.159a2.769,2.769,0,1,0-2.769,2.769,2.769,2.769,0,0,0,2.769-2.769" transform="translate(176.063 93.769)" fill="#ffdba9"/>
            <path id="Trazado_911236" data-name="Trazado 911236" d="M121.08,33.08a2.769,2.769,0,1,0-2.769,2.769,2.769,2.769,0,0,0,2.769-2.769" transform="translate(806.333 91)" fill="#fe729d"/>
            <path id="Trazado_911237" data-name="Trazado 911237" d="M605.816,292.4a2.769,2.769,0,1,0-2.769,2.769,2.769,2.769,0,0,0,2.769-2.769" transform="translate(806.333 91)" fill="#ffdba9"/>
          </g>
          <g id="Grupo_1101548" data-name="Grupo 1101548" transform="translate(-761.722 8.366)">
            <path id="Elipse_11537-2" data-name="Elipse 11537" d="M9.836-1.5A11.336,11.336,0,0,1,21.172,9.836,11.336,11.336,0,0,1,9.836,21.172,11.336,11.336,0,0,1-1.5,9.836,11.336,11.336,0,0,1,9.836-1.5Zm0,19.672A8.336,8.336,0,1,0,1.5,9.836,8.345,8.345,0,0,0,9.836,18.172Z" transform="translate(991.981 104.584) rotate(-58.283)" fill="#39274d"/>
            <path id="Elipse_11538-2" data-name="Elipse 11538" d="M9.836-1.5A11.336,11.336,0,0,1,21.172,9.836,11.336,11.336,0,0,1,9.836,21.172,11.336,11.336,0,0,1-1.5,9.836,11.336,11.336,0,0,1,9.836-1.5Zm0,19.672A8.336,8.336,0,1,0,1.5,9.836,8.345,8.345,0,0,0,9.836,18.172Z" transform="matrix(0.987, -0.16, 0.16, 0.987, 1407.932, 211.096)" fill="#39274d"/>
            <path id="Rectángulo_402855-3" data-name="Rectángulo 402855" d="M0-1.5H19.446a1.5,1.5,0,0,1,1.5,1.5V19.446a1.5,1.5,0,0,1-1.5,1.5H0a1.5,1.5,0,0,1-1.5-1.5V0A1.5,1.5,0,0,1,0-1.5Zm17.946,3H1.5V17.946H17.946Z" transform="translate(1315.2 123.455)" fill="#39274d"/>
            <path id="Rectángulo_402855-4" data-name="Rectángulo 402855" d="M0-1.5H19.446a1.5,1.5,0,0,1,1.5,1.5V19.446a1.5,1.5,0,0,1-1.5,1.5H0a1.5,1.5,0,0,1-1.5-1.5V0A1.5,1.5,0,0,1,0-1.5Zm17.946,3H1.5V17.946H17.946Z" transform="matrix(0.883, -0.469, 0.469, 0.883, 216.774, 285.158)" fill="#39274d"/>
            <path id="Trazado_911233-4" data-name="Trazado 911233" d="M580.58,252.767H561.134a1.5,1.5,0,0,1-1.342-2.171l9.723-19.446a1.5,1.5,0,0,1,2.683,0l9.723,19.446a1.5,1.5,0,0,1-1.342,2.171Zm-17.019-3h14.592l-7.3-14.592Z" transform="translate(806.333 91)" fill="#39274d"/>
            <path id="Trazado_911233-5" data-name="Trazado 911233" d="M580.58,252.767H561.134a1.5,1.5,0,0,1-1.342-2.171l9.723-19.446a1.5,1.5,0,0,1,2.683,0l9.723,19.446a1.5,1.5,0,0,1-1.342,2.171Zm-17.019-3h14.592l-7.3-14.592Z" transform="translate(59.333 274)" fill="#39274d"/>
            <path id="Rectángulo_402856-2" data-name="Rectángulo 402856" d="M0-1.5H19.445a1.5,1.5,0,0,1,1.5,1.5V19.446a1.5,1.5,0,0,1-1.5,1.5H0a1.5,1.5,0,0,1-1.5-1.5V0A1.5,1.5,0,0,1,0-1.5Zm17.945,3H1.5V17.946H17.945Z" transform="translate(883.059 238.67) rotate(-30.001)" fill="#39274d"/>
            <path id="Unión_7-2" data-name="Unión 7" d="M12704.815,11627.091l-4.11-7.121-7.122,4.112a1.5,1.5,0,0,1-1.5-2.6l7.122-4.112-4.11-7.12a1.5,1.5,0,0,1,2.6-1.5l4.111,7.12,7.121-4.112a1.5,1.5,0,0,1,1.5,2.6l-7.12,4.111,4.111,7.122a1.5,1.5,0,0,1-2.6,1.5Z" transform="translate(-11836.731 -11501.357)" fill="#39274d"/>
            <path id="Unión_8-2" data-name="Unión 8" d="M12704.815,11627.091l-4.11-7.121-7.122,4.112a1.5,1.5,0,0,1-1.5-2.6l7.122-4.112-4.11-7.12a1.5,1.5,0,0,1,2.6-1.5l4.111,7.12,7.121-4.112a1.5,1.5,0,0,1,1.5,2.6l-7.12,4.111,4.111,7.122a1.5,1.5,0,0,1-2.6,1.5Z" transform="translate(-12509.731 -11074.357)" fill="#39274d"/>
            <path id="Trazado_911234-2" data-name="Trazado 911234" d="M430.333,65a5.481,5.481,0,1,0-5.481,5.481A5.482,5.482,0,0,0,430.333,65" transform="translate(848.333 97)" fill="#fe729d"/>
            <path id="Trazado_911235-2" data-name="Trazado 911235" d="M5.538,157.159a2.769,2.769,0,1,0-2.769,2.769,2.769,2.769,0,0,0,2.769-2.769" transform="translate(806.333 91)" fill="#fe729d"/>
            <path id="Trazado_911238-2" data-name="Trazado 911238" d="M5.538,157.159a2.769,2.769,0,1,0-2.769,2.769,2.769,2.769,0,0,0,2.769-2.769" transform="translate(176.063 93.769)" fill="#ffdba9"/>
            <path id="Trazado_911236-2" data-name="Trazado 911236" d="M121.08,33.08a2.769,2.769,0,1,0-2.769,2.769,2.769,2.769,0,0,0,2.769-2.769" transform="translate(806.333 91)" fill="#fe729d"/>
            <path id="Trazado_911237-2" data-name="Trazado 911237" d="M605.816,292.4a2.769,2.769,0,1,0-2.769,2.769,2.769,2.769,0,0,0,2.769-2.769" transform="translate(806.333 91)" fill="#ffdba9"/>
          </g>
        </g>
        <path id="Trazado_911233-6" data-name="Trazado 911233" d="M13.831,455.76a1.5,1.5,0,0,1-1.4-.968C.772,424.064-2.2,400.739,2.477,376.8c2.2-11.268,6.133-22.994,12.368-36.905,6.3-14.05,14.477-29.224,22.379-43.529,14.932-27.036,11.1-59.022,7.036-92.887-2.811-23.438-5.717-47.674-2.577-71.744a133.919,133.919,0,0,1,3.6-18.053A118.218,118.218,0,0,1,61.657,78.209,135.683,135.683,0,0,1,75.565,61.037,148.347,148.347,0,0,1,97.014,42.324a127.885,127.885,0,0,1,22.775-12.939,122.483,122.483,0,0,1,23.749-7.6,129.618,129.618,0,0,1,24.368-2.723,155.845,155.845,0,0,1,41.567,5.156,209.337,209.337,0,0,1,40.762,15.432,270.242,270.242,0,0,1,38.426,23.461,311.783,311.783,0,0,1,34.563,29.275c50.611,49.553,114.235,74.847,185.211,74.847,36.419,0,74.771-6.659,114.3-20.117a129.309,129.309,0,0,1,25.933-5.9,140.619,140.619,0,0,1,26.556-.671,155.135,155.135,0,0,1,26.5,4.175,168.858,168.858,0,0,1,25.766,8.638,178.068,178.068,0,0,1,24.365,12.725,180.518,180.518,0,0,1,22.3,16.439A176.146,176.146,0,0,1,793.705,202.3a167.161,167.161,0,0,1,16.141,22.764,152.72,152.72,0,0,1,18.8,50.049,150.521,150.521,0,0,1-.606,56.845,172.365,172.365,0,0,1-9.022,30.133,204.545,204.545,0,0,1-15.585,30.827,255.5,255.5,0,0,1-22.705,31.2,330.45,330.45,0,0,1-30.385,31.254,1.5,1.5,0,1,1-2.014-2.223c21.873-19.818,39.553-40.609,52.548-61.8,12.048-19.644,20.2-39.824,24.223-59.979a146.867,146.867,0,0,0-17.842-104.785C769,161.6,688.368,127.937,623.7,149.952a406.184,406.184,0,0,1-47.755,13.15,344.021,344.021,0,0,1-45.106,6.39,301.308,301.308,0,0,1-42.364.137,274.562,274.562,0,0,1-39.527-5.6,260.942,260.942,0,0,1-36.593-10.832,258,258,0,0,1-33.563-15.541,268.3,268.3,0,0,1-57.667-43.127c-22.1-21.636-47.073-39.684-72.226-52.193a206.337,206.337,0,0,0-40.175-15.213,152.851,152.851,0,0,0-40.765-5.061C133.4,22.676,103.048,36.486,77.74,63.1c-42,44.169-36.153,92.894-30.5,140.015,2.078,17.326,4.04,33.691,3.621,49.566A116.969,116.969,0,0,1,48.1,275.967,88.493,88.493,0,0,1,44.773,287.1a80.619,80.619,0,0,1-4.924,10.719c-7.87,14.248-16.015,29.356-22.267,43.306-6.139,13.7-10,25.217-12.161,36.254-4.565,23.352-1.631,46.186,9.812,76.353a1.5,1.5,0,0,1-1.4,2.032Z" transform="translate(-754.066 -181.26)" fill="#ffdba9"/>
      </g>
    </g>
  </g>
</svg>
