<svg xmlns="http://www.w3.org/2000/svg" xmlns:xlink="http://www.w3.org/1999/xlink" width="85" height="82.435" viewBox="0 0 85 82.435">
  <defs>
    <clipPath id="clip-path">
      <rect id="Rect치ngulo_403096" data-name="Rect치ngulo 403096" width="71" height="71" transform="translate(292.051 3988)" fill="#fff" stroke="#707070" stroke-width="1"/>
    </clipPath>
  </defs>
  <g id="Grupo_1101706" data-name="Grupo 1101706" transform="translate(-285 -3988)">
    <rect id="Rect치ngulo_402863" data-name="Rect치ngulo 402863" width="85" height="50" rx="10" transform="translate(285 4020.435)" fill="#b1ce95"/>
    <g id="Enmascarar_grupo_1098708" data-name="Enmascarar grupo 1098708" clip-path="url(#clip-path)">
      <g id="archivo" transform="translate(292.051 3988)">
        <g id="Grupo_1101655" data-name="Grupo 1101655">
          <path id="Trazado_912355" data-name="Trazado 912355" d="M56.792,5.523H9.165V2.441a1.4,1.4,0,0,1,1.4-1.4H55.392a1.4,1.4,0,0,1,1.4,1.4V5.523Z" fill="#d3effb"/>
        </g>
        <g id="Grupo_1101656" data-name="Grupo 1101656">
          <path id="Trazado_912356" data-name="Trazado 912356" d="M58.193,10.005H7.764V6.923a1.4,1.4,0,0,1,1.4-1.4H56.792a1.4,1.4,0,0,1,1.4,1.4Z" fill="#cbe2ff"/>
        </g>
        <g id="Grupo_1101657" data-name="Grupo 1101657">
          <path id="Trazado_912357" data-name="Trazado 912357" d="M62.4,69.96H3.717l-.155-18.21H62.4Z" fill="#9d66d5"/>
        </g>
        <g id="Grupo_1101658" data-name="Grupo 1101658">
          <path id="Trazado_912358" data-name="Trazado 912358" d="M62.4,60.955,53.911,52.47q.161-.358.305-.721H17.794A19.622,19.622,0,0,0,44,62.374L51.59,69.96H62.4V60.955Z" fill="#8659b9"/>
        </g>
        <g id="Grupo_1101659" data-name="Grupo 1101659">
          <path id="Trazado_912359" data-name="Trazado 912359" d="M59.594,51.749H6.363V11.406a1.4,1.4,0,0,1,1.4-1.4H58.193a1.4,1.4,0,0,1,1.4,1.4V51.749Z" fill="#f4fbff"/>
        </g>
        <g id="Grupo_1101660" data-name="Grupo 1101660">
          <path id="Trazado_912360" data-name="Trazado 912360" d="M9.165,16.169h17.37V30.177H9.165Z" transform="translate(41.023 5.323) rotate(90)" fill="#dd636e"/>
        </g>
        <g id="Grupo_1101661" data-name="Grupo 1101661">
          <path id="Trazado_912361" data-name="Trazado 912361" d="M58.193,10.005H54.5a1.4,1.4,0,0,1,1.4,1.4V51.749h3.692V11.406a1.4,1.4,0,0,0-1.4-1.4Z" fill="#e4f6ff"/>
        </g>
        <g id="Grupo_1101670" data-name="Grupo 1101670">
          <g id="Grupo_1101662" data-name="Grupo 1101662">
            <path id="Trazado_912362" data-name="Trazado 912362" d="M45.065,55.209h8.4v5.042h-8.4Z" transform="translate(-26.395 51.753) rotate(-45)" fill="#2b4d66"/>
          </g>
          <g id="Grupo_1101663" data-name="Grupo 1101663">
            <path id="Trazado_912363" data-name="Trazado 912363" d="M50.311,58.774h5.042v5.042H50.311Z" transform="translate(-27.872 55.319) rotate(-45)" fill="#4a80aa"/>
          </g>
          <g id="Grupo_1101664" data-name="Grupo 1101664">
            <path id="Trazado_912364" data-name="Trazado 912364" d="M67.438,69.96H55.552l-3.9-3.9,5.943-5.943Z" fill="#407093"/>
          </g>
          <g id="Grupo_1101665" data-name="Grupo 1101665">
            <path id="Trazado_912365" data-name="Trazado 912365" d="M57.594,60.116,55.613,62.1l7.863,7.863h3.962Z" fill="#365e7d"/>
          </g>
          <g id="Grupo_1101666" data-name="Grupo 1101666">
            <circle id="Elipse_11563" data-name="Elipse 11563" cx="16.81" cy="16.81" r="16.81" transform="translate(19.191 27.656)" fill="#407093"/>
          </g>
          <g id="Grupo_1101667" data-name="Grupo 1101667">
            <path id="Trazado_912366" data-name="Trazado 912366" d="M46.167,31.078A16.81,16.81,0,0,1,22.613,54.631,16.81,16.81,0,1,0,46.167,31.078Z" fill="#365e7d"/>
          </g>
          <g id="Grupo_1101668" data-name="Grupo 1101668">
            <circle id="Elipse_11564" data-name="Elipse 11564" cx="12.327" cy="12.327" r="12.327" transform="translate(23.674 32.138)" fill="#e4f6ff"/>
          </g>
          <g id="Grupo_1101669" data-name="Grupo 1101669">
            <path id="Trazado_912367" data-name="Trazado 912367" d="M43.445,34.64a12.327,12.327,0,0,1-17.27,17.27,12.327,12.327,0,1,0,17.27-17.27Z" fill="#d3effb"/>
          </g>
        </g>
        <g id="Grupo_1101671" data-name="Grupo 1101671">
          <path id="Trazado_912368" data-name="Trazado 912368" d="M6.364,38.85A1.04,1.04,0,0,0,7.4,37.81v-26.4a.361.361,0,0,1,.36-.361h50.43a.361.361,0,0,1,.36.361V23.943a1.04,1.04,0,1,0,2.08,0V11.406a2.441,2.441,0,0,0-1.4-2.2V6.923a2.442,2.442,0,0,0-1.4-2.2V2.441A2.443,2.443,0,0,0,55.392,0H10.566A2.444,2.444,0,0,0,8.125,2.441V4.719a2.442,2.442,0,0,0-1.4,2.2V9.2a2.441,2.441,0,0,0-1.4,2.2v26.4a1.04,1.04,0,0,0,1.04,1.04ZM8.8,6.923a.361.361,0,0,1,.361-.361H56.793a.361.361,0,0,1,.361.361V8.965H8.8Zm1.4-4.483a.361.361,0,0,1,.361-.361H55.392a.361.361,0,0,1,.361.361V4.483H10.2Z"/>
          <path id="Trazado_912369" data-name="Trazado 912369" d="M45.453,35.013a13.367,13.367,0,1,0,3.915,9.452A13.279,13.279,0,0,0,45.453,35.013ZM43.982,52.447a11.287,11.287,0,1,1,3.306-7.981A11.214,11.214,0,0,1,43.982,52.447Z"/>
          <path id="Trazado_912370" data-name="Trazado 912370" d="M68.174,69.224l-4.738-4.738V51.749a1.04,1.04,0,0,0-1.04-1.04H60.634V28.8a1.04,1.04,0,1,0-2.08,0V50.709H52.721A17.849,17.849,0,0,0,25.894,29.752V14.488a1.04,1.04,0,0,0-1.04-1.04H10.846a1.04,1.04,0,0,0-1.04,1.04v17.37a1.04,1.04,0,0,0,1.04,1.04H22.407a17.887,17.887,0,0,0-3.126,17.812H7.4V42.664a1.04,1.04,0,1,0-2.08,0v8.046H3.561a1.04,1.04,0,0,0-1.04,1.049l.155,18.21A1.04,1.04,0,0,0,3.717,71H9.9a1.04,1.04,0,1,0,0-2.08H4.748L4.61,52.79h15.6a17.878,17.878,0,0,0,24.15,7.449l2.99,2.99a1.04,1.04,0,0,0,1.471,0l.453-.453,2.1,2.1-.453.453a1.04,1.04,0,0,0,0,1.471l2.126,2.126H14.749a1.04,1.04,0,1,0,0,2.08H55.554a1.04,1.04,0,0,0,.733-1.775l-3.166-3.166,4.472-4.472L66.7,70.7a1.04,1.04,0,0,0,1.471-1.471Zm-56.288-53.7H23.814v15.29H11.886ZM24.85,55.616a15.77,15.77,0,1,1,22.3,0A15.788,15.788,0,0,1,24.85,55.616Zm21.338,3.509a17.964,17.964,0,0,0,4.472-4.472l1.9,1.9-4.472,4.472Zm4.557,2.18,2.1-2.1,2.1,2.1-2.1,2.1Zm6.114-1.924-.453.453-2.1-2.1.453-.453a1.04,1.04,0,0,0,0-1.471l-2.99-2.99.019-.035h9.563v9.616L58.33,59.38a1.04,1.04,0,0,0-1.471,0Z"/>
          <path id="Trazado_912371" data-name="Trazado 912371" d="M55.111,13.448H29.617a1.04,1.04,0,1,0,0,2.08H55.111a1.04,1.04,0,0,0,0-2.08Z"/>
          <path id="Trazado_912372" data-name="Trazado 912372" d="M56.151,18.97a1.04,1.04,0,0,0-1.04-1.04H29.617a1.04,1.04,0,1,0,0,2.08H55.111A1.04,1.04,0,0,0,56.151,18.97Z"/>
          <path id="Trazado_912373" data-name="Trazado 912373" d="M29.617,22.413a1.04,1.04,0,0,0,0,2.08h17.09a1.04,1.04,0,1,0,0-2.08Z"/>
        </g>
      </g>
    </g>
  </g>
</svg>
