<svg xmlns="http://www.w3.org/2000/svg" xmlns:xlink="http://www.w3.org/1999/xlink" width="85" height="82.435" viewBox="0 0 85 82.435">
  <defs>
    <clipPath id="clip-path">
      <rect id="Rect치ngulo_403099" data-name="Rect치ngulo 403099" width="71" height="71" transform="translate(1237.051 4388)" fill="#fff" stroke="#707070" stroke-width="1"/>
    </clipPath>
  </defs>
  <g id="Grupo_1101712" data-name="Grupo 1101712" transform="translate(-1230 -4388)">
    <g id="Grupo_1101711" data-name="Grupo 1101711">
      <g id="Grupo_1101710" data-name="Grupo 1101710">
        <rect id="Rect치ngulo_403100" data-name="Rect치ngulo 403100" width="85" height="50" rx="10" transform="translate(1230 4420.435)" fill="#b1ce95"/>
        <g id="Enmascarar_grupo_1098710" data-name="Enmascarar grupo 1098710" clip-path="url(#clip-path)">
          <g id="abrir-correo-electronico" transform="translate(1237.055 4388)">
            <path id="Trazado_912390" data-name="Trazado 912390" d="M69.938,25.983v37.35a6.615,6.615,0,0,1-6.615,6.613H7.668a6.613,6.613,0,0,1-6.613-6.613V25.983Zm0,0" fill="#fec970"/>
            <path id="Trazado_912391" data-name="Trazado 912391" d="M35.778,69.946H7.668a6.613,6.613,0,0,1-6.613-6.613V25.76L8.4,32.1l.458.381V51.33c0,6.413,2.588,12.491,8.488,15.007,5.444,2.322,15.128,3.608,18.432,3.608Zm0,0" fill="#fba028"/>
            <path id="Trazado_912392" data-name="Trazado 912392" d="M69.938,25.983,43.461,3.937a12.446,12.446,0,0,0-15.929,0L1.055,25.983l7.8,6.5L27.531,48.028a12.444,12.444,0,0,0,15.929,0L62.135,32.48l7.8-6.5" fill="#fba028"/>
            <path id="Trazado_912393" data-name="Trazado 912393" d="M62.135,12.224V32.48L43.46,48.028a12.444,12.444,0,0,1-15.929,0L8.858,32.48V12.224a7.649,7.649,0,0,1,7.649-7.648h37.98a7.648,7.648,0,0,1,7.648,7.648Zm0,0" fill="#bfdadd"/>
            <path id="Trazado_912394" data-name="Trazado 912394" d="M62.135,12.224V27.841L43.46,43.389a12.444,12.444,0,0,1-15.929,0L8.858,27.841V12.224a7.649,7.649,0,0,1,7.649-7.648h37.98a7.648,7.648,0,0,1,7.648,7.648Zm0,0" fill="#e4f5f7"/>
            <path id="Trazado_912395" data-name="Trazado 912395" d="M63.517,65.654a1.054,1.054,0,0,0,.675-1.864l-16.812-14a1.054,1.054,0,0,0-1.349,1.621l16.812,14a1.049,1.049,0,0,0,.674.244Zm0,0"/>
            <path id="Trazado_912396" data-name="Trazado 912396" d="M23.612,49.792,6.8,63.789A1.054,1.054,0,0,0,8.15,65.41l16.812-14a1.054,1.054,0,1,0-1.349-1.62Zm0,0"/>
            <path id="Trazado_912397" data-name="Trazado 912397" d="M70.992,25.983a1.055,1.055,0,0,0-.38-.81l-7.424-6.181V12.224a8.711,8.711,0,0,0-8.7-8.7H44.61l-.475-.4a13.5,13.5,0,0,0-17.279,0l-.475.4H24.25a1.054,1.054,0,0,0,0,2.109H54.487a6.6,6.6,0,0,1,6.593,6.593V19.48h0V31.986L42.785,47.218a11.389,11.389,0,0,1-14.58,0L9.913,31.986V19.481h0V12.224a6.6,6.6,0,0,1,6.595-6.593h3.525a1.054,1.054,0,1,0,0-2.109H16.507a8.712,8.712,0,0,0-8.7,8.7v6.767L.38,25.173a1.053,1.053,0,0,0-.379.8s0,.005,0,.009v37.35A7.676,7.676,0,0,0,7.667,71H54.9a1.054,1.054,0,1,0,0-2.108H7.667a5.565,5.565,0,0,1-5.559-5.559v-35.1l6.078,5.062h0L26.856,48.839a13.5,13.5,0,0,0,17.278,0L62.8,33.3l.009-.008,6.073-5.057v35.1a5.565,5.565,0,0,1-5.559,5.559H59.114a1.054,1.054,0,0,0,0,2.109h4.211a7.676,7.676,0,0,0,7.668-7.668V25.991s0-.005,0-.009Zm-30-22.46H30A11.393,11.393,0,0,1,40.989,3.523ZM7.8,21.735v8.5L2.7,25.983ZM63.189,30.23V21.735l5.1,4.247Zm0,0"/>
            <path id="Trazado_912398" data-name="Trazado 912398" d="M50.96,29.208H20.033a1.054,1.054,0,1,0,0,2.109H50.96a1.054,1.054,0,1,0,0-2.109Zm0,0"/>
            <path id="Trazado_912399" data-name="Trazado 912399" d="M50.96,35.331H20.033a1.054,1.054,0,1,0,0,2.109H50.96a1.054,1.054,0,1,0,0-2.109Zm0,0"/>
            <path id="Trazado_912400" data-name="Trazado 912400" d="M50.96,16.961H20.033a1.054,1.054,0,1,0,0,2.109H50.96a1.054,1.054,0,1,0,0-2.109Zm0,0"/>
            <path id="Trazado_912401" data-name="Trazado 912401" d="M50.96,23.085H43.228a1.054,1.054,0,0,0,0,2.108H50.96a1.054,1.054,0,0,0,0-2.108Zm0,0"/>
            <path id="Trazado_912402" data-name="Trazado 912402" d="M20.033,25.193H39.714a1.054,1.054,0,0,0,0-2.108H20.033a1.054,1.054,0,1,0,0,2.108Zm0,0"/>
          </g>
        </g>
      </g>
    </g>
  </g>
</svg>
