<svg xmlns="http://www.w3.org/2000/svg" xmlns:xlink="http://www.w3.org/1999/xlink" width="925" height="401" viewBox="0 0 925 401">
  <defs>
    <clipPath id="clip-path">
      <rect id="Rectángulo_403044" data-name="Rectángulo 403044" width="925" height="401" rx="20" transform="translate(136.102 7545)" fill="#8f61c2"/>
    </clipPath>
  </defs>
  <g id="Grupo_1101722" data-name="Grupo 1101722" transform="translate(-495.025 -413)">
    <g id="Grupo_1101721" data-name="Grupo 1101721">
      <g id="Grupo_1101720" data-name="Grupo 1101720">
        <g id="Grupo_1101719" data-name="Grupo 1101719">
          <g id="Grupo_1101718" data-name="Grupo 1101718">
            <g id="Grupo_1101717" data-name="Grupo 1101717">
              <rect id="Rectángulo_403043" data-name="Rectángulo 403043" width="925" height="401" rx="20" transform="translate(495.025 413)" fill="#b1ce95"/>
              <g id="Enmascarar_grupo_1098694" data-name="Enmascarar grupo 1098694" transform="translate(358.924 -7132)" clip-path="url(#clip-path)">
                <path id="Trazado_911233" data-name="Trazado 911233" d="M7.369,246.286a.781.781,0,0,1-.73-.5C.574,229.793-.974,217.656,1.461,205.2A87.9,87.9,0,0,1,7.9,186c3.277-7.311,7.533-15.207,11.645-22.651,7.77-14.068,5.774-30.712,3.661-48.334-1.463-12.2-2.975-24.807-1.341-37.332a69.685,69.685,0,0,1,1.873-9.394,61.515,61.515,0,0,1,8.521-18.457,70.6,70.6,0,0,1,7.237-8.935,77.193,77.193,0,0,1,11.161-9.737A66.545,66.545,0,0,1,62.5,24.421a63.734,63.734,0,0,1,12.358-3.956,67.447,67.447,0,0,1,12.68-1.417,81.094,81.094,0,0,1,21.629,2.683,108.929,108.929,0,0,1,21.211,8.03,140.62,140.62,0,0,1,20,12.208A162.237,162.237,0,0,1,168.362,57.2C194.7,82.987,227.8,96.149,264.737,96.149c18.951,0,38.907-3.465,59.476-10.468a67.287,67.287,0,0,1,13.494-3.071,73.172,73.172,0,0,1,13.819-.349,80.723,80.723,0,0,1,13.788,2.172,87.867,87.867,0,0,1,13.407,4.495A92.662,92.662,0,0,1,391.4,95.549,93.934,93.934,0,0,1,403,104.1a91.662,91.662,0,0,1,10.176,10.3,86.985,86.985,0,0,1,8.4,11.845,79.469,79.469,0,0,1,9.785,26.043,78.324,78.324,0,0,1-.315,29.579,89.689,89.689,0,0,1-4.695,15.68,106.431,106.431,0,0,1-8.11,16.041,132.953,132.953,0,0,1-11.815,16.234,171.946,171.946,0,0,1-15.811,16.263.781.781,0,0,1-1.048-1.157c11.382-10.312,20.581-21.131,27.343-32.157a95.787,95.787,0,0,0,12.6-31.21,76.422,76.422,0,0,0-9.284-54.525c-19.91-33.817-61.866-51.333-95.516-39.877A211.356,211.356,0,0,1,299.866,94,179.011,179.011,0,0,1,276.4,97.326a156.786,156.786,0,0,1-22.044.072,142.87,142.87,0,0,1-20.568-2.916,135.782,135.782,0,0,1-19.041-5.636,134.25,134.25,0,0,1-17.464-8.087A139.611,139.611,0,0,1,167.27,58.317a150.731,150.731,0,0,0-37.583-27.159,107.368,107.368,0,0,0-20.9-7.916A79.536,79.536,0,0,0,87.57,20.609c-17.982.322-33.777,7.508-46.946,21.359C18.772,64.951,21.812,90.305,24.753,114.825c1.081,9.016,2.1,17.531,1.884,25.792A60.865,60.865,0,0,1,25.2,152.731a46.047,46.047,0,0,1-1.73,5.79,41.949,41.949,0,0,1-2.562,5.578c-4.1,7.414-8.333,15.276-11.587,22.534A86.4,86.4,0,0,0,2.993,205.5c-2.376,12.151-.849,24.033,5.106,39.73a.781.781,0,0,1-.73,1.058Z" transform="translate(836.483 7791.915)" fill="#8f61c2"/>
                <path id="Trazado_911233-2" data-name="Trazado 911233" d="M7.01,227.25a.781.781,0,0,1-.73-.5C.215,210.757-1.334,198.619,1.1,186.162a87.9,87.9,0,0,1,6.436-19.2c3.277-7.311,7.533-15.207,11.645-22.651,7.77-14.068,5.774-30.712,3.661-48.334-1.463-12.2-2.975-24.807-1.341-37.332a69.685,69.685,0,0,1,1.873-9.394A61.515,61.515,0,0,1,31.9,30.791a70.6,70.6,0,0,1,7.237-8.935,77.193,77.193,0,0,1,11.161-9.737A66.545,66.545,0,0,1,62.146,5.385,63.734,63.734,0,0,1,74.5,1.428,67.447,67.447,0,0,1,87.183.011a81.094,81.094,0,0,1,21.629,2.683,108.929,108.929,0,0,1,21.211,8.03,140.62,140.62,0,0,1,20,12.208A162.237,162.237,0,0,1,168,38.165c26.335,25.785,59.442,38.947,96.375,38.947,18.951,0,38.907-3.465,59.476-10.468a67.287,67.287,0,0,1,13.494-3.071,73.172,73.172,0,0,1,13.819-.349A80.723,80.723,0,0,1,364.954,65.4a87.867,87.867,0,0,1,13.407,4.495,92.662,92.662,0,0,1,12.679,6.621,93.934,93.934,0,0,1,11.6,8.554,91.662,91.662,0,0,1,10.176,10.3,86.985,86.985,0,0,1,8.4,11.845A79.468,79.468,0,0,1,431,133.25a78.324,78.324,0,0,1-.315,29.579,89.689,89.689,0,0,1-4.695,15.68,106.432,106.432,0,0,1-8.11,16.041,132.954,132.954,0,0,1-11.815,16.234,171.948,171.948,0,0,1-15.811,16.263.781.781,0,0,1-1.048-1.157c11.382-10.312,20.581-21.131,27.343-32.157a95.787,95.787,0,0,0,12.6-31.21A76.422,76.422,0,0,0,419.873,108c-19.91-33.817-61.866-51.333-95.516-39.877a211.356,211.356,0,0,1-24.85,6.843,179.011,179.011,0,0,1-23.471,3.325,156.786,156.786,0,0,1-22.044.072,142.87,142.87,0,0,1-20.568-2.916,135.782,135.782,0,0,1-19.041-5.636,134.25,134.25,0,0,1-17.464-8.087A139.611,139.611,0,0,1,166.911,39.28a150.731,150.731,0,0,0-37.583-27.159,107.368,107.368,0,0,0-20.9-7.916A79.536,79.536,0,0,0,87.211,1.572C69.229,1.894,53.434,9.08,40.265,22.931,18.412,45.914,21.453,71.268,24.393,95.788c1.081,9.016,2.1,17.531,1.884,25.792a60.865,60.865,0,0,1-1.437,12.114,46.047,46.047,0,0,1-1.73,5.79,41.95,41.95,0,0,1-2.562,5.578c-4.1,7.414-8.333,15.276-11.587,22.534a86.4,86.4,0,0,0-6.328,18.865c-2.376,12.151-.849,24.033,5.106,39.73a.781.781,0,0,1-.73,1.058Z" transform="translate(652.462 7721.447) rotate(-120)" fill="#8f61c2"/>
                <path id="Trazado_911233-3" data-name="Trazado 911233" d="M9.906,328.509a1.063,1.063,0,0,1-.994-.686c-8.26-21.774-10.369-38.3-7.052-55.267,1.561-7.984,4.346-16.294,8.764-26.152,4.463-9.956,10.259-20.709,15.858-30.846,10.581-19.158,7.863-41.824,4.986-65.822-1.992-16.609-4.051-33.783-1.826-50.84A94.9,94.9,0,0,1,32.193,86.1,83.772,83.772,0,0,1,43.8,60.968,96.148,96.148,0,0,1,53.652,48.8a105.122,105.122,0,0,1,15.2-13.261A90.622,90.622,0,0,1,84.99,26.37a86.794,86.794,0,0,1,16.829-5.388,91.85,91.85,0,0,1,17.267-1.93,110.435,110.435,0,0,1,29.455,3.653,148.341,148.341,0,0,1,28.885,10.935,191.5,191.5,0,0,1,27.23,16.625A220.936,220.936,0,0,1,229.148,71.01c35.864,35.114,80.949,53.038,131.245,53.038,25.807,0,52.985-4.718,80.995-14.255a91.632,91.632,0,0,1,18.377-4.182,99.647,99.647,0,0,1,18.818-.476,109.933,109.933,0,0,1,18.777,2.958,119.656,119.656,0,0,1,18.258,6.121,126.183,126.183,0,0,1,17.266,9.017,127.921,127.921,0,0,1,15.8,11.649,124.818,124.818,0,0,1,13.858,14.02,118.451,118.451,0,0,1,11.438,16.131A108.221,108.221,0,0,1,587.306,200.5a106.663,106.663,0,0,1-.43,40.282,122.142,122.142,0,0,1-6.393,21.353,144.946,144.946,0,0,1-11.044,21.845,181.052,181.052,0,0,1-16.09,22.108,234.159,234.159,0,0,1-21.532,22.147,1.063,1.063,0,1,1-1.427-1.575c15.5-14.043,28.028-28.777,37.236-43.791a130.444,130.444,0,0,0,17.165-42.5,104.073,104.073,0,0,0-12.643-74.253c-27.115-46.052-84.25-69.905-130.076-54.305a287.834,287.834,0,0,1-33.841,9.319,243.781,243.781,0,0,1-31.963,4.528,213.515,213.515,0,0,1-30.02.1,194.56,194.56,0,0,1-28.01-3.971,184.91,184.91,0,0,1-25.931-7.676,182.822,182.822,0,0,1-23.783-11.013,190.124,190.124,0,0,1-40.864-30.561C212,57.2,194.3,44.409,176.48,35.544a146.215,146.215,0,0,0-28.469-10.78,108.314,108.314,0,0,0-28.887-3.587c-24.488.438-46,10.224-63.932,29.087-29.759,31.3-25.619,65.827-21.614,99.218,1.472,12.278,2.863,23.874,2.566,35.124a82.887,82.887,0,0,1-1.957,16.5,62.709,62.709,0,0,1-2.355,7.885,57.128,57.128,0,0,1-3.489,7.6c-5.577,10.1-11.348,20.8-15.779,30.688a117.666,117.666,0,0,0-8.618,25.69C.711,289.511,2.79,305.692,10.9,327.068a1.064,1.064,0,0,1-.994,1.44Z" transform="translate(-394.668 7442.542)" fill="#8f61c2"/>
                <g id="Grupo_1101611" data-name="Grupo 1101611" transform="translate(147.579 7552.304)">
                  <path id="Elipse_11538" data-name="Elipse 11538" d="M8.033,0a8.033,8.033,0,0,1,5.68,13.713A8.033,8.033,0,0,1,2.353,2.353,7.98,7.98,0,0,1,8.033,0Zm0,13.94A5.907,5.907,0,1,0,2.126,8.033,5.914,5.914,0,0,0,8.033,13.94Z" transform="matrix(0.987, -0.16, 0.16, 0.987, 891.17, 62.288)" fill="#d0e2c0"/>
                  <path id="Elipse_11538-2" data-name="Elipse 11538" d="M8.033,0a8.033,8.033,0,0,1,5.68,13.713A8.033,8.033,0,0,1,2.353,2.353,7.98,7.98,0,0,1,8.033,0Zm0,13.94A5.907,5.907,0,1,0,2.126,8.033,5.914,5.914,0,0,0,8.033,13.94Z" transform="matrix(0.987, -0.16, 0.16, 0.987, 604.61, 365.52)" fill="#d0e2c0"/>
                  <path id="Rectángulo_402855" data-name="Rectángulo 402855" d="M-.437-1.5h13.78A1.063,1.063,0,0,1,14.406-.437v13.78a1.063,1.063,0,0,1-1.063,1.063H-.437A1.063,1.063,0,0,1-1.5,13.343V-.437A1.063,1.063,0,0,1-.437-1.5ZM12.28.626H.626V12.28H12.28Z" transform="translate(827.115 1.5)" fill="#d0e2c0"/>
                  <path id="Rectángulo_402855-2" data-name="Rectángulo 402855" d="M-.437-1.5h13.78A1.063,1.063,0,0,1,14.406-.437v13.78a1.063,1.063,0,0,1-1.063,1.063H-.437A1.063,1.063,0,0,1-1.5,13.343V-.437A1.063,1.063,0,0,1-.437-1.5ZM12.28.626H.626V12.28H12.28Z" transform="translate(541.953 210.763)" fill="#d0e2c0"/>
                  <path id="Rectángulo_402855-3" data-name="Rectángulo 402855" d="M1.063,0h13.78a1.063,1.063,0,0,1,1.063,1.063v13.78a1.063,1.063,0,0,1-1.063,1.063H1.063A1.063,1.063,0,0,1,0,14.843V1.063A1.063,1.063,0,0,1,1.063,0ZM13.78,2.126H2.126V13.78H13.78Z" transform="matrix(0.883, -0.469, 0.469, 0.883, 46.871, 115.21)" fill="#d0e2c0"/>
                  <path id="Trazado_911233-4" data-name="Trazado 911233" d="M574.477,246.226H560.7a1.063,1.063,0,0,1-.951-1.538l6.89-13.78a1.063,1.063,0,0,1,1.9,0l6.89,13.78a1.063,1.063,0,0,1-.951,1.538Zm-12.06-2.126h10.34l-5.17-10.34Z" transform="translate(311.019 31.578)" fill="#d0e2c0"/>
                  <path id="Trazado_911233-5" data-name="Trazado 911233" d="M14.843,15.906H1.063a1.063,1.063,0,0,1-.951-1.538L7,.588a1.063,1.063,0,0,1,1.9,0l6.89,13.78a1.063,1.063,0,0,1-.951,1.538ZM2.783,13.78h10.34L7.953,3.44Z" transform="translate(767.362 365.667) rotate(149)" fill="#d0e2c0"/>
                  <path id="Trazado_911233-6" data-name="Trazado 911233" d="M14.843,15.906H1.063a1.063,1.063,0,0,1-.951-1.538L7,.588a1.063,1.063,0,0,1,1.9,0l6.89,13.78a1.063,1.063,0,0,1-.951,1.538ZM2.783,13.78h10.34L7.953,3.44Z" transform="matrix(-0.799, 0.602, -0.602, -0.799, 247.749, 25.424)" fill="#d0e2c0"/>
                  <path id="Trazado_911233-7" data-name="Trazado 911233" d="M574.477,246.226H560.7a1.063,1.063,0,0,1-.951-1.538l6.89-13.78a1.063,1.063,0,0,1,1.9,0l6.89,13.78a1.063,1.063,0,0,1-.951,1.538Zm-12.06-2.126h10.34l-5.17-10.34Z" transform="translate(-434.042 153.561)" fill="#d0e2c0"/>
                  <path id="Rectángulo_402856" data-name="Rectángulo 402856" d="M1.063,0H14.842a1.063,1.063,0,0,1,1.063,1.063v13.78a1.063,1.063,0,0,1-1.063,1.063H1.063A1.063,1.063,0,0,1,0,14.843V1.063A1.063,1.063,0,0,1,1.063,0ZM13.779,2.126H2.126V13.78H13.779Z" transform="translate(573.928 31.811) rotate(-30.001)" fill="#d0e2c0"/>
                  <path id="Unión_41" data-name="Unión 41" d="M9.554,13.528,6.641,8.482,1.595,11.4a1.075,1.075,0,0,1-.532.143A1.064,1.064,0,0,1,.531,9.555L5.578,6.641,2.665,1.595A1.063,1.063,0,0,1,4.506.532L7.419,5.578l5.046-2.914a1.063,1.063,0,0,1,1.063,1.842L8.482,7.42,11.4,12.467a1.063,1.063,0,1,1-1.842,1.062Z" transform="translate(493.472 362.947)" fill="#d0e2c0"/>
                  <path id="Unión_42" data-name="Unión 42" d="M9.554,13.528,6.641,8.482,1.595,11.4a1.075,1.075,0,0,1-.532.143A1.064,1.064,0,0,1,.531,9.555L5.578,6.641,2.665,1.595A1.063,1.063,0,0,1,4.506.532L7.419,5.578l5.046-2.914a1.063,1.063,0,0,1,1.063,1.842L8.482,7.42,11.4,12.467a1.063,1.063,0,1,1-1.842,1.062Z" transform="translate(0 318.659)" fill="#d0e2c0"/>
                  <path id="Trazado_912112" data-name="Trazado 912112" d="M427.139,63.4a3.884,3.884,0,1,0-3.884,3.884,3.884,3.884,0,0,0,3.884-3.884" transform="translate(439.397 -59.333)" fill="#d0e2c0"/>
                  <path id="Trazado_912113" data-name="Trazado 912113" d="M427.139,63.4a3.884,3.884,0,1,0-3.884,3.884,3.884,3.884,0,0,0,3.884-3.884" transform="translate(-412.301 -7.571)" fill="#d0e2c0"/>
                  <path id="Trazado_912114" data-name="Trazado 912114" d="M3.924,156.352a1.962,1.962,0,1,0-1.962,1.962,1.962,1.962,0,0,0,1.962-1.962" transform="translate(376.002 215.544)" fill="#d0e2c0"/>
                  <path id="Trazado_912115" data-name="Trazado 912115" d="M3.924,156.352a1.962,1.962,0,1,0-1.962,1.962,1.962,1.962,0,0,0,1.962-1.962" transform="translate(7.03 -6.143)" fill="#d0e2c0"/>
                  <path id="Trazado_912116" data-name="Trazado 912116" d="M119.466,32.273a1.962,1.962,0,1,0-1.962,1.962,1.962,1.962,0,0,0,1.962-1.962" transform="translate(485.144 -8.415)" fill="#d0e2c0"/>
                  <path id="Trazado_912117" data-name="Trazado 912117" d="M604.2,291.59a1.962,1.962,0,1,0-1.962,1.962,1.962,1.962,0,0,0,1.962-1.962" transform="translate(290.892 -50.519)" fill="#d0e2c0"/>
                </g>
              </g>
            </g>
          </g>
        </g>
      </g>
    </g>
  </g>
</svg>
