<svg xmlns="http://www.w3.org/2000/svg" width="85" height="75.725" viewBox="0 0 85 75.725">
  <g id="Grupo_1101702" data-name="Grupo 1101702" transform="translate(-285 -836.174)">
    <g id="Grupo_1101701" data-name="Grupo 1101701">
      <g id="Grupo_1101700" data-name="Grupo 1101700">
        <g id="Grupo_1101584" data-name="Grupo 1101584" transform="translate(-420.051 -2019.102)">
          <rect id="Rectángulo_402863" data-name="Rectángulo 402863" width="85" height="50" rx="10" transform="translate(705.051 2881)" fill="#b1ce95"/>
          <g id="carpeta2" transform="translate(713.718 2855.275)">
            <g id="Grupo_1100877" data-name="Grupo 1100877" transform="translate(0.981 0.981)">
              <path id="Trazado_911260" data-name="Trazado 911260" d="M121.551,7.5H70.541a.916.916,0,0,0-.916.916V19.143h52.842V8.416A.916.916,0,0,0,121.551,7.5Z" transform="translate(-61.495 -7.5)" fill="#b9def9"/>
              <path id="Trazado_911261" data-name="Trazado 911261" d="M417.216,260.979a4.063,4.063,0,0,1-2.04-3.525l-4.095-32.518h7.7a.916.916,0,0,1,.916.916l1.759,31.6C421.458,259.7,417.813,261.322,417.216,260.979Z" transform="translate(-358.269 -196.482)" fill="#ffc344"/>
              <path id="Trazado_911262" data-name="Trazado 911262" d="M463.134,224.936h-4.05a.916.916,0,0,1,.916.916v31.6a4.063,4.063,0,0,1-2.04,3.525,4.046,4.046,0,0,0,2.025.539h0a4.065,4.065,0,0,0,4.065-4.065v-31.6A.916.916,0,0,0,463.134,224.936Z" transform="translate(-399.013 -196.482)" fill="#feb137"/>
              <g id="Grupo_1100876" data-name="Grupo 1100876" transform="translate(4.065 4.065)">
                <path id="Trazado_911263" data-name="Trazado 911263" d="M91.805,95.477H38.562v-56a.916.916,0,0,1,.916-.916H89.372l4.134,6.1V93.776A1.7,1.7,0,0,1,91.805,95.477Z" transform="translate(-38.562 -38.562)" fill="#f0fcff"/>
                <path id="Trazado_911264" data-name="Trazado 911264" d="M430.695,64.978l.865,2.64v49.117a1.639,1.639,0,0,1-1.626,1.7h3.991a1.7,1.7,0,0,0,1.7-1.7V67.618Z" transform="translate(-378.719 -61.521)" fill="#d7ecfe"/>
                <path id="Trazado_911265" data-name="Trazado 911265" d="M426.84,38.562v5.181a.916.916,0,0,0,.916.916h5.181Z" transform="translate(-376.03 -38.562)" fill="#9dcffd"/>
              </g>
              <path id="Trazado_911266" data-name="Trazado 911266" d="M62.056,230.457h0V194.79a.916.916,0,0,0-.916-.916H46.115l-4.065,6.1H8.416a.916.916,0,0,0-.916.916v29.578a4.057,4.057,0,0,0,4.057,4.057H66.12A4.065,4.065,0,0,1,62.056,230.457Z" transform="translate(-7.5 -169.485)" fill="#ffe177"/>
              <path id="Trazado_911267" data-name="Trazado 911267" d="M410.214,230.457h0V194.79a.916.916,0,0,0-.916-.916h-3.926a.916.916,0,0,1,.916.916v35.667h0a4.064,4.064,0,0,0,4.064,4.064h3.926A4.064,4.064,0,0,1,410.214,230.457Z" transform="translate(-353.307 -169.485)" fill="#f9d45d"/>
              <path id="Trazado_911268" data-name="Trazado 911268" d="M66.529,403.908H55.009a.916.916,0,0,1-.916-.916v-6.3a.916.916,0,0,1,.916-.916h11.52a.916.916,0,0,1,.916.916v6.3A.916.916,0,0,1,66.529,403.908Z" transform="translate(-47.996 -344.968)" fill="#ffc344"/>
              <path id="Trazado_911269" data-name="Trazado 911269" d="M145.268,395.778h-3.926a.916.916,0,0,1,.916.916v6.3a.916.916,0,0,1-.916.916h3.926a.916.916,0,0,0,.916-.916v-6.3A.916.916,0,0,0,145.268,395.778Z" transform="translate(-123.828 -344.968)" fill="#feb137"/>
            </g>
            <g id="Grupo_1100879" data-name="Grupo 1100879" transform="translate(0 0)">
              <path id="Trazado_911270" data-name="Trazado 911270" d="M115.949,12.125a.981.981,0,0,1-.981-.981V1.9l-50.945.065.065,3.083a.981.981,0,1,1-1.963,0V1.9a1.9,1.9,0,0,1,1.9-1.9h51.01a1.9,1.9,0,0,1,1.9,1.9v9.246A.981.981,0,0,1,115.949,12.125Z" transform="translate(-53.995 0)"/>
              <path id="Trazado_911271" data-name="Trazado 911271" d="M439.918,255.982a5.052,5.052,0,0,1-5.046-5.046.981.981,0,1,1,1.963,0,3.083,3.083,0,1,0,6.167,0v-31.6l-3.083.065a.981.981,0,0,1,0-1.963h3.149a1.9,1.9,0,0,1,1.9,1.9v31.6A5.052,5.052,0,0,1,439.918,255.982Z" transform="translate(-377.965 -188.982)"/>
              <g id="Grupo_1100878" data-name="Grupo 1100878" transform="translate(4.065 4.065)">
                <path id="Trazado_911272" data-name="Trazado 911272" d="M87.249,89.94H84.886a.981.981,0,1,1,0-1.963h2.363a.721.721,0,0,0,.72-.72V38.547l-5.522-5.522H32.959l.065,11.845a.981.981,0,1,1-1.963,0V32.959a1.9,1.9,0,0,1,1.9-1.9H82.853a.981.981,0,0,1,.694.287l6.1,6.1a.981.981,0,0,1,.287.694V87.257A2.686,2.686,0,0,1,87.249,89.94Z" transform="translate(-31.062 -31.062)"/>
                <path id="Línea_593" data-name="Línea 593" d="M-6.519,3.738A.981.981,0,0,1-7.5,2.757V-6.519A.981.981,0,0,1-6.519-7.5a.981.981,0,0,1,.981.981V2.757A.981.981,0,0,1-6.519,3.738Z" transform="translate(7.5 24.603)"/>
                <path id="Trazado_911273" data-name="Trazado 911273" d="M426.419,39.122h-5.181a1.9,1.9,0,0,1-1.9-1.9V32.043a.981.981,0,0,1,1.963,0v5.181l5.116-.065a.981.981,0,0,1,0,1.963Z" transform="translate(-368.53 -31.062)"/>
              </g>
              <path id="Trazado_911274" data-name="Trazado 911274" d="M61.953,228.985H5.038A5.044,5.044,0,0,1,0,223.947V194.369a1.9,1.9,0,0,1,1.9-1.9h33.11l3.773-5.66a.981.981,0,0,1,.817-.437H56.972a1.9,1.9,0,0,1,1.9,1.9v8.767a.981.981,0,0,1-1.963,0v-8.767l-16.783.063L36.349,194a.981.981,0,0,1-.817.437H1.9l.065,29.513a3.079,3.079,0,0,0,3.075,3.075H57.961a5.02,5.02,0,0,1-1.054-3.083V201.315H58.87v22.623a3.087,3.087,0,0,0,3.083,3.083.981.981,0,0,1,0,1.963Z" transform="translate(0 -161.985)"/>
              <path id="Línea_594" data-name="Línea 594" d="M28.032-5.537H-6.519A.981.981,0,0,1-7.5-6.519.981.981,0,0,1-6.519-7.5H28.032a.981.981,0,0,1,.981.981A.981.981,0,0,1,28.032-5.537Z" transform="translate(17.662 19.694)"/>
              <path id="Línea_595" data-name="Línea 595" d="M15.838-5.537H-6.519A.981.981,0,0,1-7.5-6.519.981.981,0,0,1-6.519-7.5H15.838a.981.981,0,0,1,.981.981A.981.981,0,0,1,15.838-5.537Z" transform="translate(17.662 26.53)"/>
              <path id="Línea_596" data-name="Línea 596" d="M15.838-5.537H-6.519A.981.981,0,0,1-7.5-6.519.981.981,0,0,1-6.519-7.5H15.838a.981.981,0,0,1,.981.981A.981.981,0,0,1,15.838-5.537Z" transform="translate(17.662 30.594)"/>
              <path id="Trazado_911275" data-name="Trazado 911275" d="M62.918,398.371H59.441a.981.981,0,0,1,0-1.963h3.476l-.065-6.232-14.362.065.065,6.232,6.608-.065a.981.981,0,0,1,0,1.963H48.49a1.9,1.9,0,0,1-1.9-1.9v-6.3a1.9,1.9,0,0,1,1.9-1.9H62.918a1.9,1.9,0,0,1,1.9,1.9v6.3A1.9,1.9,0,0,1,62.918,398.371Z" transform="translate(-40.496 -337.468)"/>
            </g>
          </g>
        </g>
      </g>
    </g>
  </g>
</svg>
