<svg xmlns="http://www.w3.org/2000/svg" xmlns:xlink="http://www.w3.org/1999/xlink" width="525" height="428.7" viewBox="0 0 525 428.7">
  <defs>
    <clipPath id="clip-path">
      <path id="Trazado_912202" data-name="Trazado 912202" d="M162.3,71.18,134.75,258.525H348.707L321.157,71.18" transform="translate(-134.75 -71.18)" fill="#8f61c2" stroke="#263238" stroke-linecap="round" stroke-linejoin="round" stroke-width="1"/>
    </clipPath>
    <clipPath id="clip-path-2">
      <path id="Trazado_912208" data-name="Trazado 912208" d="M307.281,91.247l-1.021,5.068-10.489,52.157a3.434,3.434,0,0,1-3.369,2.785H198a3.434,3.434,0,0,1-3.369-2.785L183.938,95.081l-.77-3.834a1.764,1.764,0,0,1,1.7-2.107h120.67a1.764,1.764,0,0,1,1.745,2.107Z" transform="translate(-183.134 -89.14)" fill="#fff" stroke="#263238" stroke-linecap="round" stroke-linejoin="round" stroke-width="1"/>
    </clipPath>
    <clipPath id="clip-path-3">
      <path id="Trazado_912213" data-name="Trazado 912213" d="M308.648,105.987l-1.021,4.957-10.758,52.1a3.5,3.5,0,0,1-3.453,2.785H196.75a3.5,3.5,0,0,1-3.453-2.785l-10.8-52.278-.984-4.78a1.773,1.773,0,0,1,1.764-2.107h123.6a1.773,1.773,0,0,1,1.764,2.107Z" transform="translate(-181.486 -103.88)" fill="#fff" stroke="#263238" stroke-linecap="round" stroke-linejoin="round" stroke-width="1"/>
    </clipPath>
    <clipPath id="clip-path-4">
      <path id="Trazado_912222" data-name="Trazado 912222" d="M310.878,142.12H178.6a1.8,1.8,0,0,0-1.856,2.079l3.1,13.923,9.505,42.634a3.713,3.713,0,0,0,3.713,2.729h103.4a3.713,3.713,0,0,0,3.713-2.729l4.641-20.913,7.946-35.635a1.8,1.8,0,0,0-1.894-2.089Z" transform="translate(-176.726 -142.116)" fill="#fff" stroke="#263238" stroke-linecap="round" stroke-linejoin="round" stroke-width="1"/>
    </clipPath>
    <clipPath id="clip-path-5">
      <path id="Trazado_912227" data-name="Trazado 912227" d="M316.969,211.518l-1.3,6.665-9.811,49.781a3.982,3.982,0,0,1-3.889,2.878L189.588,276a3.982,3.982,0,0,1-4.14-2.506l-15.511-52.631-.752-2.553c-.306-1.049.64-2.089,1.959-2.144l143.7-6.609C316.152,209.5,317.183,210.451,316.969,211.518Z" transform="translate(-169.128 -209.557)" fill="#fff" stroke="#263238" stroke-linecap="round" stroke-linejoin="round" stroke-width="1"/>
    </clipPath>
    <clipPath id="clip-path-6">
      <path id="Trazado_912232" data-name="Trazado 912232" d="M320.907,235.561l-2.785,9.171-14.053,45.725a4.047,4.047,0,0,1-4.233,2.469l-114.609-5.987a4.066,4.066,0,0,1-3.954-2.9l-9.7-49.447-1.355-6.915c-.214-1.067.854-2,2.2-1.931l146.5,7.658C320.266,233.482,321.232,234.521,320.907,235.561Z" transform="translate(-170.191 -225.746)" fill="#fff" stroke="#263238" stroke-linecap="round" stroke-linejoin="round" stroke-width="1"/>
    </clipPath>
    <clipPath id="clip-path-7">
      <path id="Trazado_912240" data-name="Trazado 912240" d="M324.559,384.918H156.791L120.07,280.78H361.28Z" transform="translate(-120.07 -280.78)" fill="#8f61c2" stroke="#263238" stroke-linecap="round" stroke-linejoin="round" stroke-width="1"/>
    </clipPath>
    <clipPath id="clip-path-8">
      <path id="Trazado_912257" data-name="Trazado 912257" d="M252.1,122.976l-.761-2.181a3.648,3.648,0,0,0-3.026-2.283l-20.644-2.664a1.977,1.977,0,0,0-2.311,1.559l-.269,2.089-16.448-2.116a1.856,1.856,0,0,0-2.237,1.856l5.857,60.465,111.388,14.36,21-57a1.856,1.856,0,0,0-1.689-2.358Z" transform="translate(-206.4 -115.812)" fill="#fff" stroke="#263238" stroke-linecap="round" stroke-linejoin="round" stroke-width="1"/>
    </clipPath>
    <clipPath id="clip-path-9">
      <path id="Trazado_912261" data-name="Trazado 912261" d="M345.563,140.837l-19.01,51.619-1.467,3.973a3.852,3.852,0,0,1-4.186,2.265L213.55,184.844a3.852,3.852,0,0,1-3.472-3.258l-5.709-58.943a1.856,1.856,0,0,1,2.237-1.856l91.356,11.779,45.91,5.913a1.856,1.856,0,0,1,1.689,2.358Z" transform="translate(-204.37 -120.747)" fill="#fff" stroke="#263238" stroke-linecap="round" stroke-linejoin="round" stroke-width="1"/>
    </clipPath>
  </defs>
  <g id="Grupo_1101678" data-name="Grupo 1101678" transform="translate(-180 -411)">
    <g id="Grupo_1101677" data-name="Grupo 1101677">
      <g id="Grupo_1101676" data-name="Grupo 1101676">
        <g id="Grupo_1101675" data-name="Grupo 1101675">
          <rect id="Rectángulo_402873" data-name="Rectángulo 402873" width="525" height="428" transform="translate(180 411)" fill="#8f61c2"/>
          <g id="Personal_files-bro" data-name="Personal files-bro" transform="translate(198.563 394.148)">
            <g id="freepik--background-simple--inject-13" transform="translate(47.958 39.931)">
              <path id="Trazado_912179" data-name="Trazado 912179" d="M193.785,43.838s43.367-8.79,82.826,0c24.134,5.374,74.955,18.119,86.957,47.006s-45.762,53.531-17.386,82.835c12.243,12.642,70.991,29.314,67.687,111.313s-89.379,131.985-209,129.757S16.187,303.742,62.45,250.174s66.183-53.726,45.214-97.353S115.8,56.323,193.785,43.838Z" transform="translate(-47.958 -39.931)" fill="#8f61c2"/>
              <path id="Trazado_912180" data-name="Trazado 912180" d="M193.785,43.838s43.367-8.79,82.826,0c24.134,5.374,74.955,18.119,86.957,47.006s-45.762,53.531-17.386,82.835c12.243,12.642,70.991,29.314,67.687,111.313s-89.379,131.985-209,129.757S16.187,303.742,62.45,250.174s66.183-53.726,45.214-97.353S115.8,56.323,193.785,43.838Z" transform="translate(-47.958 -39.931)" fill="#ffdba9"/>
            </g>
            <g id="freepik--Graphics--inject-13" transform="translate(70.831 55.45)">
              <path id="Trazado_912181" data-name="Trazado 912181" d="M112.829,187.849l8.076,23.614L82.179,224.709,72.6,196.686l38.726-13.246Z" transform="translate(-72.6 -65.75)" fill="none" stroke="#263238" stroke-linecap="round" stroke-linejoin="round" stroke-width="1"/>
              <path id="Trazado_912182" data-name="Trazado 912182" d="M117.445,200.637l4.047,11.854L82.766,225.736l-1.986-5.811L88.586,208.1l12.707,4.947,9.069-15.3Z" transform="translate(-73.187 -66.777)" fill="none" stroke="#263238" stroke-linecap="round" stroke-linejoin="round" stroke-width="1"/>
              <path id="Trazado_912183" data-name="Trazado 912183" d="M93.586,199.03a4.2,4.2,0,1,1-2.13-2.418,4.214,4.214,0,0,1,2.13,2.418Z" transform="translate(-73.518 -66.664)" fill="none" stroke="#263238" stroke-linecap="round" stroke-linejoin="round" stroke-width="1"/>
              <path id="Trazado_912184" data-name="Trazado 912184" d="M361.056,395.972l-5.337,24.385-39.979-8.762,6.331-28.924,39.988,8.753Z" transform="translate(-90.05 -80.048)" fill="none" stroke="#263238" stroke-linecap="round" stroke-linejoin="round" stroke-width="1"/>
              <line id="Línea_703" data-name="Línea 703" x2="27.466" y2="6.015" transform="translate(233.617 325.307)" fill="none" stroke="#263238" stroke-linecap="round" stroke-linejoin="round" stroke-width="1"/>
              <path id="Trazado_912185" data-name="Trazado 912185" d="M326.683,393.3s-2.785,12.763,11.473,15.891,17.052-9.672,17.052-9.672" transform="translate(-90.82 -80.811)" fill="none" stroke="#263238" stroke-linecap="round" stroke-linejoin="round" stroke-width="1"/>
              <path id="Trazado_912186" data-name="Trazado 912186" d="M327.812,393.473a1.235,1.235,0,1,1-.489-1.285A1.244,1.244,0,0,1,327.812,393.473Z" transform="translate(-90.742 -80.715)" fill="#fff" stroke="#263238" stroke-linecap="round" stroke-linejoin="round" stroke-width="1"/>
              <path id="Trazado_912187" data-name="Trazado 912187" d="M358.54,400.211a1.235,1.235,0,1,1-.957-1.377,1.235,1.235,0,0,1,.957,1.377Z" transform="translate(-92.946 -81.207)" fill="#fff" stroke="#263238" stroke-linecap="round" stroke-linejoin="round" stroke-width="1"/>
              <rect id="Rectángulo_403084" data-name="Rectángulo 403084" width="2.163" height="2.163" transform="matrix(0.977, 0.214, -0.214, 0.977, 232.266, 323.962)" fill="#fff" stroke="#263238" stroke-linecap="round" stroke-linejoin="round" stroke-width="1"/>
              <rect id="Rectángulo_403085" data-name="Rectángulo 403085" width="2.163" height="2.163" transform="matrix(0.977, 0.214, -0.214, 0.977, 246.52, 327.078)" fill="#fff" stroke="#263238" stroke-linecap="round" stroke-linejoin="round" stroke-width="1"/>
              <rect id="Rectángulo_403086" data-name="Rectángulo 403086" width="2.163" height="2.163" transform="matrix(0.977, 0.214, -0.214, 0.977, 260.79, 330.206)" fill="#fff" stroke="#263238" stroke-linecap="round" stroke-linejoin="round" stroke-width="1"/>
              <path id="Trazado_912188" data-name="Trazado 912188" d="M161.575,109.659l-10.1,22.825L114.04,115.906,126.033,88.83,163.459,105.4Z" transform="translate(-75.574 -58.96)" fill="none" stroke="#263238" stroke-linecap="round" stroke-linejoin="round" stroke-width="1"/>
              <path id="Trazado_912189" data-name="Trazado 912189" d="M143.374,120.981c-.715,1.615-3.3,2.042-5.774.928s-3.889-3.3-3.175-4.92,3.3-2.042,5.774-.928S144.089,119.357,143.374,120.981Z" transform="translate(-77.024 -60.869)" fill="#263238"/>
              <path id="Trazado_912190" data-name="Trazado 912190" d="M145.282,102.2l-9.988,14.248-.854-.381,7.305-10.415,1.856-2.71a5.7,5.7,0,0,0,1.634-.733Z" transform="translate(-77.038 -59.919)" fill="#263238"/>
              <path id="Trazado_912191" data-name="Trazado 912191" d="M145.27,102.21l-2.423,3.434a5.244,5.244,0,0,1-1.1,0,7.946,7.946,0,0,1-3.128-.928,3.954,3.954,0,0,0-4.2.288c.121-.149,2.478-3.091,5.727-2.061a5.811,5.811,0,0,0,3.5,0,5.7,5.7,0,0,0,1.634-.733Z" transform="translate(-77.036 -59.92)" fill="#263238"/>
              <path id="Trazado_912192" data-name="Trazado 912192" d="M430.391,309.167l-8.716,23.391L383.32,318.273l10.34-27.763L432.015,304.8Z" transform="translate(-94.9 -73.434)" fill="none" stroke="#263238" stroke-linecap="round" stroke-linejoin="round" stroke-width="1"/>
              <path id="Trazado_912193" data-name="Trazado 912193" d="M405.476,305.07l-9.616,4.4,4.4,9.626" transform="translate(-95.8 -74.479)" fill="none" stroke="#263238" stroke-linecap="round" stroke-linejoin="round" stroke-width="1"/>
              <path id="Trazado_912194" data-name="Trazado 912194" d="M411.73,323.236l9.626-4.391-4.4-9.626" transform="translate(-96.939 -74.777)" fill="none" stroke="#263238" stroke-linecap="round" stroke-linejoin="round" stroke-width="1"/>
              <line id="Línea_704" data-name="Línea 704" x1="8.586" y2="12.8" transform="translate(307.94 233.125)" fill="none" stroke="#263238" stroke-linecap="round" stroke-linejoin="round" stroke-width="1"/>
              <path id="Trazado_912195" data-name="Trazado 912195" d="M389.166,75.048,380.617,98.5,342.16,84.478,352.306,56.65l38.457,14.026Z" transform="translate(-91.946 -56.65)" fill="none" stroke="#263238" stroke-linecap="round" stroke-linejoin="round" stroke-width="1"/>
              <path id="Trazado_912196" data-name="Trazado 912196" d="M362.853,77.764s-.464-2.627-4.344-2.051c-3.583.538-4.641,4.567-1.578,5.671,3.555,1.3,6.34-1.708,9.8-4.641,3.611-3.091,6.887-6.423,7.305-6.813,0,0-8.141,14.564-9.2,16.485s2.126,1.216,2.7.362" transform="translate(-92.877 -57.603)" fill="none" stroke="#263238" stroke-linecap="round" stroke-linejoin="round" stroke-width="1"/>
              <path id="Trazado_912197" data-name="Trazado 912197" d="M377.71,82.938a4.808,4.808,0,0,0-6.5,1.1c-1.132,1.365-.538,2.785.436,3.165,2.506.928,4.056-.186,6.693-4.019,0,0-3.648,5.124-2.868,5.412a2.014,2.014,0,0,0,2.033-.455" transform="translate(-93.987 -58.479)" fill="none" stroke="#263238" stroke-linecap="round" stroke-linejoin="round" stroke-width="1"/>
              <line id="Línea_705" data-name="Línea 705" x2="6.442" y2="2.348" transform="translate(272.751 20.495)" fill="none" stroke="#263238" stroke-linecap="round" stroke-linejoin="round" stroke-width="1"/>
              <path id="Trazado_912198" data-name="Trazado 912198" d="M116.268,365.835,76.28,357.091l5.458-24.951,40.118,8.781Z" transform="translate(-72.864 -76.422)" fill="none" stroke="#263238" stroke-linecap="round" stroke-linejoin="round" stroke-width="1"/>
              <line id="Línea_706" data-name="Línea 706" x2="23.373" y2="5.115" transform="translate(17.933 261.965)" fill="none" stroke="#263238" stroke-linecap="round" stroke-linejoin="round" stroke-width="1"/>
              <line id="Línea_707" data-name="Línea 707" x2="26.659" y2="5.839" transform="translate(14.156 263.487)" fill="none" stroke="#263238" stroke-linecap="round" stroke-linejoin="round" stroke-width="1"/>
              <line id="Línea_708" data-name="Línea 708" x2="26.659" y2="5.829" transform="translate(13.664 265.734)" fill="none" stroke="#263238" stroke-linecap="round" stroke-linejoin="round" stroke-width="1"/>
              <line id="Línea_709" data-name="Línea 709" x2="26.659" y2="5.829" transform="translate(13.172 267.98)" fill="none" stroke="#263238" stroke-linecap="round" stroke-linejoin="round" stroke-width="1"/>
              <line id="Línea_710" data-name="Línea 710" x2="26.659" y2="5.829" transform="translate(12.68 270.217)" fill="none" stroke="#263238" stroke-linecap="round" stroke-linejoin="round" stroke-width="1"/>
              <line id="Línea_711" data-name="Línea 711" x2="26.659" y2="5.829" transform="translate(12.197 272.463)" fill="none" stroke="#263238" stroke-linecap="round" stroke-linejoin="round" stroke-width="1"/>
              <line id="Línea_712" data-name="Línea 712" x2="26.659" y2="5.829" transform="translate(11.705 274.7)" fill="none" stroke="#263238" stroke-linecap="round" stroke-linejoin="round" stroke-width="1"/>
              <line id="Línea_713" data-name="Línea 713" x2="23.373" y2="5.115" transform="translate(11.213 276.947)" fill="none" stroke="#263238" stroke-linecap="round" stroke-linejoin="round" stroke-width="1"/>
            </g>
            <g id="freepik--Drawer--inject-13" transform="translate(114.895 65.921)">
              <path id="Trazado_912199" data-name="Trazado 912199" d="M317.57,160.79H167.977L149.31,67.93H336.237Z" transform="translate(-122.169 -67.93)" fill="#263238"/>
              <path id="Trazado_912200" data-name="Trazado 912200" d="M162.3,71.18,134.75,258.525H348.707L321.157,71.18" transform="translate(-121.124 -68.163)" fill="#8f61c2"/>
              <g id="Grupo_1101641" data-name="Grupo 1101641" transform="translate(13.626 3.017)" clip-path="url(#clip-path)">
                <path id="Trazado_912201" data-name="Trazado 912201" d="M348.707,266.953H134.75l11.519-78.343H337.188Z" transform="translate(-134.75 -79.608)" fill="rgba(0,0,0,0.7)" opacity="0.3"/>
              </g>
              <path id="Trazado_912203" data-name="Trazado 912203" d="M162.3,71.18,134.75,258.525H348.707L321.157,71.18" transform="translate(-121.124 -68.163)" fill="none" stroke="#263238" stroke-linecap="round" stroke-linejoin="round" stroke-width="1"/>
              <path id="Trazado_912204" data-name="Trazado 912204" d="M315.944,71.18H168.726L143.2,258.525H341.47Z" transform="translate(-121.73 -68.163)" fill="#263238"/>
              <path id="Trazado_912205" data-name="Trazado 912205" d="M304.36,86.259H224.449l-.928-2.042a3.147,3.147,0,0,0-2.878-1.856H202.524a1.856,1.856,0,0,0-1.856,1.856V86.3H186.234a1.764,1.764,0,0,0-1.727,2.107l11.807,58.711H294.28L306.087,88.4a1.764,1.764,0,0,0-1.727-2.144Z" transform="translate(-124.692 -68.966)" fill="#bfbfbf" stroke="#263238" stroke-linecap="round" stroke-linejoin="round" stroke-width="1"/>
              <path id="Trazado_912206" data-name="Trazado 912206" d="M307.281,91.247l-1.021,5.068-10.489,52.157a3.434,3.434,0,0,1-3.369,2.785H198a3.434,3.434,0,0,1-3.369-2.785L183.938,95.081l-.77-3.834a1.764,1.764,0,0,1,1.7-2.107h120.67a1.764,1.764,0,0,1,1.745,2.107Z" transform="translate(-124.596 -69.452)" fill="#fff"/>
              <g id="Grupo_1101642" data-name="Grupo 1101642" transform="translate(58.537 19.688)" clip-path="url(#clip-path-2)">
                <path id="Trazado_912207" data-name="Trazado 912207" d="M306.322,96.775l-10.489,52.157a3.434,3.434,0,0,1-3.369,2.785h-94.4a3.434,3.434,0,0,1-3.369-2.785L184,95.54Z" transform="translate(-183.196 -89.599)" fill="#8f61c2" opacity="0.4"/>
              </g>
              <path id="Trazado_912209" data-name="Trazado 912209" d="M307.281,91.247l-1.021,5.068-10.489,52.157a3.434,3.434,0,0,1-3.369,2.785H198a3.434,3.434,0,0,1-3.369-2.785L183.938,95.081l-.77-3.834a1.764,1.764,0,0,1,1.7-2.107h120.67a1.764,1.764,0,0,1,1.745,2.107Z" transform="translate(-124.596 -69.452)" fill="none" stroke="#263238" stroke-linecap="round" stroke-linejoin="round" stroke-width="1"/>
              <path id="Trazado_912210" data-name="Trazado 912210" d="M305.667,100.829H223.835l-.928-2.033a3.23,3.23,0,0,0-2.942-1.856H201.4a1.856,1.856,0,0,0-1.856,1.856v2.079H184.691a1.773,1.773,0,0,0-1.764,2.107l12.067,58.534H295.308l12.067-58.534a1.773,1.773,0,0,0-1.708-2.153Z" transform="translate(-124.579 -70.012)" fill="#bfbfbf" stroke="#263238" stroke-linecap="round" stroke-linejoin="round" stroke-width="1"/>
              <path id="Trazado_912211" data-name="Trazado 912211" d="M308.648,105.987l-1.021,4.957-10.758,52.1a3.5,3.5,0,0,1-3.453,2.785H196.75a3.5,3.5,0,0,1-3.453-2.785l-10.8-52.278-.984-4.78a1.773,1.773,0,0,1,1.764-2.107h123.6a1.773,1.773,0,0,1,1.764,2.107Z" transform="translate(-124.478 -70.51)" fill="#fff"/>
              <g id="Grupo_1101643" data-name="Grupo 1101643" transform="translate(57.008 33.37)" clip-path="url(#clip-path-3)">
                <path id="Trazado_912212" data-name="Trazado 912212" d="M307.705,111.476l-10.758,52.1a3.5,3.5,0,0,1-3.453,2.785H196.828a3.5,3.5,0,0,1-3.453-2.785L182.58,111.3Z" transform="translate(-181.564 -104.412)" fill="#8f61c2" opacity="0.4"/>
              </g>
              <path id="Trazado_912214" data-name="Trazado 912214" d="M308.648,105.987l-1.021,4.957-10.758,52.1a3.5,3.5,0,0,1-3.453,2.785H196.75a3.5,3.5,0,0,1-3.453-2.785l-10.8-52.278-.984-4.78a1.773,1.773,0,0,1,1.764-2.107h123.6a1.773,1.773,0,0,1,1.764,2.107Z" transform="translate(-124.478 -70.51)" fill="none" stroke="#263238" stroke-linecap="round" stroke-linejoin="round" stroke-width="1"/>
              <path id="Trazado_912215" data-name="Trazado 912215" d="M306.967,115.4H223.231l-.928-2.033a3.3,3.3,0,0,0-3.007-1.856H200.248a1.856,1.856,0,0,0-1.912,1.856v2.07H183.178a1.782,1.782,0,0,0-1.81,2.1l12.373,58.358H296.4l12.373-58.358a1.782,1.782,0,0,0-1.81-2.135Z" transform="translate(-124.467 -71.058)" fill="#bfbfbf" stroke="#263238" stroke-linecap="round" stroke-linejoin="round" stroke-width="1"/>
              <path id="Trazado_912216" data-name="Trazado 912216" d="M308.218,118.63h-126.5a1.773,1.773,0,0,0-1.8,2.089l12.067,56.891a3.555,3.555,0,0,0,3.527,2.785h98.921a3.555,3.555,0,0,0,3.527-2.785l12.067-56.891a1.773,1.773,0,0,0-1.81-2.089Z" transform="translate(-124.363 -71.569)" fill="#fff" stroke="#263238" stroke-linecap="round" stroke-linejoin="round" stroke-width="1"/>
              <path id="Trazado_912217" data-name="Trazado 912217" d="M308.274,126.97H222.617l-.975-2.024a3.388,3.388,0,0,0-3.072-1.856H199.077a1.856,1.856,0,0,0-1.959,1.856v2.07H181.645a1.791,1.791,0,0,0-1.856,2.089L192.44,187.3H297.469L310.121,129.1a1.791,1.791,0,0,0-1.847-2.135Z" transform="translate(-124.354 -71.889)" fill="#bfbfbf" stroke="#263238" stroke-linecap="round" stroke-linejoin="round" stroke-width="1"/>
              <path id="Trazado_912218" data-name="Trazado 912218" d="M309.55,130.37h-129.4a1.792,1.792,0,0,0-1.856,2.089l12.336,56.724a3.62,3.62,0,0,0,3.611,2.729H295.422a3.62,3.62,0,0,0,3.611-2.729l12.336-56.724a1.792,1.792,0,0,0-1.819-2.089Z" transform="translate(-124.247 -72.411)" fill="#fff" stroke="#263238" stroke-linecap="round" stroke-linejoin="round" stroke-width="1"/>
              <path id="Trazado_912219" data-name="Trazado 912219" d="M309.576,138.54H222.007l-.993-2.024a3.481,3.481,0,0,0-3.147-1.856H197.975a1.9,1.9,0,0,0-2,1.8v2.061H180.125a1.856,1.856,0,0,0-1.856,2.079l12.94,58.014H298.53L311.47,140.6a1.856,1.856,0,0,0-1.894-2.061Z" transform="translate(-124.246 -72.719)" fill="#bfbfbf" stroke="#263238" stroke-linecap="round" stroke-linejoin="round" stroke-width="1"/>
              <path id="Trazado_912220" data-name="Trazado 912220" d="M310.878,142.12H178.6a1.8,1.8,0,0,0-1.856,2.079l3.1,13.923,9.505,42.634a3.713,3.713,0,0,0,3.713,2.729h103.4a3.713,3.713,0,0,0,3.713-2.729l4.641-20.913,7.946-35.635a1.8,1.8,0,0,0-1.894-2.089Z" transform="translate(-124.136 -73.254)" fill="#fff"/>
              <g id="Grupo_1101644" data-name="Grupo 1101644" transform="translate(52.59 68.862)" clip-path="url(#clip-path-4)">
                <path id="Trazado_912221" data-name="Trazado 912221" d="M180.05,159.35l9.505,42.634a3.713,3.713,0,0,0,3.713,2.729H296.71a3.713,3.713,0,0,0,3.713-2.729l4.641-20.913Z" transform="translate(-176.965 -143.353)" fill="#8f61c2" opacity="0.4"/>
              </g>
              <path id="Trazado_912223" data-name="Trazado 912223" d="M310.878,142.12H178.6a1.8,1.8,0,0,0-1.856,2.079l3.1,13.923,9.505,42.634a3.713,3.713,0,0,0,3.713,2.729h103.4a3.713,3.713,0,0,0,3.713-2.729l4.641-20.913,7.946-35.635a1.8,1.8,0,0,0-1.894-2.089Z" transform="translate(-124.136 -73.254)" fill="none" stroke="#263238" stroke-linecap="round" stroke-linejoin="round" stroke-width="1"/>
              <path id="Trazado_912224" data-name="Trazado 912224" d="M218.1,210.05l-1.17-1.949a3.852,3.852,0,0,0-3.5-1.671l-21.609.993a2.014,2.014,0,0,0-2.089,1.856l.093,2.042-17.228.789c-1.318.056-2.265,1.1-1.949,2.144l16.708,56.622,116.623-5.365L315.4,207.618c.2-1.077-.826-2.024-2.154-1.959Z" transform="translate(-123.695 -77.815)" fill="#bfbfbf" stroke="#263238" stroke-linecap="round" stroke-linejoin="round" stroke-width="1"/>
              <path id="Trazado_912225" data-name="Trazado 912225" d="M316.969,211.518l-1.3,6.665-9.811,49.781a3.982,3.982,0,0,1-3.889,2.878L189.588,276a3.982,3.982,0,0,1-4.14-2.506l-15.511-52.631-.752-2.553c-.306-1.049.64-2.089,1.959-2.144l143.7-6.609C316.152,209.5,317.183,210.451,316.969,211.518Z" transform="translate(-123.591 -78.095)" fill="#fff"/>
              <g id="Grupo_1101645" data-name="Grupo 1101645" transform="translate(45.537 131.463)" clip-path="url(#clip-path-5)">
                <path id="Trazado_912226" data-name="Trazado 912226" d="M315.732,218.85l-9.811,49.781a3.982,3.982,0,0,1-3.889,2.878l-112.381,5.161a3.982,3.982,0,0,1-4.14-2.506L170,221.533Z" transform="translate(-169.19 -210.224)" fill="#8f61c2" opacity="0.4"/>
              </g>
              <path id="Trazado_912228" data-name="Trazado 912228" d="M316.969,211.518l-1.3,6.665-9.811,49.781a3.982,3.982,0,0,1-3.889,2.878L189.588,276a3.982,3.982,0,0,1-4.14-2.506l-15.511-52.631-.752-2.553c-.306-1.049.64-2.089,1.959-2.144l143.7-6.609C316.152,209.5,317.183,210.451,316.969,211.518Z" transform="translate(-123.591 -78.095)" fill="none" stroke="#263238" stroke-linecap="round" stroke-linejoin="round" stroke-width="1"/>
              <path id="Trazado_912229" data-name="Trazado 912229" d="M220.682,223.906l-.993-2.042a3.964,3.964,0,0,0-3.4-2l-22.008-1.151a2.042,2.042,0,0,0-2.321,1.662l-.1,2.033-17.562-.928c-1.346-.074-2.4.863-2.2,1.931l11.352,57.819,118.934,6.219L319.7,231.128c.316-1.049-.64-2.089-1.986-2.154Z" transform="translate(-123.802 -78.75)" fill="#bfbfbf" stroke="#263238" stroke-linecap="round" stroke-linejoin="round" stroke-width="1"/>
              <path id="Trazado_912230" data-name="Trazado 912230" d="M320.907,235.561l-2.785,9.171-14.053,45.725a4.047,4.047,0,0,1-4.233,2.469l-114.609-5.987a4.066,4.066,0,0,1-3.954-2.9l-9.7-49.447-1.355-6.915c-.214-1.067.854-2,2.2-1.931l146.5,7.658C320.266,233.482,321.232,234.521,320.907,235.561Z" transform="translate(-123.667 -79.256)" fill="#fff"/>
              <g id="Grupo_1101646" data-name="Grupo 1101646" transform="translate(46.523 146.489)" clip-path="url(#clip-path-6)">
                <path id="Trazado_912231" data-name="Trazado 912231" d="M318.189,245.416l-14.053,45.725a4.047,4.047,0,0,1-4.233,2.469l-114.609-5.987a4.066,4.066,0,0,1-3.954-2.9l-9.7-49.447Z" transform="translate(-170.295 -226.43)" fill="#8f61c2" opacity="0.4"/>
              </g>
              <path id="Trazado_912233" data-name="Trazado 912233" d="M320.907,235.561l-2.785,9.171-14.053,45.725a4.047,4.047,0,0,1-4.233,2.469l-114.609-5.987a4.066,4.066,0,0,1-3.954-2.9l-9.7-49.447-1.355-6.915c-.214-1.067.854-2,2.2-1.931l146.5,7.658C320.266,233.482,321.232,234.521,320.907,235.561Z" transform="translate(-123.667 -79.256)" fill="none" stroke="#263238" stroke-linecap="round" stroke-linejoin="round" stroke-width="1"/>
              <path id="Trazado_912234" data-name="Trazado 912234" d="M218.328,239.962l-1.077-1.986a4.056,4.056,0,0,0-3.555-1.856H191.15a2.061,2.061,0,0,0-2.265,1.773v2.024H170.952c-1.374,0-2.4.984-2.135,2.042l14.629,56.965H304.9l14.629-56.965c.269-1.058-.761-2.042-2.135-2.042Z" transform="translate(-123.565 -80)" fill="#bfbfbf" stroke="#263238" stroke-linecap="round" stroke-linejoin="round" stroke-width="1"/>
              <path id="Trazado_912235" data-name="Trazado 912235" d="M302.525,304.831H185.568c-2.024,0-3.778-1.123-4.177-2.673L167.1,246.622c-.278-1.058.752-2.042,2.135-2.042H318.862c1.383,0,2.413.984,2.135,2.042l-14.258,55.536C306.34,303.708,304.586,304.831,302.525,304.831Z" transform="translate(-123.442 -80.608)" fill="#fff" stroke="#263238" stroke-linecap="round" stroke-linejoin="round" stroke-width="1"/>
              <path id="Trazado_912236" data-name="Trazado 912236" d="M217.714,254.536l-1.142-1.977a4.168,4.168,0,0,0-3.629-1.81H190.016a2.089,2.089,0,0,0-2.311,1.773v2.014H169.428c-1.411,0-2.46.984-2.181,2.042l14.917,56.789H305.952l14.917-56.817c.278-1.058-.77-2.042-2.181-2.042Z" transform="translate(-123.453 -81.05)" fill="#bfbfbf" stroke="#263238" stroke-linecap="round" stroke-linejoin="round" stroke-width="1"/>
              <path id="Trazado_912237" data-name="Trazado 912237" d="M303.58,319.355h-119.3c-2.061,0-3.843-1.123-4.251-2.673l-14.545-55.36c-.269-1.058.78-2.042,2.181-2.042H320.195c1.4,0,2.451.984,2.181,2.042l-14.545,55.36C307.422,318.269,305.64,319.355,303.58,319.355Z" transform="translate(-123.327 -81.663)" fill="#fff" stroke="#263238" stroke-linecap="round" stroke-linejoin="round" stroke-width="1"/>
              <path id="Trazado_912238" data-name="Trazado 912238" d="M324.559,384.918H156.791L120.07,280.78H361.28Z" transform="translate(-120.07 -83.206)" fill="#8f61c2"/>
              <g id="Grupo_1101647" data-name="Grupo 1101647" transform="translate(0 197.574)" clip-path="url(#clip-path-7)">
                <path id="Trazado_912239" data-name="Trazado 912239" d="M324.559,384.918H156.791L120.07,280.78H361.28Z" transform="translate(-120.07 -280.78)" fill="rgba(0,0,0,0.7)" opacity="0.3"/>
              </g>
              <path id="Trazado_912241" data-name="Trazado 912241" d="M324.559,384.918H156.791L120.07,280.78H361.28Z" transform="translate(-120.07 -83.206)" fill="none" stroke="#263238" stroke-linecap="round" stroke-linejoin="round" stroke-width="1"/>
              <path id="Trazado_912242" data-name="Trazado 912242" d="M358.087,266.01H123.263l-3.193,13.71H361.28Z" transform="translate(-120.07 -82.146)" fill="#8f61c2" stroke="#263238" stroke-linecap="round" stroke-linejoin="round" stroke-width="1"/>
              <path id="Trazado_912243" data-name="Trazado 912243" d="M187.088,332.18l-2.348,22.231H305.893l-2.348-22.231H298.2l1.522,15.863H190.913l1.522-15.863Z" transform="translate(-124.711 -86.895)" fill="#bfbfbf" stroke="#263238" stroke-linecap="round" stroke-linejoin="round" stroke-width="1"/>
              <path id="Trazado_912244" data-name="Trazado 912244" d="M304.983,361.235H185.65l-.91-5.105H305.893Z" transform="translate(-124.711 -88.614)" fill="#757575" stroke="#263238" stroke-linecap="round" stroke-linejoin="round" stroke-width="1"/>
              <path id="Trazado_912245" data-name="Trazado 912245" d="M306.913,332.18l-.743,5.894.743,9.969h1.522Z" transform="translate(-133.426 -86.895)" fill="#757575" stroke="#263238" stroke-linecap="round" stroke-linejoin="round" stroke-width="1"/>
              <path id="Trazado_912246" data-name="Trazado 912246" d="M192.912,332.18l.752,5.894-.752,9.969H191.39Z" transform="translate(-125.189 -86.895)" fill="#757575" stroke="#263238" stroke-linecap="round" stroke-linejoin="round" stroke-width="1"/>
              <path id="Trazado_912247" data-name="Trazado 912247" d="M285.735,318.7H207.652L203.93,299.84h85.527Z" transform="translate(-126.089 -84.574)" fill="#fff" stroke="#263238" stroke-linecap="round" stroke-linejoin="round" stroke-width="1"/>
              <path id="Trazado_912248" data-name="Trazado 912248" d="M232.091,312.322h0l.52-7.992h2.376l.7,11.092h-1.532l-.548-7.834h0l-.529,7.834h-1.541l-1.856-7.723h0l.7,7.723h-1.457L227.84,304.33h2.376Z" transform="translate(-127.805 -84.896)" fill="#263238"/>
              <path id="Trazado_912249" data-name="Trazado 912249" d="M238.8,311.877l-2.534-7.547h1.791l1.522,5.2h0l1.049-5.2h1.634l-1.856,7.547.149,3.546h-1.624Z" transform="translate(-128.41 -84.896)" fill="#263238"/>
              <path id="Trazado_912250" data-name="Trazado 912250" d="M247.862,309.407h2.163v1.578H247.89v4.437h-1.624l-.186-11.092h4.567v1.662h-2.785Z" transform="translate(-129.114 -84.896)" fill="#263238"/>
              <path id="Trazado_912251" data-name="Trazado 912251" d="M251.913,304.33h1.708l-.176,11.092H251.82Z" transform="translate(-129.526 -84.896)" fill="#263238"/>
              <path id="Trazado_912252" data-name="Trazado 912252" d="M255.094,304.33h1.754l-.288,9.579h2.683l-.065,1.513H254.89Z" transform="translate(-129.746 -84.896)" fill="#263238"/>
              <path id="Trazado_912253" data-name="Trazado 912253" d="M262.2,309.148h2.293l-.1,1.587H262.1l-.176,3.175h2.785l-.1,1.513H260.19l.52-11.092h4.641l-.121,1.662H262.3Z" transform="translate(-130.126 -84.896)" fill="#263238"/>
              <path id="Trazado_912254" data-name="Trazado 912254" d="M269.205,304.19c1.671,0,2.423,1.058,2.246,2.905v.353h-1.6l.046-.473c.074-.817-.214-1.132-.752-1.132s-.873.316-.928,1.132.214,1.439,1.225,2.451c1.272,1.281,1.624,2.191,1.5,3.425-.167,1.717-1.086,2.683-2.673,2.683s-2.348-.928-2.228-2.683l.056-.659h1.559l-.065.77c-.065.77.241,1.04.761,1.04s.873-.269.928-1.04-.2-1.374-1.207-2.367c-1.29-1.281-1.671-2.209-1.569-3.5C266.606,305.248,267.544,304.19,269.205,304.19Z" transform="translate(-130.546 -84.886)" fill="#263238"/>
            </g>
            <g id="freepik--right-hand--inject-13" transform="translate(193.144 103.098)">
              <path id="Trazado_912255" data-name="Trazado 912255" d="M252.1,122.976l-.761-2.181a3.648,3.648,0,0,0-3.026-2.283l-20.644-2.664a1.977,1.977,0,0,0-2.311,1.559l-.269,2.089-16.448-2.116a1.856,1.856,0,0,0-2.237,1.856l5.857,60.465,111.388,14.36,21-57a1.856,1.856,0,0,0-1.689-2.358Z" transform="translate(-204.515 -108.544)" fill="#fff"/>
              <g id="Grupo_1101648" data-name="Grupo 1101648" transform="translate(1.884 7.268)" clip-path="url(#clip-path-8)">
                <path id="Trazado_912256" data-name="Trazado 912256" d="M252.1,122.976l-.761-2.181a3.648,3.648,0,0,0-3.026-2.283l-20.644-2.664a1.977,1.977,0,0,0-2.311,1.559l-.269,2.089-16.448-2.116a1.856,1.856,0,0,0-2.237,1.856l5.857,60.465,111.388,14.36,21-57a1.856,1.856,0,0,0-1.689-2.358Z" transform="translate(-206.4 -115.812)" fill="#8f61c2" opacity="0.4"/>
              </g>
              <path id="Trazado_912258" data-name="Trazado 912258" d="M252.1,122.976l-.761-2.181a3.648,3.648,0,0,0-3.026-2.283l-20.644-2.664a1.977,1.977,0,0,0-2.311,1.559l-.269,2.089-16.448-2.116a1.856,1.856,0,0,0-2.237,1.856l5.857,60.465,111.388,14.36,21-57a1.856,1.856,0,0,0-1.689-2.358Z" transform="translate(-204.515 -108.544)" fill="none" stroke="#263238" stroke-linecap="round" stroke-linejoin="round" stroke-width="1"/>
              <path id="Trazado_912259" data-name="Trazado 912259" d="M345.563,140.837l-19.01,51.619-1.467,3.973a3.852,3.852,0,0,1-4.186,2.265L213.55,184.844a3.852,3.852,0,0,1-3.472-3.258l-5.709-58.943a1.856,1.856,0,0,1,2.237-1.856l91.356,11.779,45.91,5.913a1.856,1.856,0,0,1,1.689,2.358Z" transform="translate(-204.37 -108.898)" fill="#fff"/>
              <g id="Grupo_1101649" data-name="Grupo 1101649" transform="translate(0 11.85)" clip-path="url(#clip-path-9)">
                <path id="Trazado_912260" data-name="Trazado 912260" d="M351.415,141.752,332.4,193.371c-13.469-3.184-13.979-11.575-16.235-15.919-2.488-4.79-18.258-7.333-22.667-8.1s-7.092-5.235-7.092-5.235c-3.973-11.139,16.764-20.885,16.764-20.885-.408-1.532.195-6.553.631-9.728l45.91,5.913a1.856,1.856,0,0,1,1.7,2.339Z" transform="translate(-210.221 -121.663)" fill="rgba(0,0,0,0.7)" opacity="0.3"/>
              </g>
              <path id="Trazado_912262" data-name="Trazado 912262" d="M345.563,140.837l-19.01,51.619-1.467,3.973a3.852,3.852,0,0,1-4.186,2.265L213.55,184.844a3.852,3.852,0,0,1-3.472-3.258l-5.709-58.943a1.856,1.856,0,0,1,2.237-1.856l91.356,11.779,45.91,5.913a1.856,1.856,0,0,1,1.689,2.358Z" transform="translate(-204.37 -108.898)" fill="none" stroke="#263238" stroke-linecap="round" stroke-linejoin="round" stroke-width="1"/>
              <path id="Trazado_912263" data-name="Trazado 912263" d="M226.12,139.9l1.467,36.479,13.218,1.708,1.559-36.349Z" transform="translate(-205.931 -110.272)" fill="#8f61c2" stroke="#263238" stroke-linecap="round" stroke-linejoin="round" stroke-width="1"/>
              <path id="Trazado_912264" data-name="Trazado 912264" d="M234.553,174.11a4.734,4.734,0,0,0-.641-3.815,14.154,14.154,0,0,0-2.683-2.943A13.182,13.182,0,0,0,236.215,169c0-1.9-1.856-3.221-3.444-4.223a2.618,2.618,0,0,1,2.246.167,1.856,1.856,0,0,0-.659-1.569c.2.176.52-.1.511-.362a1.662,1.662,0,0,0-.325-.715,3.555,3.555,0,0,1-.288-1.791c0-2.181.065-4.372.093-6.553a1.04,1.04,0,0,0,.761.845c0-.863-.1-1.727-.186-2.59-.2-2.181-.408-4.372-.622-6.553" transform="translate(-206.297 -110.686)" fill="none" stroke="#263238" stroke-linecap="round" stroke-linejoin="round" stroke-width="1"/>
              <path id="Trazado_912265" data-name="Trazado 912265" d="M448.47,256.218s-74.908-67.018-79.679-71.242-8.261-4.038-10.832-6.609-3.861-4.4-14.323-4.223-24.422-5.5-27.541-7.528-7.528-.548-10.47-1.689-10.461-.139-15.056,0-4.957-4.548-3.119-9.876,15.78-8.623,17.636-7.528,9.18-2.014,9.18-2.014c-1.1-3.861-.733-13.227-.733-13.227s-7.714-3.3-10.647-4.4a18.75,18.75,0,0,0-6.98-.733s.928-4.214,2.386-5.783,8.447-3.035,15.242-7.806,11.018-5.876,12.067-5.514,8.633,2.571,10.656,2.571,4.957-1.856,7.89-1.281,8.261,5.142,10.647,5.69,3.119,1.049,6.247,1.049c1.374,0,6.98,4.093,6.98,4.093a28.775,28.775,0,0,1,6.795,2.2c3.481,1.652,7.157,9.551,8.809,12.123s1.856,8.809,1.856,8.809,4.409,2.386,6.061,5.69,62.5,35.987,62.5,35.987S463.628,222.561,448.47,256.218Z" transform="translate(-210.258 -107.982)" fill="#fff"/>
              <path id="Trazado_912266" data-name="Trazado 912266" d="M395.137,208.48c-13.422-12.011-24.561-21.962-26.306-23.5-4.78-4.223-8.261-4.038-10.832-6.609s-3.861-4.4-14.323-4.223-24.422-5.5-27.541-7.528-7.528-.548-10.47-1.689-10.461-.139-15.056,0-4.957-4.548-3.119-9.876,15.78-8.623,17.636-7.528,9.18-2.014,9.18-2.014c-1.1-3.861-.733-13.227-.733-13.227s-7.714-3.3-10.647-4.4a18.75,18.75,0,0,0-6.98-.733s.928-4.214,2.386-5.783,8.447-3.035,15.242-7.806,11.018-5.876,12.067-5.514,8.633,2.571,10.656,2.571c1.532,0,3.6-1.058,5.8-1.327-1.782.993-3.017,2.887-2.683,3.9.529,1.6,2.024,5.662,2.107,5.922-.4-.39-10.025-9.895-16.244-9.4-5.374.418-10.832,9.468-9.913,16.114s-1.309,6.646-.1,11.6,2.3,11.937.464,14.694-5.5-2.144-5.5-2.144a8.948,8.948,0,0,0-4.641,7.649c0,5.328,5.569,5.69,8.855,6.247s15.409,7.194,23.688,7.547l8.28.343s-4.78-6.5-2.785-6.832,8.076.26,12.067,6.5,7.055,7.621,14.453,10.684C374.512,183.863,386.04,196.311,395.137,208.48Z" transform="translate(-210.261 -107.982)" fill="#8f61c2" opacity="0.4"/>
              <path id="Trazado_912267" data-name="Trazado 912267" d="M436.942,173.351c-1.123-.529-37.129-17.5-38.939-20.031s-4.038-3.156-6.061-5.709-8.809-4.2-9.728-7.7-2.024-14.081-3.713-15.39a30.753,30.753,0,0,0-4.4-2.692l2.729,6.8s-6.219-8.809-7.7-9.05,1.6,6.4,1.327,6.2-7.008-6.5-12.652-11.269a8.725,8.725,0,0,0,2.144.928c2.395.548,3.119,1.049,6.247,1.049,1.374,0,6.98,4.093,6.98,4.093a28.776,28.776,0,0,1,6.795,2.2c3.481,1.652,7.157,9.551,8.809,12.123s1.856,8.809,1.856,8.809,4.409,2.386,6.061,5.69C397.7,151.417,419.407,163.679,436.942,173.351Z" transform="translate(-215.382 -108.451)" fill="#8f61c2" opacity="0.4"/>
              <path id="Trazado_912268" data-name="Trazado 912268" d="M443.09,177.91Z" transform="translate(-221.503 -113)" fill="#8f61c2" opacity="0.4"/>
              <path id="Trazado_912269" data-name="Trazado 912269" d="M448.47,256.218s-74.908-67.018-79.679-71.242-8.261-4.038-10.832-6.609-3.861-4.4-14.323-4.223-24.422-5.5-27.541-7.528-7.528-.548-10.47-1.689-10.461-.139-15.056,0-4.957-4.548-3.119-9.876,15.78-8.623,17.636-7.528,9.18-2.014,9.18-2.014c-1.1-3.861-.733-13.227-.733-13.227s-7.714-3.3-10.647-4.4a18.75,18.75,0,0,0-6.98-.733s.928-4.214,2.386-5.783,8.447-3.035,15.242-7.806,11.018-5.876,12.067-5.514,8.633,2.571,10.656,2.571,4.957-1.856,7.89-1.281,8.261,5.142,10.647,5.69,3.119,1.049,6.247,1.049c1.374,0,6.98,4.093,6.98,4.093a28.775,28.775,0,0,1,6.795,2.2c3.481,1.652,7.157,9.551,8.809,12.123s1.856,8.809,1.856,8.809,4.409,2.386,6.061,5.69,62.5,35.987,62.5,35.987" transform="translate(-210.258 -107.982)" fill="none" stroke="#263238" stroke-linecap="round" stroke-linejoin="round" stroke-width="1"/>
              <path id="Trazado_912270" data-name="Trazado 912270" d="M315.66,133.524s.854-7.222,0-8.224" transform="translate(-212.357 -109.225)" fill="none" stroke="#263238" stroke-linecap="round" stroke-linejoin="round" stroke-width="1"/>
              <path id="Trazado_912271" data-name="Trazado 912271" d="M340.05,115.11s12.494,10.573,13.469,11.222" transform="translate(-214.107 -108.493)" fill="none" stroke="#263238" stroke-linecap="round" stroke-linejoin="round" stroke-width="1"/>
              <path id="Trazado_912272" data-name="Trazado 912272" d="M352.69,111.28c1.717,1.067,15.566,13.348,20.1,16.16" transform="translate(-215.015 -108.218)" fill="none" stroke="#263238" stroke-linecap="round" stroke-linejoin="round" stroke-width="1"/>
              <path id="Trazado_912273" data-name="Trazado 912273" d="M392.793,145.7c-1.346-.789-4.9-2.506-5.263-3.852" transform="translate(-217.515 -110.412)" fill="none" stroke="#263238" stroke-linecap="round" stroke-linejoin="round" stroke-width="1"/>
              <path id="Trazado_912274" data-name="Trazado 912274" d="M316.45,148.41s.733,3,0,4.465" transform="translate(-212.414 -110.883)" fill="none" stroke="#263238" stroke-linecap="round" stroke-linejoin="round" stroke-width="1"/>
              <path id="Trazado_912275" data-name="Trazado 912275" d="M304.552,158.63a7.31,7.31,0,0,0,2.33,7.955" transform="translate(-211.534 -111.617)" fill="none" stroke="#263238" stroke-linecap="round" stroke-linejoin="round" stroke-width="1"/>
              <path id="Trazado_912276" data-name="Trazado 912276" d="M322.331,109.84a9.329,9.329,0,0,0-2.451,4.892" transform="translate(-212.66 -108.115)" fill="none" stroke="#263238" stroke-linecap="round" stroke-linejoin="round" stroke-width="1"/>
              <path id="Trazado_912277" data-name="Trazado 912277" d="M302,125.3a8.354,8.354,0,0,0,4.771,4.892" transform="translate(-211.376 -109.225)" fill="none" stroke="#263238" stroke-linecap="round" stroke-linejoin="round" stroke-width="1"/>
              <path id="Trazado_912278" data-name="Trazado 912278" d="M360.543,180.849A90.79,90.79,0,0,0,352.69,171" transform="translate(-215.015 -112.505)" fill="none" stroke="#263238" stroke-linecap="round" stroke-linejoin="round" stroke-width="1"/>
            </g>
            <g id="freepik--left-hand--inject-13" transform="translate(81.868 310.737)">
              <path id="Trazado_912279" data-name="Trazado 912279" d="M84.49,437.154s59.964-39.413,63.63-44.5a39.561,39.561,0,0,1,6.609-7.426s1.717-14.694,6.126-22.278,6.117-13.227,8.076-17.144,11.259-6.85,13.923-8.354,7.352-4.409,10.043-4.409a15.056,15.056,0,0,1,5.876,1.717s9.06-4.641,13.218-1.717c0,0,10.285.492,12.726.241s6.126,1.476,6.126,1.476,6.117-4.4,10.275-2.692,6.145,2.441,6.256,4.892-1.03,10.767-1.03,10.767H244.3s-6.85,8.92-7.584,10.7-4.641,11.575-4.641,11.575,5.133-3.917,8.354-6.85,8.818-8.568,14.694-10.034,10.034,1.81,10.034,5.309c0,0-6.85,5.458-8.354,7.175s-4.121,6.117-7.073,9.282-9.756,16.495-15.678,22.853-31.56,20.068-37.463,22.027c0,0-35.737,24.969-51.405,46.022C145.187,465.79,102.6,466.041,84.49,437.154Z" transform="translate(-84.49 -331.676)" fill="#fff"/>
              <path id="Trazado_912280" data-name="Trazado 912280" d="M206.291,420.735c.511.52,2.6.835,5.569.928a89.887,89.887,0,0,1-9.709,4.493s-23.373,16.328-40.6,33.713c5.931-9.44,17.321-21.219,21.553-23.67,5.894-3.434,17.219-14.518,17.219-14.518S204.592,419.018,206.291,420.735Z" transform="translate(-90.021 -338.026)" fill="#8f61c2" opacity="0.4"/>
              <path id="Trazado_912281" data-name="Trazado 912281" d="M241.051,363.221a70.8,70.8,0,0,1,8.039-6.8,41.112,41.112,0,0,0-7.277,11.213c-1.132,6.154-11.751,18.843-11.751,18.843,3.425-11.009.483-13.218,1.448-16.4s1.587-10.99,1.587-10.99,1.856-3.2,3.815-3.936,7.1-13.71,8.057-15.464-6.34-4.641-8.3-4.855-2.692,3.175-6.609,4.855-8.837,4.762-10.647,6.563-4.957,9.765-5.161,10.257c.139-.557,2.358-9.5,2.933-11.278.483-1.485,5.189-4.223,6.934-5.2-2.9,1.346-4.52-1.207-6.934-3.527-2.59-2.488-6.451-3.277-10.675-1.986s-7.055,4.474-7.073,4.233-6.312-1.346-8.354-.743-6.758,2.738-6.758,2.738-4.288-2.469-11.334,4.483c-2.942,2.905-12.735,25.062-11.269,22.407s7.862-10.582,8.261-11.074c-.427,1.04-13.413,30.186-16.068,32.043s-3.425,8.428-13,13.821c-9.078,5.115-44.091,27.123-47.563,29.3,16.606-11.037,52.575-35.161,55.36-39.069a39.561,39.561,0,0,1,6.609-7.426s1.717-14.694,6.126-22.277,6.117-13.227,8.076-17.144,11.259-6.85,13.923-8.354,7.352-4.409,10.043-4.409a15.055,15.055,0,0,1,5.876,1.717s9.06-4.641,13.218-1.717c0,0,10.285.492,12.726.241s6.126,1.476,6.126,1.476,6.117-4.4,10.275-2.692,6.145,2.441,6.256,4.892-1.03,10.767-1.03,10.767H244.9s-6.85,8.92-7.584,10.7-4.641,11.575-4.641,11.575S237.83,366.154,241.051,363.221Z" transform="translate(-85.127 -331.676)" fill="#8f61c2" opacity="0.4"/>
              <path id="Trazado_912282" data-name="Trazado 912282" d="M278.177,360.541s-6.85,5.458-8.354,7.175c-.882,1.03-2.191,3.035-3.713,5.161a40.733,40.733,0,0,0,1.569-7.612,12.614,12.614,0,0,1,5.876-4.641,11.139,11.139,0,0,1,4.641-.353A1.405,1.405,0,0,1,278.177,360.541Z" transform="translate(-97.525 -333.721)" fill="#8f61c2" opacity="0.4"/>
              <path id="Trazado_912283" data-name="Trazado 912283" d="M84.49,437.154s59.964-39.413,63.63-44.5a39.561,39.561,0,0,1,6.609-7.426s1.717-14.694,6.126-22.278,6.117-13.227,8.076-17.144,11.259-6.85,13.923-8.354,7.352-4.409,10.043-4.409a15.056,15.056,0,0,1,5.876,1.717s9.06-4.641,13.218-1.717c0,0,10.285.492,12.726.241s6.126,1.476,6.126,1.476,6.117-4.4,10.275-2.692,6.145,2.441,6.256,4.892-1.03,10.767-1.03,10.767H244.3s-6.85,8.92-7.584,10.7-4.641,11.575-4.641,11.575,5.133-3.917,8.354-6.85,8.818-8.568,14.694-10.034,10.034,1.81,10.034,5.309c0,0-6.85,5.458-8.354,7.175s-4.121,6.117-7.073,9.282-9.756,16.495-15.678,22.853-31.56,20.068-37.463,22.027c0,0-35.737,24.969-51.405,46.022" transform="translate(-84.49 -331.676)" fill="none" stroke="#263238" stroke-linecap="round" stroke-linejoin="round" stroke-width="1"/>
              <path id="Trazado_912284" data-name="Trazado 912284" d="M243.4,373s1.467,7.352-1.476,13.923" transform="translate(-95.789 -334.642)" fill="none" stroke="#263238" stroke-linecap="round" stroke-linejoin="round" stroke-width="1"/>
              <path id="Trazado_912285" data-name="Trazado 912285" d="M233.22,340.7a30.569,30.569,0,0,0,8.354-5.625" transform="translate(-95.164 -331.919)" fill="none" stroke="#263238" stroke-linecap="round" stroke-linejoin="round" stroke-width="1"/>
              <path id="Trazado_912286" data-name="Trazado 912286" d="M256.69,348.6a17.71,17.71,0,0,0,1.6-5.133" transform="translate(-96.849 -332.522)" fill="none" stroke="#263238" stroke-linecap="round" stroke-linejoin="round" stroke-width="1"/>
              <path id="Trazado_912287" data-name="Trazado 912287" d="M221.246,333.22A12.661,12.661,0,0,0,213.04,336" transform="translate(-93.716 -331.786)" fill="none" stroke="#263238" stroke-linecap="round" stroke-linejoin="round" stroke-width="1"/>
              <path id="Trazado_912288" data-name="Trazado 912288" d="M206.352,335.07s-7.342,3.425-9.913,3.425S189.7,341.92,189.7,342.9" transform="translate(-92.041 -331.919)" fill="none" stroke="#263238" stroke-linecap="round" stroke-linejoin="round" stroke-width="1"/>
              <path id="Trazado_912289" data-name="Trazado 912289" d="M160.16,388.576a50.792,50.792,0,0,0,5.272-10.656" transform="translate(-89.921 -334.995)" fill="none" stroke="#263238" stroke-linecap="round" stroke-linejoin="round" stroke-width="1"/>
              <path id="Trazado_912290" data-name="Trazado 912290" d="M233.757,343.51s-4.641,1.216-6.238,5.133-8.939,17.506-8.939,17.506" transform="translate(-94.114 -332.525)" fill="none" stroke="#263238" stroke-linecap="round" stroke-linejoin="round" stroke-width="1"/>
              <path id="Trazado_912291" data-name="Trazado 912291" d="M208.822,341.13c-.984,2.33-12,22.769-12,22.769" transform="translate(-92.552 -332.354)" fill="none" stroke="#263238" stroke-linecap="round" stroke-linejoin="round" stroke-width="1"/>
            </g>
          </g>
        </g>
      </g>
    </g>
  </g>
</svg>
