<svg xmlns="http://www.w3.org/2000/svg" xmlns:xlink="http://www.w3.org/1999/xlink" width="85" height="76" viewBox="0 0 85 76">
  <defs>
    <clipPath id="clip-path">
      <rect id="Rect치ngulo_403092" data-name="Rect치ngulo 403092" width="67" height="67" transform="translate(680.051 2919)" fill="#fff" stroke="#707070" stroke-width="1"/>
    </clipPath>
  </defs>
  <g id="Grupo_1101697" data-name="Grupo 1101697" transform="translate(-671.051 -2919)">
    <g id="Grupo_1101696" data-name="Grupo 1101696">
      <rect id="Rect치ngulo_403093" data-name="Rect치ngulo 403093" width="85" height="50" rx="10" transform="translate(671.051 2945)" fill="#8f61c2"/>
      <g id="Enmascarar_grupo_1098706" data-name="Enmascarar grupo 1098706" clip-path="url(#clip-path)">
        <g id="documentos_2_" data-name="documentos (2)" transform="translate(680.051 2919)">
          <g id="Grupo_1101653" data-name="Grupo 1101653">
            <path id="Trazado_912332" data-name="Trazado 912332" d="M21.984,12.1H61.373a.654.654,0,0,1,.654.654V65.364a.654.654,0,0,1-.654.654H21.984a.654.654,0,0,1-.654-.654V12.759A.654.654,0,0,1,21.984,12.1Z" fill="#f5f5f5"/>
            <path id="Trazado_912333" data-name="Trazado 912333" d="M59.083,12.1V62.42a.655.655,0,0,1-.654.654H21.33V12.759a.655.655,0,0,1,.654-.654Z" fill="#e6e6e6"/>
            <path id="Trazado_912334" data-name="Trazado 912334" d="M55.812,6.543H16.423a.654.654,0,0,0-.654.654V59.8a.654.654,0,0,0,.654.654H55.812a.654.654,0,0,0,.654-.654V7.2A.654.654,0,0,0,55.812,6.543Z" fill="#f5f5f5"/>
            <path id="Trazado_912335" data-name="Trazado 912335" d="M53.521,6.543V56.858a.655.655,0,0,1-.654.654h-37.1V7.2a.655.655,0,0,1,.654-.654Z" fill="#e6e6e6"/>
            <path id="Trazado_912336" data-name="Trazado 912336" d="M50.9,1.636V54.241a.655.655,0,0,1-.654.654H11.516a6.544,6.544,0,0,1-6.543-6.543v-1.7A.655.655,0,0,1,5.627,46H9.575a.653.653,0,0,0,.632-.653V1.636a.655.655,0,0,1,.654-.654H50.25A.655.655,0,0,1,50.9,1.636Z" fill="#f5f5f5"/>
            <path id="Trazado_912337" data-name="Trazado 912337" d="M26.7,19.956H15.441a.654.654,0,0,1-.654-.654V8.048a.654.654,0,0,1,.654-.654H26.7a.654.654,0,0,1,.654.654V19.3A.654.654,0,0,1,26.7,19.956Z" fill="#faa515"/>
            <g id="Grupo_1101652" data-name="Grupo 1101652">
              <path id="Trazado_912338" data-name="Trazado 912338" d="M46.324,19.236H31.93a.981.981,0,0,1,0-1.963H46.324a.981.981,0,0,1,0,1.963Z" fill="#2b597f"/>
              <path id="Trazado_912339" data-name="Trazado 912339" d="M37.818,28.135H23.293a.981.981,0,0,1,0-1.963H37.818a.981.981,0,0,1,0,1.963Z" fill="#2b597f"/>
              <path id="Trazado_912340" data-name="Trazado 912340" d="M46.324,14.656H31.93a.981.981,0,0,1,0-1.963H46.324a.981.981,0,0,1,0,1.963Z" fill="#2b597f"/>
              <path id="Trazado_912341" data-name="Trazado 912341" d="M46.324,10.076H31.93a.981.981,0,0,1,0-1.963H46.324a.981.981,0,0,1,0,1.963Z" fill="#2b597f"/>
              <path id="Trazado_912342" data-name="Trazado 912342" d="M46.324,39.781H14.787a.981.981,0,0,1,0-1.963H46.324a.981.981,0,0,1,0,1.963Z" fill="#2b597f"/>
              <path id="Trazado_912343" data-name="Trazado 912343" d="M46.324,33.893H29.182a.981.981,0,0,1,0-1.963H46.324a.981.981,0,0,1,0,1.963Z" fill="#2b597f"/>
              <path id="Trazado_912344" data-name="Trazado 912344" d="M24.6,33.893h-9.88a.981.981,0,0,1,0-1.963H24.6a.981.981,0,0,1,0,1.963Z" fill="#2b597f"/>
              <path id="Trazado_912345" data-name="Trazado 912345" d="M44.463,54.9H11.516a6.543,6.543,0,0,1-6.543-6.543v-1.7A.654.654,0,0,1,5.627,46h31.7a.654.654,0,0,1,.654.654v1.7A6.544,6.544,0,0,0,44.463,54.9Z" fill="#2b597f"/>
            </g>
          </g>
          <g id="Grupo_1101654" data-name="Grupo 1101654">
            <path id="Trazado_912346" data-name="Trazado 912346" d="M62.027,11.123h-4.58V6.543a.981.981,0,0,0-.981-.981h-4.58V.981A.981.981,0,0,0,50.9,0h-40.7a.981.981,0,0,0-.981.981V45.016H4.973A.981.981,0,0,0,3.991,46v2.355a7.533,7.533,0,0,0,7.524,7.524h3.271v4.58a.981.981,0,0,0,.981.981h4.58v4.58A.981.981,0,0,0,21.33,67H41.024a.981.981,0,0,0,0-1.963H22.312v-3.6H56.466a.981.981,0,0,0,.981-.981V45.016a.981.981,0,0,0-1.963,0v14.46H16.75v-3.6H50.9a.981.981,0,0,0,.981-.981V7.524h3.6V40.566a.981.981,0,0,0,1.963,0V13.086h3.6V65.037H45.474a.981.981,0,0,0,0,1.963H62.027a.981.981,0,0,0,.981-.981V12.1A.981.981,0,0,0,62.027,11.123Zm-12.1,42.791H44.492a5.568,5.568,0,0,1-5.562-5.562V46a.981.981,0,0,0-.981-.981h-6.8a.981.981,0,0,0,0,1.963h5.823v1.374a7.507,7.507,0,0,0,2.462,5.562H11.516a5.568,5.568,0,0,1-5.562-5.562V46.979h20.61a.981.981,0,0,0,0-1.963H11.188V1.963H49.923Z"/>
            <path id="Trazado_912347" data-name="Trazado 912347" d="M14.787,20.938H27.35a.981.981,0,0,0,.981-.981V7.394a.981.981,0,0,0-.981-.981H14.787a.981.981,0,0,0-.981.981V19.956A.981.981,0,0,0,14.787,20.938Zm.981-12.562h10.6v10.6h-10.6Z"/>
            <path id="Trazado_912348" data-name="Trazado 912348" d="M46.324,17.273H31.93a.981.981,0,0,0,0,1.963H46.324a.981.981,0,0,0,0-1.963Z"/>
            <path id="Trazado_912349" data-name="Trazado 912349" d="M22.312,27.153a.981.981,0,0,0,.981.981H37.818a.981.981,0,0,0,0-1.963H23.293A.981.981,0,0,0,22.312,27.153Z"/>
            <path id="Trazado_912350" data-name="Trazado 912350" d="M46.324,12.693H31.93a.981.981,0,0,0,0,1.963H46.324a.981.981,0,0,0,0-1.963Z"/>
            <path id="Trazado_912351" data-name="Trazado 912351" d="M46.324,8.113H31.93a.981.981,0,0,0,0,1.963H46.324a.981.981,0,0,0,0-1.963Z"/>
            <path id="Trazado_912352" data-name="Trazado 912352" d="M46.324,37.818H14.787a.981.981,0,0,0,0,1.963H46.324a.981.981,0,0,0,0-1.963Z"/>
            <path id="Trazado_912353" data-name="Trazado 912353" d="M46.324,31.93H29.182a.981.981,0,0,0,0,1.963H46.324a.981.981,0,0,0,0-1.963Z"/>
            <path id="Trazado_912354" data-name="Trazado 912354" d="M14.722,33.893H24.6a.981.981,0,0,0,0-1.963h-9.88a.981.981,0,0,0,0,1.963Z"/>
          </g>
        </g>
      </g>
    </g>
  </g>
</svg>
