<svg xmlns="http://www.w3.org/2000/svg" xmlns:xlink="http://www.w3.org/1999/xlink" width="295" height="263.033" viewBox="0 0 295 263.033">
  <defs>
    <clipPath id="clip-path">
      <rect id="Rectángulo_402962" data-name="Rectángulo 402962" width="264.797" height="263.033" fill="none"/>
    </clipPath>
    <clipPath id="clip-path-2">
      <path id="Trazado_912066" data-name="Trazado 912066" d="M426.317,608.161a3.108,3.108,0,0,1-.5,2.813,10.88,10.88,0,0,1-2.04,2.366,8.026,8.026,0,0,0,.993,1.493,3.271,3.271,0,0,1,1.646-.288c.17.23.225.2.185.51a3.475,3.475,0,0,1-.25.862c-.057.33-.182.6-.025.9,1.009,1.934,2.045,5.464,1.384,7.652a4.191,4.191,0,0,1-.176.462q2.012.364,4.04.623c-.031-.714-1.376-4.007-1.673-5.1-1.191-4.364-1.939-9.006-3.436-13.256Z" transform="translate(-423.78 -607.206)" fill="none"/>
    </clipPath>
    <linearGradient id="linear-gradient" x1="-4.517" y1="14.169" x2="-4.506" y2="14.169" gradientUnits="objectBoundingBox">
      <stop offset="0" stop-color="#f3b200"/>
      <stop offset="1" stop-color="#f49c0d"/>
    </linearGradient>
    <clipPath id="clip-path-4">
      <path id="Trazado_912072" data-name="Trazado 912072" d="M391.914,611.672a21.174,21.174,0,0,0,7.433-4.751,4.468,4.468,0,0,1-.641-1.305,28.841,28.841,0,0,1-6.792,6.056" transform="translate(-391.914 -605.616)" fill="none"/>
    </clipPath>
    <linearGradient id="linear-gradient-2" x1="-10.433" y1="15.132" x2="-10.406" y2="15.132" gradientUnits="objectBoundingBox">
      <stop offset="0" stop-color="#fa793e"/>
      <stop offset="1" stop-color="#f9685b"/>
    </linearGradient>
  </defs>
  <g id="Grupo_1101719" data-name="Grupo 1101719" transform="translate(-600.025 -488.967)">
    <g id="Grupo_1101718" data-name="Grupo 1101718">
      <g id="Grupo_1101717" data-name="Grupo 1101717">
        <rect id="Rectángulo_403046" data-name="Rectángulo 403046" width="295" height="163" rx="10" transform="translate(600.025 589)" fill="#8f61c2"/>
        <g id="Grupo_1101613" data-name="Grupo 1101613" transform="translate(432.975 -1918.033)">
          <g id="Grupo_1101510" data-name="Grupo 1101510" transform="translate(182.051 2407)">
            <g id="Grupo_1101501" data-name="Grupo 1101501">
              <g id="Grupo_1101500" data-name="Grupo 1101500" clip-path="url(#clip-path)">
                <path id="Trazado_912002" data-name="Trazado 912002" d="M121.809,755.922l16.311.013q-.049,2.695.025,5.39-5.347.11-10.7.105c-1.865.01-3.792-.08-5.645.08.066-1.854.007-3.732,0-5.588" transform="translate(-95.734 -594.125)" fill="#0eaf9e"/>
                <path id="Trazado_912003" data-name="Trazado 912003" d="M197.958,755.981l17.6.014-.022,5.52c-.014.642,0,1.3-.046,1.937-5.813.1-11.642.019-17.457.027l-.048-2.108q-.074-2.695-.025-5.39" transform="translate(-155.572 -594.171)" fill="#058b7d"/>
                <path id="Trazado_912004" data-name="Trazado 912004" d="M198.148,781.021l10.082,0a64.356,64.356,0,0,1,7.469.148c-.014.642,0,1.3-.046,1.937-5.813.1-11.642.02-17.457.027Z" transform="translate(-155.736 -613.821)" fill="#0a7669"/>
                <path id="Trazado_912005" data-name="Trazado 912005" d="M271.1,568.327c.766,2.5,1.066,5.11,1.93,7.6,3.259,1.855,5.758,2.77,8.988,5.112l.664.479c-1.1,2.176-1.691,5.508-.829,7.857a5.706,5.706,0,0,0,.381.791,2.5,2.5,0,0,1-.431.876,1.169,1.169,0,0,1-1,.36,2.971,2.971,0,0,1-1.976-1.507c-3.263-1.385-7.528-3.226-9.334-6.451-2.128-3.8.424-11.149,1.606-15.115" transform="translate(-211.167 -446.683)" fill="#0eaf9e"/>
                <path id="Trazado_912006" data-name="Trazado 912006" d="M317.027,627.707l.664.479c-1.1,2.176-1.691,5.508-.83,7.857a5.69,5.69,0,0,0,.382.791,2.5,2.5,0,0,1-.431.876,1.169,1.169,0,0,1-1,.36,2.971,2.971,0,0,1-1.976-1.508c-.073-.216-.141-.429-.2-.65-.523-1.987-.732-4.629.412-6.432a4.019,4.019,0,0,1,2.976-1.773" transform="translate(-246.176 -493.353)" fill="#1a3a5e"/>
                <path id="Trazado_912007" data-name="Trazado 912007" d="M198.191,790.914c5.815-.007,11.644.076,17.457-.027.03.234.006.685.213.813.989.612,3.771.17,4.985.186l.011,2.144,0,1.687.018,5.9-13.647.082c-3.006,0-6.09-.15-9.09.016a44.807,44.807,0,0,0,.037-5.75,13.127,13.127,0,0,1,.008-2l-.033-.11-.01-2.849Z" transform="translate(-155.732 -621.606)" fill="#058b7d"/>
                <path id="Trazado_912008" data-name="Trazado 912008" d="M198.195,805.276c7.546.1,15.124.26,22.67.064l0,1.687a52.911,52.911,0,0,1-7.889.211c-4.928,0-9.867-.082-14.793.037a13.125,13.125,0,0,1,.008-2" transform="translate(-155.739 -632.915)" fill="#0a7669"/>
                <path id="Trazado_912009" data-name="Trazado 912009" d="M198.2,790.914c5.815-.007,11.644.076,17.457-.027.03.234.006.685.213.813.989.612,3.771.17,4.985.186l.011,2.144c-7.546.2-15.124.039-22.67-.064l-.033-.11-.01-2.849Z" transform="translate(-155.737 -621.606)" fill="#058b7d"/>
                <path id="Trazado_912010" data-name="Trazado 912010" d="M425.458,1110.344c.02.047.042.093.059.141a4.854,4.854,0,0,1,.187.907c1.4.134,15.848.211,16.365-.095-.406,8.006-.777,16.094-.834,24.107H426.3c-.2-8.335-.92-16.73-.84-25.062" transform="translate(-334.388 -872.687)" fill="#f3ab85"/>
                <path id="Trazado_912011" data-name="Trazado 912011" d="M90.407,781.347c1.853-.16,3.78-.07,5.645-.08q5.348,0,10.7-.106l.048,2.108-.048.094.01,2.849.033.11a13.1,13.1,0,0,0-.008,2,44.8,44.8,0,0,1-.037,5.75l-.077.039-.038,1.535-.068.143q.078,1.5.077,3l-16.751.079a75.226,75.226,0,0,0-8.032.191l.013-15.05,8.551.035.019-2.1Z" transform="translate(-64.336 -613.962)" fill="#0eaf9e"/>
                <path id="Trazado_912012" data-name="Trazado 912012" d="M92.335,840.834c5.534.208,11.61-.388,17.03.076a3.621,3.621,0,0,1,.155,1.784l-10.863,0a59.725,59.725,0,0,1-6.15-.082,3.876,3.876,0,0,1-.173-1.774" transform="translate(-72.558 -660.779)" fill="#058b7d"/>
                <path id="Trazado_912013" data-name="Trazado 912013" d="M121.8,781.347c1.853-.16,3.78-.07,5.645-.08q5.348,0,10.7-.106l.048,2.108-.048.094a11.368,11.368,0,0,0-3.41-.158l-8,.036a27.642,27.642,0,0,1-4.5-.08c-.354-.355-.315-.731-.392-1.218Z" transform="translate(-95.734 -613.962)" fill="#058b7d"/>
                <path id="Trazado_912014" data-name="Trazado 912014" d="M107.437,804.763l.033.11a13.129,13.129,0,0,0-.008,2,44.806,44.806,0,0,1-.037,5.75l-.077.039-.038,1.535-.068.143a4.369,4.369,0,0,1-1.864-.168,4.432,4.432,0,0,1,.051-1.414,4.976,4.976,0,0,1,1.883-.211q.029-2.841.025-5.682c-8.141.171-16.439.109-24.58-.148-.048-.6-.026-1.229-.036-1.835,5.988-.118,12,.016,17.988.019,1.829,0,5.093.308,6.729-.138" transform="translate(-65.015 -632.512)" fill="#058b7d"/>
                <path id="Trazado_912015" data-name="Trazado 912015" d="M821.749,192.327c-.025-2.3-.1-4.65.09-6.948q.064,5.439.015,10.878a31.607,31.607,0,0,0,.187,6.134,5.283,5.283,0,0,0,1.5,2.881c.076.074.153.145.231.217,3.028,1.459,9.734.407,13.269.628l.205-.009.008,12.367c0,1.97.293,4.489-.175,6.387a4.3,4.3,0,0,1-2.277,2.479c-4.672.265-9.458.042-14.142.037l-24.469.037c-1.817,0-3.532.12-4.883-1.323a4.891,4.891,0,0,1-.963-2.9c-.336-3.292-.053-6.888-.061-10.212-.013-6.068-.185-12.188.027-18.249a6.8,6.8,0,0,1,1.109-1.449,3.538,3.538,0,0,1,1.7-.891c2.6-.464,6.54-.161,9.307-.164,6.433-.008,12.891-.11,19.321.095" transform="translate(-621.051 -145.701)" fill="#e0edf2"/>
                <path id="Trazado_912016" data-name="Trazado 912016" d="M820.661,316.411l19.83.036c3.375.009,6.844-.186,10.207.025a3,3,0,0,1,1.434.325,1.151,1.151,0,0,1,.591.92,2.1,2.1,0,0,1-.777,1.674c-2.458.32-31.036.115-31.36-.116a1.337,1.337,0,0,1-.619-1.013,2.579,2.579,0,0,1,.693-1.851" transform="translate(-644.454 -248.657)" fill="#c7d0d4"/>
                <path id="Trazado_912017" data-name="Trazado 912017" d="M847.172,279.335c3.028,1.459,9.733.407,13.269.628l.033,2.334c-4.274.2-38.838.388-39.7.031a1.291,1.291,0,0,1-.776-.863,1.608,1.608,0,0,1,.183-1.193,1.432,1.432,0,0,1,.8-.646c1.8-.507,6.07-.141,8.116-.134l13.252,0a20.989,20.989,0,0,0,4.566-.088c.085-.022.17-.048.256-.073" transform="translate(-644.451 -219.546)" fill="#c7d0d4"/>
                <path id="Trazado_912018" data-name="Trazado 912018" d="M4.538,320.685c3.578-.278,7.335-.041,10.929-.026,10.46.045,21.048.541,31.494.037-.07,10.535.11,21.072,0,31.605a3.325,3.325,0,0,1-1.655,1.755,49.648,49.648,0,0,1-5.977.122l-10.394-.016-16.409.01c-2.241,0-5.587.316-7.735-.226a2.737,2.737,0,0,1-1.6-1.187,5.685,5.685,0,0,1-.6-2.444c-.229-3.5.016-7.118.014-10.628,0-3.019-.4-15.233.136-17.241.253-.942,1-1.317,1.8-1.76" transform="translate(-1.929 -251.94)" fill="#e0edf2"/>
                <path id="Trazado_912019" data-name="Trazado 912019" d="M102.087,332.249l19.786-.006-.007,3.491-19.77.013Z" transform="translate(-80.236 -261.129)" fill="#76c4f4"/>
                <path id="Trazado_912020" data-name="Trazado 912020" d="M402.45,4.707A18.53,18.53,0,0,1,414.7.007a19.241,19.241,0,0,1,16.486,8.219c1.48,2.126,2.591,4.573,4.5,6.366,1.942,1.822,3.582,2.05,6.142,1.966q.025.415.04.83c.127,3.657-.865,5.916-3.366,8.576a9.841,9.841,0,0,0,1.186.249,19.693,19.693,0,0,0,2.246-.468,10.893,10.893,0,0,1-5.53,6.408,22.265,22.265,0,0,0,.647,5.613c.74,2.625,2.083,4.987,3.005,7.538,1.8,4.975,1.719,10.687-2.073,14.726a20.657,20.657,0,0,1-8.69,4.988,12.293,12.293,0,0,1,1.482-2.049,18.979,18.979,0,0,0,2.9-4.907c1.809-4.748.783-9.23-.872-13.818-.3-.824-.488-1.711-.852-2.508-.147-.321-.131-.247-.431-.362.315-3.565.629-7.16,1.107-10.707-2.252-.267-4.493-.443-6.721-.888-7.51-1.5-13.609-5.47-18.9-10.874-5.94,3.736-10.325,11.447-12,18.123a5.249,5.249,0,0,0-3.053-2.891,3.99,3.99,0,0,0-3.122.445,5.04,5.04,0,0,0-2.309,3.3,7.281,7.281,0,0,0,1.056,5.194,12.914,12.914,0,0,0,1.622,1.883q-.2.366-.383.741t-.347.758q-.165.383-.31.774t-.272.788q-.127.4-.234.8t-.2.811q-.088.408-.156.819t-.117.826q-.048.414-.077.83t-.037.833q-.008.417,0,.834t.043.833q.032.416.084.829t.123.825q.071.411.163.818t.2.809c.607,2.168,1.85,4.025,2.553,6.114a21.613,21.613,0,0,1-7.089-4.207c-3.621-3.4-4.907-8.185-2.727-12.782,1.228-2.59,2.943-4.742,3.715-7.563.879-3.214.4-6.634.321-9.92-.173-7.036,1.269-14.54,6.3-19.774A16.229,16.229,0,0,1,402.45,4.707" transform="translate(-298.168 0)" fill="#1a3a5e"/>
                <path id="Trazado_912021" data-name="Trazado 912021" d="M428.847,36.556a1.547,1.547,0,0,1,1.095.72,1.333,1.333,0,0,1-.317.84,21.281,21.281,0,0,1-2.305,2.1,27.143,27.143,0,0,0-3.958,4.479,34.9,34.9,0,0,0-4.19,8.892,1.536,1.536,0,0,1-.482.01c-.246-.151-.357-.147-.456-.436-.6-1.725,1.063-6.389,1.8-8.038,1.537-3.418,5.272-7.247,8.808-8.563" transform="translate(-328.617 -28.732)" fill="#35506d"/>
                <path id="Trazado_912022" data-name="Trazado 912022" d="M420.9,106.446c1.673-6.676,6.057-14.388,12-18.123,5.287,5.4,11.385,9.373,18.9,10.874,2.229.445,4.469.621,6.721.888-.479,3.548-.792,7.142-1.107,10.707.3.115.284.041.431.362.363.8.554,1.684.852,2.508,1.655,4.589,2.681,9.07.872,13.818a18.983,18.983,0,0,1-2.9,4.907,12.289,12.289,0,0,0-1.482,2.049,38.175,38.175,0,0,1-13.248,3.305l-.447-.079c-.455-.488-.407-1.478-.457-2.112q-.187-1.453-.345-2.91a21.17,21.17,0,0,1-12.245-3.168c-.251,1.209-.922,5.92-1.665,6.494a48.884,48.884,0,0,1-10.634-2.542c-.7-2.089-1.945-3.946-2.552-6.114q-.111-.4-.2-.809t-.162-.818q-.072-.411-.123-.825t-.084-.829q-.031-.416-.043-.833t0-.834q.008-.417.037-.833t.077-.83q.048-.414.117-.826t.156-.819q.088-.408.2-.811t.234-.8q.127-.4.272-.788t.31-.774q.164-.383.347-.758t.383-.741a12.911,12.911,0,0,1-1.622-1.883,7.28,7.28,0,0,1-1.056-5.194,5.04,5.04,0,0,1,2.309-3.3,3.989,3.989,0,0,1,3.122-.445,5.25,5.25,0,0,1,3.053,2.891" transform="translate(-324.049 -69.418)" fill="#f3ab85"/>
                <path id="Trazado_912023" data-name="Trazado 912023" d="M582.393,169.574a5.547,5.547,0,0,1,2.385.14c1.285.349,3.007,1.038,3.658,2.268a1.469,1.469,0,0,1,.054,1.371,11.838,11.838,0,0,0-2.7-1.782c-.994-.411-3.107-.2-3.8-.961-.012-.512.128-.618.4-1.036" transform="translate(-457.419 -133.224)" fill="#121c34"/>
                <path id="Trazado_912024" data-name="Trazado 912024" d="M494.657,156.253a7.129,7.129,0,0,1,3.3.4,1.464,1.464,0,0,1,.884.854.913.913,0,0,1-.293.26c-.786.482-2.141.067-2.99-.092-1.474.085-3.075.632-4.519.265l-.07-.159c.77-.931,2.565-1.367,3.685-1.531" transform="translate(-385.885 -122.795)" fill="#121c34"/>
                <path id="Trazado_912025" data-name="Trazado 912025" d="M526.785,249.85a6.7,6.7,0,0,0,4.879,2.03,5.037,5.037,0,0,0,2.86-.984l.092.3a2.1,2.1,0,0,1-.506,1.1,4.981,4.981,0,0,1-6.467-.186,3.107,3.107,0,0,1-.859-2.255" transform="translate(-414.03 -196.372)" fill="#ea5d4a"/>
                <path id="Trazado_912026" data-name="Trazado 912026" d="M584.638,193.1a2.379,2.379,0,0,1,1.65.787,1.83,1.83,0,0,1,.39,1.447,2.721,2.721,0,0,1-1.432,1.963c-.083,0-.166.01-.249.011a1.7,1.7,0,0,1-1.494-.593,1.985,1.985,0,0,1-.31-1.654,2.855,2.855,0,0,1,1.445-1.962" transform="translate(-458.324 -151.772)" fill="#121c34"/>
                <path id="Trazado_912027" data-name="Trazado 912027" d="M507.93,181.663a2.083,2.083,0,0,1,1.76.38,1.926,1.926,0,0,1,.624,1.565,3.071,3.071,0,0,1-1.147,2.255c-.207.011-.41.022-.617.016a1.789,1.789,0,0,1-1.384-.653,2.029,2.029,0,0,1-.439-1.524,2.8,2.8,0,0,1,1.2-2.039" transform="translate(-398.259 -142.754)" fill="#121c34"/>
                <path id="Trazado_912028" data-name="Trazado 912028" d="M550.484,199.616c.771.579,1.134,2.393,1.588,3.294s1.663,2.054,1.752,3.045a1.047,1.047,0,0,1-.267.954c-.626.658-2.081.763-2.945.813a2.624,2.624,0,0,1-1.34-.52,8.235,8.235,0,0,0,2.614-.842,1.324,1.324,0,0,0,.22-.369c.108-.516-1.616-3.473-1.763-4.472a6.107,6.107,0,0,1,.141-1.9" transform="translate(-431.705 -156.89)" fill="#ea5d4a"/>
                <path id="Trazado_912029" data-name="Trazado 912029" d="M423.944,169.51a3.13,3.13,0,0,1,.695.14,3.586,3.586,0,0,1,1.7,1.717,4.411,4.411,0,0,1,.2,3.491,2.252,2.252,0,0,1-1.4,1.342,4.357,4.357,0,0,1-2.416-1.694,3.517,3.517,0,0,1-.611-2.761,3.327,3.327,0,0,1,1.829-2.236" transform="translate(-331.708 -133.228)" fill="#ea5d4a"/>
                <path id="Trazado_912030" data-name="Trazado 912030" d="M520.841,235.668c3.527,1.044,5.987,2.118,9.739,2.1a8.459,8.459,0,0,1-.725,1.978,5.038,5.038,0,0,1-2.861.983,6.7,6.7,0,0,1-4.879-2.03,9.279,9.279,0,0,1-1.274-3.036" transform="translate(-409.36 -185.226)" fill="#fdfdfd"/>
                <path id="Trazado_912031" data-name="Trazado 912031" d="M561.611,193.3c.3.115.284.041.431.362.364.8.554,1.683.852,2.508,1.655,4.589,2.681,9.07.872,13.818a18.967,18.967,0,0,1-2.9,4.908,12.291,12.291,0,0,0-1.482,2.049,38.176,38.176,0,0,1-13.248,3.305l-.446-.079c-.455-.488-.407-1.477-.457-2.112q-.187-1.453-.345-2.91A19.135,19.135,0,0,0,554,211.273c5.786-4.568,6.77-11.08,7.611-17.973" transform="translate(-428.256 -151.926)" fill="#121c34"/>
                <path id="Trazado_912032" data-name="Trazado 912032" d="M417.517,210.071a5.584,5.584,0,0,0,3.738.748,22.837,22.837,0,0,0,9.119,14.033c.158.108.32.208.483.309-.251,1.209-.922,5.92-1.665,6.494a48.882,48.882,0,0,1-10.634-2.542c-.7-2.089-1.945-3.946-2.552-6.114q-.111-.4-.2-.809t-.162-.818q-.072-.411-.123-.825t-.084-.829q-.031-.416-.043-.833t0-.834q.008-.417.037-.833t.077-.83q.049-.414.117-.826t.156-.819q.088-.408.2-.811t.235-.8q.126-.4.272-.788t.31-.774q.164-.383.347-.758t.383-.741" transform="translate(-326.475 -165.108)" fill="#121c34"/>
                <path id="Trazado_912033" data-name="Trazado 912033" d="M118.1,52.547q10.651-.1,21.3-.08l-.031,24.86c0,3.267.376,7.877-.064,11a2.928,2.928,0,0,1-.821,1.6,3.563,3.563,0,0,1-2.3.83,73.271,73.271,0,0,1-8.2.079l-16.82-.05c-4.22-.091-8.463,0-12.685.007a38.23,38.23,0,0,1-6.054-.138,2.48,2.48,0,0,1-1.253-.609c-.845-.754-.822-1.807-.873-2.879-.273-5.732.021-11.569-.022-17.315q-.076-5.281-.087-10.563c0-1.672-.085-3.414.081-5.077a1.551,1.551,0,0,1,.435-1.1,1.765,1.765,0,0,1,1.255-.453c3.239-.293,6.726-.026,9.988-.006q8.076.016,16.151-.111" transform="translate(-70.872 -41.234)" fill="#e0edf2"/>
                <path id="Trazado_912034" data-name="Trazado 912034" d="M104.585,63.153l21.366.124,0,3.722-21.341.01c.049-1.283,0-2.573-.02-3.856" transform="translate(-82.2 -49.636)" fill="#76c4f4"/>
                <path id="Trazado_912035" data-name="Trazado 912035" d="M65.48,841.022l.013,1.869,0,3,.16.017c3.256.313,9.48-.432,12.141.21a2.923,2.923,0,0,1,1.5.958,3.07,3.07,0,0,1,.25.334,3.013,3.013,0,0,1,.443,1.162c.432,2.7.09,5.834.07,8.582-.03,4.131.189,8.479-.224,12.588a8.939,8.939,0,0,1-1.6,1.79l-75.552-.1a6.364,6.364,0,0,1-1.107-.674,2.55,2.55,0,0,1-.842-1.809c-.43-4.021-.159-8.338-.177-12.39-.011-2.338-.315-5.571.06-7.8a3.1,3.1,0,0,1,.722-1.508,2.3,2.3,0,0,1,1.123-.77,19.041,19.041,0,0,1,4.711-.223c3.524-.006,7.18.187,10.687-.147a75.241,75.241,0,0,1,8.032-.191l16.751-.079q0-1.5-.077-3l.068-.143.038-1.535.077-.039c3-.166,6.083-.015,9.09-.016Z" transform="translate(-0.333 -661.01)" fill="#f1b31e"/>
                <path id="Trazado_912036" data-name="Trazado 912036" d="M71.087,913.6a3.06,3.06,0,0,1,1.231,1.822,4.8,4.8,0,0,1-.639,3.672,4.359,4.359,0,0,1-2.613,2.035,4.267,4.267,0,0,1-.435.07c-.088.019-.175.039-.263.056a6.088,6.088,0,0,1-4.559-.963,2.075,2.075,0,0,1-.876-1.491,6.8,6.8,0,0,0,3.774,1.795,6.087,6.087,0,0,0,2.038-.294,4.5,4.5,0,0,0,2.634-2.381,5.258,5.258,0,0,0-.292-4.32" transform="translate(-49.463 -718.057)" fill="#c87b26"/>
                <path id="Trazado_912037" data-name="Trazado 912037" d="M59.082,909a5.261,5.261,0,0,1-1.022-3.694,4.487,4.487,0,0,1,1.736-3.165,4.978,4.978,0,0,1,3.64-.963,5.764,5.764,0,0,1,3.8,2.622,5.259,5.259,0,0,1,.292,4.32,4.5,4.5,0,0,1-2.634,2.38,6.081,6.081,0,0,1-2.038.295A6.8,6.8,0,0,1,59.082,909" transform="translate(-45.612 -708.257)" fill="#fdfdfd"/>
                <path id="Trazado_912038" data-name="Trazado 912038" d="M220.2,841.022l.013,1.869,0,3c-2.538-.235-5.2-.066-7.758-.064l-15.1.016q0-1.5-.077-3l.068-.143.038-1.535.077-.039c3-.166,6.083-.015,9.09-.016Z" transform="translate(-155.057 -661.01)" fill="#058b7d"/>
                <path id="Trazado_912039" data-name="Trazado 912039" d="M220.455,841.022l.013,1.869c-2.4.079-22.155.266-22.866-.2l.038-1.535.077-.039c3-.166,6.083-.015,9.09-.016Z" transform="translate(-155.308 -661.01)" fill="#0a7669"/>
                <path id="Trazado_912040" data-name="Trazado 912040" d="M132.207,885.539c5.019-.218,10.138.012,15.169.018q15.566.05,31.131-.078-.108,8.253-.091,16.507l-46.457-.03c.039-2.23-.123-15.464.248-16.417" transform="translate(-103.713 -695.925)" fill="#fdfdfd"/>
                <path id="Trazado_912041" data-name="Trazado 912041" d="M164.4,920.309l32.189,0c0,.654-.02,1.309-.032,1.963l-32.109.11Z" transform="translate(-129.213 -723.327)" fill="#c7d0d4"/>
                <path id="Trazado_912042" data-name="Trazado 912042" d="M937.714,106.818q.029-5.852-.014-11.7a44.107,44.107,0,0,1,.058-6.224,4.551,4.551,0,0,1,.812-2.269,3.858,3.858,0,0,1,2.156-1.079,55.105,55.105,0,0,1,5.892-.077l10.64-.027,39.206.018c1.7.014,2.967,0,4.225,1.335a4.762,4.762,0,0,1,.857,2.652c.18,1.9.073,3.9.076,5.809l.03,10.635.01,11.113c.009,2.138.158,4.389-.03,6.515a4.666,4.666,0,0,1-1.4,3.263,6.106,6.106,0,0,1-1.159.759c-4.663.139-9.349.036-14.015.03l-31.939-.02-.205.008c-3.535-.221-10.241.831-13.269-.628-.077-.072-.155-.143-.231-.217a5.283,5.283,0,0,1-1.5-2.881,31.62,31.62,0,0,1-.187-6.134q.049-5.439-.015-10.879" transform="translate(-736.927 -67.139)" fill="#76c4f4"/>
                <path id="Trazado_912043" data-name="Trazado 912043" d="M1051.336,151.466c2.141.008,7.686-.333,9.518.071a2.312,2.312,0,0,1,1.627,1.051.962.962,0,0,1-.268.926,3.26,3.26,0,0,1-1.957.778,62.829,62.829,0,0,1-6.7,0l-14.887.023c-1.537,0-10.371.285-11.079-.253a1.424,1.424,0,0,1-.118-.1,1.507,1.507,0,0,1-.106-.113,1.355,1.355,0,0,1-.093-.124,1.415,1.415,0,0,1-.079-.133,1.409,1.409,0,0,1-.114-.288,1.4,1.4,0,0,1-.033-.151,1.423,1.423,0,0,1-.016-.154,1.4,1.4,0,0,1,.428-1.123,1.921,1.921,0,0,1,1.181-.385c2.386-.207,4.965,0,7.372,0Z" transform="translate(-807.205 -118.947)" fill="#6ca6d0"/>
                <path id="Trazado_912044" data-name="Trazado 912044" d="M982.65,200.887l31.866-.03c2.417,0,9.184-.358,11.177.083a1.36,1.36,0,0,1,1,.747,1.829,1.829,0,0,1-.051,1.116,1.273,1.273,0,0,1-.814.845c-6.995.354-14.143.085-21.154.114l-14.064.026c-2.376,0-4.8.108-7.173-.011a2.249,2.249,0,0,1-1.195-.25,1.933,1.933,0,0,1-.3-.223,1.07,1.07,0,0,1-.27-.714,2.4,2.4,0,0,1,.976-1.7" transform="translate(-771.557 -157.759)" fill="#6ca6d0"/>
                <path id="Trazado_912045" data-name="Trazado 912045" d="M372.589,703.737l.139-1.153a1.631,1.631,0,0,1,.762.433c5.954,4.752,23.023,6.358,30.639,5.931.769-.043,4.937-.448,5.1-.03a1.34,1.34,0,0,1,.083.263,7.538,7.538,0,0,1,.017,1.241,49.529,49.529,0,0,0,.032,5.374c1.123,0,2.252.015,3.375-.016q1.432.03,2.864.007l.065,43.125.028,14.193c0,2.524.108,5.132-.058,7.65l-8.358,0-9.451-.014-.677.019c-.144,3.347-.467,6.711-.519,10.058-.517.306-14.96.229-16.365.095a4.87,4.87,0,0,0-.187-.907c-.017-.048-.039-.094-.058-.141l-.38-9.1-4.99.009a150.53,150.53,0,0,0-1.215-16.8c-.733-6.6-1.572-13.145-2.655-19.7-1.333-8.077-3.672-16.421-3.031-24.647.467-6,2.3-10.561,4.838-15.882" transform="translate(-288.953 -552.203)" fill="#1a3a5e"/>
                <path id="Trazado_912046" data-name="Trazado 912046" d="M423.707,1067.808l17.509,0c-.144,3.347-.467,6.711-.519,10.058-.517.306-14.96.229-16.365.095a4.862,4.862,0,0,0-.187-.907c-.017-.048-.039-.095-.059-.142Z" transform="translate(-333.017 -839.253)" fill="#ea7e56"/>
                <path id="Trazado_912047" data-name="Trazado 912047" d="M759.168,440.4l42.315.01,12.636-.016a64.914,64.914,0,0,1,6.662.061,3.654,3.654,0,0,1,2.273,1.015,2.513,2.513,0,0,1,.8,2.192,27.806,27.806,0,0,1-1.168,5.9l-2.084,8.489q-3.107,12.593-6.011,25.234c-.752,3.229-1.713,6.462-2.349,9.71a7.01,7.01,0,0,1-3.707,4.31,11.482,11.482,0,0,1-1.294.485,38,38,0,0,0-4.771.014l-10.861.045-31.766-.02c-5.57,0-11.238.233-16.8-.063l.071-.247a7.472,7.472,0,0,1-.788-4.3,34.047,34.047,0,0,1-3.624-.068l1.636-.108c-.9-1.161-1.968-2.228-2.917-3.358a24.424,24.424,0,0,1,4.494-2.686l2.4-1.279a44.917,44.917,0,0,0,1.1-5.443c.924-3.545,1.623-7.178,2.419-10.755l3.149-13.943c.785-3.638,1.752-9.1,2.936-12.474A4.226,4.226,0,0,1,755,441.381c1.2-1.155,2.623-1.017,4.164-.977" transform="translate(-579.585 -346.09)" fill="#5d7685"/>
                <path id="Trazado_912048" data-name="Trazado 912048" d="M941.975,549.646a4.872,4.872,0,0,1,2.568.39,3.9,3.9,0,0,1,2.034,2.49,5.325,5.325,0,0,1-.559,4.117,5.558,5.558,0,0,1-3.712,2.65,5.145,5.145,0,0,1-2.393-.37,3.825,3.825,0,0,1-2.116-2.306,5.171,5.171,0,0,1,.4-4.023,5.84,5.84,0,0,1,3.782-2.947" transform="translate(-736.881 -431.982)" fill="#fdfdfd"/>
                <path id="Trazado_912049" data-name="Trazado 912049" d="M745.418,480.421c.924-3.545,1.623-7.178,2.419-10.755l3.149-13.943c.786-3.638,1.752-9.1,2.936-12.474A4.227,4.227,0,0,1,755,441.517c1.2-1.155,2.623-1.017,4.164-.977l.871.141.061.22c-.748,1.123-1.944,1.478-2.485,2.825a34.133,34.133,0,0,0-1.326,5.091q-.79,3.543-1.69,7.06-4.526,17.574-8.524,35.276a5.061,5.061,0,0,0-.156,1.621,2.706,2.706,0,0,0,1.57.392c2.394.11,4.832-.012,7.232-.017l14.5-.02,43.021.007a7.01,7.01,0,0,1-3.708,4.31,11.431,11.431,0,0,1-1.294.485,38.032,38.032,0,0,0-4.77.014l-10.861.045-31.766-.02c-5.569,0-11.237.233-16.8-.063l.071-.247a7.474,7.474,0,0,1-.788-4.3,34.065,34.065,0,0,1-3.624-.068l1.636-.108c-.9-1.161-1.968-2.228-2.917-3.358a24.421,24.421,0,0,1,4.494-2.686l2.4-1.28a44.913,44.913,0,0,0,1.1-5.443" transform="translate(-579.585 -346.226)" fill="#35506d"/>
                <path id="Trazado_912050" data-name="Trazado 912050" d="M741.917,653.675l2.4-1.279q-.919,3.639-1.73,7.3l-2.246.021c-.9-1.16-1.968-2.228-2.917-3.358a24.438,24.438,0,0,1,4.494-2.686" transform="translate(-579.585 -512.758)" fill="#f3ab85"/>
                <path id="Trazado_912051" data-name="Trazado 912051" d="M302.791,280.573a21.171,21.171,0,0,0,12.245,3.168q.158,1.457.345,2.91c.05.635,0,1.624.457,2.112l.446.079-.46.182a6.238,6.238,0,0,0,.009,2.529c1.114.452,3.125.936,3.968,1.746a18.958,18.958,0,0,0,4.449.9c5.06.854,10.035,1.7,13.238,6.2a12.827,12.827,0,0,1,1.742,3.521c1.17,3.739,1.8,7.843,2.63,11.678l3.63,16.238c.893,4.152,1.643,8.361,2.694,12.474,3.515,2.338,7.122,4.546,10.657,6.858a46.17,46.17,0,0,0,5.4,3.546,44.918,44.918,0,0,1-1.1,5.443l-2.4,1.279a24.425,24.425,0,0,0-4.494,2.686c.949,1.13,2.012,2.2,2.917,3.358l-1.636.108a33.925,33.925,0,0,0,3.624.068,7.477,7.477,0,0,0,.788,4.3l-.071.247c-8.722-.016-17.492.233-26.206.031a11.067,11.067,0,0,1-4.039.167.689.689,0,0,1-.624-.382c-1.458.428-9.965.07-12.222.095.074,3.95.361,8.064.043,12a49.552,49.552,0,0,1-.032-5.374,7.538,7.538,0,0,0-.017-1.241,1.344,1.344,0,0,0-.083-.263c-.166-.418-4.334-.013-5.1.03-7.616.428-24.685-1.178-30.639-5.931a1.632,1.632,0,0,0-.761-.433l-.139,1.153a33.049,33.049,0,0,1,.142-3.426c-2-.138-3.979-.2-5.978-.23-.33-1.207-.522-2.469-.756-3.7a55.625,55.625,0,0,0-5.977-.7,5.72,5.72,0,0,1-.381-.791c-.861-2.349-.273-5.681.829-7.857l-.664-.479c-3.23-2.342-5.729-3.257-8.988-5.112-.863-2.488-1.164-5.094-1.93-7.6a56.811,56.811,0,0,0-1.592-7.388l-3.019-12.849a42.412,42.412,0,0,1-1.289-6.552,30.006,30.006,0,0,1,3.221.782,34.479,34.479,0,0,0-.675-3.458v-.3c.732-.539,2.511-.035,3.387.1a.463.463,0,0,0,.12-.076c.438-.53-.26-3.089-.384-3.85q-.311-1.088-.591-2.184a2.269,2.269,0,0,1-.038-1.269c1.014-.093,13.966,3.173,15.555,3.783,1.871-7.255,7.2-11.391,14.373-12.74,1.815-.341,4.13-.335,5.69-1.392.049-.033.1-.067.144-.1,1.219-.8,2.53-1.462,3.811-2.157.916-.664,2.171-.479,3.113-1.019a26.742,26.742,0,0,0,1.018-3.625c.068-.373.157-.475-.061-.794.743-.574,1.414-5.286,1.665-6.494" transform="translate(-198.41 -220.519)" fill="#0eaf9e"/>
                <path id="Trazado_912052" data-name="Trazado 912052" d="M408.883,412.9c-.248-1.082-.745-2.809-.2-3.815.307-.089.245-.145.486.015.925.616,1.313,2.288,1.459,3.341a2.483,2.483,0,0,1-.033.858Z" transform="translate(-321.015 -321.458)" fill="#0eaf9e"/>
                <path id="Trazado_912053" data-name="Trazado 912053" d="M379.805,670.415a3.778,3.778,0,0,1,2.869,1.041,3.5,3.5,0,0,1,.784,2.378q-2.74-.828-5.543-1.412c-1.687-.35-3.823-.421-5.368-1.127,2.406-.421,4.838-.359,7.258-.88" transform="translate(-292.807 -526.92)" fill="#ea5d4a"/>
                <path id="Trazado_912054" data-name="Trazado 912054" d="M517.495,528.4a27.155,27.155,0,0,1,3.068-.1c-4.543,3.016-13.186,2.982-18.5,2.247a5.782,5.782,0,0,1-2.506-.686l-.037-.227a1.608,1.608,0,0,1,1.112-.446,58.017,58.017,0,0,1,6.291-.273c3.54-.1,7.045-.211,10.575-.511" transform="translate(-392.601 -415.22)" fill="#058b7d"/>
                <path id="Trazado_912055" data-name="Trazado 912055" d="M412.738,647.9c-.057.33-.182.6-.025.9,1.008,1.934,2.045,5.464,1.384,7.652a4.232,4.232,0,0,1-.176.462,20.438,20.438,0,0,1-3.811-.782,3.5,3.5,0,0,0-.784-2.378,3.779,3.779,0,0,0-2.869-1.041,18.388,18.388,0,0,0,6.281-4.818" transform="translate(-319.459 -509.228)" fill="#f1b31e"/>
                <path id="Trazado_912056" data-name="Trazado 912056" d="M540.806,340.035a18.968,18.968,0,0,0,4.449.9c-1.287,2.1-10.174,15.016-11.315,15.256-.1.022-.206.028-.309.043q2.256-5.01,4.424-10.06a62.957,62.957,0,0,1,2.75-6.136" transform="translate(-419.414 -267.254)" fill="#058b7d"/>
                <path id="Trazado_912057" data-name="Trazado 912057" d="M446.881,336.319c1.387.656,12,13.143,13.43,15.161-.081.01-.161.028-.242.031-1.7.086-14.952-11.378-17-13.036,1.219-.8,2.53-1.462,3.811-2.157" transform="translate(-348.236 -264.334)" fill="#058b7d"/>
                <path id="Trazado_912058" data-name="Trazado 912058" d="M619.087,408.292c.239-1.721,1.184-3.294,1.421-5.008.767-5.531-.869-11.62-1.8-17.059-.26-1.513-.961-3.964-.564-5.425a5.176,5.176,0,0,1,.863,2.156c1.815,6.894,3.122,13.953,4.643,20.918,1.173,5.377,2.576,10.714,3.906,16.054.588,2.363.966,6.256,2.273,8.211,1.41,2.109,15.153,8.856,18.247,12.072a24.435,24.435,0,0,0-4.494,2.686c-1.3-.914-2.751-1.67-4.121-2.478l-8.473-4.98c-1.7-.988-3.472-1.92-5.1-3.012a3.8,3.8,0,0,1-1.507-1.527c-1.187-2.531-1.807-6.869-2.438-9.736-.944-4.29-1.973-8.568-2.852-12.872" transform="translate(-485.741 -299.294)" fill="#058b7d"/>
                <path id="Trazado_912059" data-name="Trazado 912059" d="M466.61,280.573a21.171,21.171,0,0,0,12.245,3.168q.158,1.457.345,2.91c.05.635,0,1.624.457,2.112l.447.079-.46.182a6.239,6.239,0,0,0,.009,2.529c1.114.452,3.125.936,3.968,1.746a63.022,63.022,0,0,0-2.75,6.137q-2.167,5.05-4.424,10.06l-.2.205c-.644-.269-1.185-1.3-1.705-1.811-.077-.076-.156-.15-.235-.225-1.43-2.018-12.043-14.5-13.43-15.161.916-.664,2.171-.479,3.113-1.019A26.733,26.733,0,0,0,465,287.861c.068-.373.157-.475-.06-.794.743-.574,1.414-5.286,1.665-6.494" transform="translate(-362.229 -220.519)" fill="#f3ab85"/>
                <path id="Trazado_912060" data-name="Trazado 912060" d="M478.041,280.573a21.171,21.171,0,0,0,12.245,3.168q.158,1.457.345,2.91c-2.5,1.149-12.555,4.813-14.855,4.988l-.357-.153a26.751,26.751,0,0,0,1.018-3.625c.068-.373.157-.475-.061-.794.743-.574,1.414-5.286,1.665-6.494" transform="translate(-373.661 -220.519)" fill="#ea5d4a"/>
                <path id="Trazado_912061" data-name="Trazado 912061" d="M604.232,551.744c-.747-2.247-1.33-4.572-1.992-6.849s-1.453-4.618-1.9-6.961a28.409,28.409,0,0,1-.2-5.911c.156-6.759,1.042-17.213,4.85-22.776.879,4.3,1.908,8.582,2.852,12.872.631,2.868,1.251,7.206,2.438,9.736a3.8,3.8,0,0,0,1.507,1.527c1.63,1.092,3.405,2.024,5.1,3.012l8.473,4.979c1.37.809,2.824,1.564,4.121,2.478.949,1.13,2.012,2.2,2.917,3.358l-1.636.108a34,34,0,0,0,3.624.068,7.474,7.474,0,0,0,.788,4.3l-.071.247c-8.722-.016-17.492.233-26.207.031a11.059,11.059,0,0,1-4.039.167.689.689,0,0,1-.624-.383" transform="translate(-471.642 -400.248)" fill="#fdfdfd"/>
                <path id="Trazado_912062" data-name="Trazado 912062" d="M631.9,690.929a6.349,6.349,0,0,1-1.751-1.109,2.323,2.323,0,0,1-.8-1.664,1.986,1.986,0,0,1,.567-1.463,1.776,1.776,0,0,1,1.083-.465,64.412,64.412,0,0,1,8.211-.051c4.845.026,9.709-.028,14.552.111a33.952,33.952,0,0,0,3.624.068,7.475,7.475,0,0,0,.788,4.3l-.071.247c-8.722-.016-17.492.233-26.206.031" transform="translate(-494.643 -539.217)" fill="#1a3a5e"/>
                <path id="Trazado_912063" data-name="Trazado 912063" d="M266.871,396.477a2.268,2.268,0,0,1-.038-1.27c1.014-.092,13.966,3.173,15.555,3.783,4.431.836,8.867,1.961,13.239,3.069l1.71.4q2.315.519,4.622,1.072l11.849,50.816-1.843,2.117-.432.631c-.358.6-1.119,2.2-1.82,2.358a1.16,1.16,0,0,1-.675-.051c-.926-.092-1.861-.3-2.778-.467q-2.028-.259-4.039-.623a4.287,4.287,0,0,0,.176-.462c.662-2.188-.375-5.719-1.384-7.652-.157-.3-.032-.574.025-.9a3.47,3.47,0,0,0,.25-.863c.04-.308-.015-.281-.185-.51a3.272,3.272,0,0,0-1.646.288,8.028,8.028,0,0,1-.993-1.493,10.884,10.884,0,0,0,2.04-2.366,3.108,3.108,0,0,0,.5-2.813l.15-.955a13.683,13.683,0,0,0-1.117-2.675c-1.523-3.441-2.422-9.27-3.368-13.081-.8-3.205-2.56-8.8-2.883-11.834-1.814-.935-4.591-1.165-6.6-1.609l-13.413-2.954c-2.652-.585-5.41-1.071-8-1.883l-.761-.293a34.479,34.479,0,0,0-.675-3.458v-.3c.732-.54,2.511-.035,3.387.1a.462.462,0,0,0,.12-.076c.438-.53-.26-3.089-.384-3.85q-.311-1.088-.591-2.184" transform="translate(-207.759 -310.615)" fill="#f1b31e"/>
                <path id="Trazado_912064" data-name="Trazado 912064" d="M270.188,433.315l.153.049c2.67.815,5.6,1.2,8.34,1.765l15.557,3.374a58.883,58.883,0,0,1,5.842,1.305,1.136,1.136,0,0,1,.78.555A21.222,21.222,0,0,1,301.9,444.3q.684,2.624,1.422,5.233,5.356,19.437,10.011,39.054a2.406,2.406,0,0,1-.927-1.222c-1.511-3.6-2.252-8.14-3.247-11.953-.793-3.036-8.614-33.154-9.18-33.72l-.385.052a4.913,4.913,0,0,0-1.21,1.2c-1.814-.935-4.591-1.165-6.6-1.609l-13.413-2.954c-2.652-.585-5.41-1.071-8-1.883-.03-1.068-.2-2.109-.183-3.184" transform="translate(-212.357 -340.568)" fill="#fdfdfd"/>
                <path id="Trazado_912065" data-name="Trazado 912065" d="M401.9,473.718a4.918,4.918,0,0,1,1.21-1.2l.385-.052c.566.566,8.388,30.684,9.18,33.72,1,3.813,1.736,8.351,3.247,11.953a2.407,2.407,0,0,0,.927,1.222l.307.764c-.925-.092-1.861-.3-2.778-.467q-2.028-.259-4.04-.623a4.244,4.244,0,0,0,.176-.462c.662-2.188-.375-5.718-1.384-7.652-.157-.3-.032-.574.025-.9a3.471,3.471,0,0,0,.25-.863c.04-.308-.015-.281-.185-.51a3.273,3.273,0,0,0-1.646.288,8.023,8.023,0,0,1-.993-1.493,10.887,10.887,0,0,0,2.04-2.366,3.108,3.108,0,0,0,.5-2.813l.15-.955a13.681,13.681,0,0,0-1.117-2.675c-1.523-3.441-2.422-9.27-3.368-13.081-.8-3.205-2.56-8.8-2.883-11.834" transform="translate(-315.881 -371.343)" fill="#f7c52c"/>
              </g>
            </g>
            <g id="Grupo_1101503" data-name="Grupo 1101503" transform="translate(90.706 129.966)">
              <g id="Grupo_1101502" data-name="Grupo 1101502" clip-path="url(#clip-path-2)">
                <rect id="Rectángulo_402963" data-name="Rectángulo 402963" width="18.855" height="9.063" transform="translate(-1.284 18.263) rotate(-85.979)" fill="url(#linear-gradient)"/>
              </g>
            </g>
            <g id="Grupo_1101505" data-name="Grupo 1101505">
              <g id="Grupo_1101504" data-name="Grupo 1101504" clip-path="url(#clip-path)">
                <path id="Trazado_912067" data-name="Trazado 912067" d="M280.76,402.36c2.513.831,5.2,1.26,7.773,1.89l14.864,3.743c3.378.856,6.845,1.614,10.142,2.744,1.124,4.741,1.975,9.558,3.019,14.32L322.4,450.84c.839,3.73,1.528,7.552,2.474,11.248l-.432.631a27.513,27.513,0,0,1-1.187-4.251l-1.913-7.5c-1.367-5.162-9.64-34.25-11.042-35.872-.794-.918-25.522-6.435-28.09-6.682a9.979,9.979,0,0,1-.663-2.853c-.252-1.073-.613-2.107-.786-3.2" transform="translate(-220.666 -316.239)" fill="#fdfdfd"/>
                <path id="Trazado_912068" data-name="Trazado 912068" d="M252.443,443.166a30.109,30.109,0,0,1,3.221.782l.761.293c2.589.812,5.346,1.3,8,1.883l13.413,2.954c2.006.443,4.783.674,6.6,1.609.323,3.032,2.087,8.629,2.883,11.834.946,3.811,1.845,9.64,3.368,13.08a13.7,13.7,0,0,1,1.117,2.676l-.15.954a3.109,3.109,0,0,1-.5,2.813,10.876,10.876,0,0,1-2.04,2.366,8.047,8.047,0,0,0,.993,1.493,3.268,3.268,0,0,1,1.646-.288c.17.23.225.2.185.51a3.462,3.462,0,0,1-.25.862,18.387,18.387,0,0,1-6.281,4.818c-2.42.521-4.852.459-7.258.88-.9-.041-1.8-.129-2.7-.2a55.649,55.649,0,0,0-5.977-.7A5.7,5.7,0,0,1,269.1,491c-.861-2.349-.273-5.681.829-7.857l-.664-.479c-3.23-2.342-5.729-3.257-8.988-5.112-.863-2.487-1.164-5.094-1.93-7.6a56.848,56.848,0,0,0-1.592-7.388l-3.019-12.849a42.458,42.458,0,0,1-1.289-6.552" transform="translate(-198.41 -348.311)" fill="#ea5d4a"/>
                <path id="Trazado_912069" data-name="Trazado 912069" d="M329.56,594.411q.4-.654.843-1.284t.916-1.233q.476-.6.985-1.178t1.052-1.12q.542-.545,1.115-1.057t1.173-.991q.6-.479,1.228-.922t1.28-.85a6.666,6.666,0,0,1,2.043-1.011.9.9,0,0,1,.852.179,1.469,1.469,0,0,1,.184.664c.04,2.921-2.7,5.415-4.506,7.452a16.376,16.376,0,0,0,3.95-1.48c3.149-1.722,5.737-4.283,9.477-4.544l.168-.169a13.685,13.685,0,0,1,1.117,2.676l-.15.954a3.108,3.108,0,0,1-.5,2.813,10.877,10.877,0,0,1-2.04,2.366,8.032,8.032,0,0,0,.993,1.493,3.267,3.267,0,0,1,1.646-.288c.17.23.225.2.185.51a3.48,3.48,0,0,1-.25.862,18.387,18.387,0,0,1-6.281,4.818c-2.42.521-4.852.459-7.258.88-.9-.041-1.8-.129-2.7-.2a55.6,55.6,0,0,0-5.977-.7,5.7,5.7,0,0,1-.381-.791c-.861-2.349-.273-5.681.829-7.857" transform="translate(-258.045 -459.577)" fill="#f3ab85"/>
                <path id="Trazado_912070" data-name="Trazado 912070" d="M425.243,594.706a13.693,13.693,0,0,1,1.117,2.676l-.15.955a3.687,3.687,0,0,0-1.924.01,4.467,4.467,0,0,1-.641-1.305,19.488,19.488,0,0,0,1.43-2.166Z" transform="translate(-332.968 -467.415)" fill="#f1b31e"/>
                <path id="Trazado_912071" data-name="Trazado 912071" d="M395.556,639.935a44.481,44.481,0,0,0,6.041-4.073,8.029,8.029,0,0,0,.993,1.493,40.082,40.082,0,0,1-7.034,2.58" transform="translate(-310.891 -499.763)" fill="#ea7e56"/>
              </g>
            </g>
            <g id="Grupo_1101507" data-name="Grupo 1101507" transform="translate(83.885 129.626)">
              <g id="Grupo_1101506" data-name="Grupo 1101506" clip-path="url(#clip-path-4)">
                <rect id="Rectángulo_402965" data-name="Rectángulo 402965" width="8.013" height="8.911" transform="translate(-1.739 5.507) rotate(-72.478)" fill="url(#linear-gradient-2)"/>
              </g>
            </g>
            <g id="Grupo_1101509" data-name="Grupo 1101509">
              <g id="Grupo_1101508" data-name="Grupo 1101508" clip-path="url(#clip-path)">
                <path id="Trazado_912073" data-name="Trazado 912073" d="M77.75,1103.569a2.228,2.228,0,0,1,1.778.7,3.192,3.192,0,0,1,.7,1.619c.412,3.165.085,7.727.075,11.081-.01,3.525.307,7.345-.1,10.841a3.976,3.976,0,0,1-1.559,2.207c-4.465.192-9.143.225-13.608.029l-45.51-.086-10.9.005c-2.122,0-4.679.267-6.739-.217A3.972,3.972,0,0,1,.418,1128.3a3.315,3.315,0,0,1-.279-1.335c-.149-2.636-.3-20,.229-21.5.281-.8,1.132-1.141,1.839-1.466,2.016.149,4.053.167,6.074.2,4.147-.08,8.324.113,12.477.109,3.02,0,6.337-.278,9.331.021,3.516-.375,7.2-.136,10.737-.211q12.368-.3,24.739-.347c3.76-.014,8.595.441,12.185-.2" transform="translate(0 -867.362)" fill="#5578a6"/>
                <path id="Trazado_912074" data-name="Trazado 912074" d="M60.49,1143.544a5.206,5.206,0,0,1,2.8.407,4.944,4.944,0,0,1,2.543,3.029,4.811,4.811,0,0,1-.3,3.64,4.585,4.585,0,0,1-3.19,2.28,5.855,5.855,0,0,1-2.979-.516,4.8,4.8,0,0,1-.442-.245,4.872,4.872,0,0,1-.414-.289,4.974,4.974,0,0,1-.382-.33,4.864,4.864,0,0,1-.346-.368,4.813,4.813,0,0,1-.307-.4,5.043,5.043,0,0,1-.263-.431,4.879,4.879,0,0,1-.387-.932,4.491,4.491,0,0,1,3.66-5.845" transform="translate(-44.511 -898.755)" fill="#fdfdfd"/>
                <path id="Trazado_912075" data-name="Trazado 912075" d="M2.207,1105.553c2.016.149,4.053.167,6.074.2,4.147-.08,8.324.112,12.477.109,3.02,0,6.337-.278,9.331.021-.663.363-20.87.646-24.2,1.145A103.219,103.219,0,0,0,5.6,1118.26a74.044,74.044,0,0,0,.042,8.218,3.991,3.991,0,0,0,.659,2.133c1.108,1.3,3.165,1.163,4.719,1.186,11.123.165,22.236.59,33.36.694,7.544.071,15.051.076,22.581.589a37.51,37.51,0,0,1,5.209.326c-2.361.112-4.794-.051-7.134.2l-45.51-.086-10.9.005c-2.122,0-4.679.268-6.739-.217a3.973,3.973,0,0,1-1.468-1.454,3.314,3.314,0,0,1-.279-1.335c-.149-2.636-.3-20,.229-21.5.281-.8,1.132-1.141,1.839-1.467" transform="translate(0 -868.921)" fill="#35506d"/>
                <path id="Trazado_912076" data-name="Trazado 912076" d="M133.16,1126.719h46.232l0,17.339-46.225.019Z" transform="translate(-104.659 -885.556)" fill="#fdfdfd"/>
                <path id="Trazado_912077" data-name="Trazado 912077" d="M166.01,1162.187c10.02-.288,20.125-.092,30.15-.034a3.856,3.856,0,0,1-.19,1.864,3.272,3.272,0,0,1-1.735.168l-30.225.02a3.45,3.45,0,0,1,.173-1.806,3.411,3.411,0,0,1,1.827-.213" transform="translate(-128.879 -913.313)" fill="#c7d0d4"/>
                <path id="Trazado_912078" data-name="Trazado 912078" d="M2.46,983.1l75.552.1a3.4,3.4,0,0,1,1.882,2.1c.441,1.331.352,18.086.171,20.54a3.264,3.264,0,0,1-.3,1.3,4.34,4.34,0,0,1-1.9,1.749c-3.59.639-8.425.184-12.185.2q-12.371.045-24.739.347c-3.541.076-7.221-.164-10.737.211-2.994-.3-6.311-.024-9.331-.021-4.153,0-8.33-.189-12.477-.109-2.021-.034-4.058-.051-6.074-.2-.722-.517-1.573-1.012-1.878-1.892-.383-1.105-.336-18.886-.19-21.485a3.433,3.433,0,0,1,.292-1.338,2.8,2.8,0,0,1,1.913-1.5" transform="translate(-0.116 -772.675)" fill="#6ca6d0"/>
                <path id="Trazado_912079" data-name="Trazado 912079" d="M72.3,1037.56a3.872,3.872,0,0,1-.913,5.745,5.932,5.932,0,0,1-4.451,1,3.322,3.322,0,0,1-2.324-1.359.9.9,0,0,1-.2-.631c.035.026.068.052.1.077a5.66,5.66,0,0,0,4.442,1.017,4.467,4.467,0,0,0,2.949-2,4.817,4.817,0,0,0,.39-3.851" transform="translate(-50.629 -815.481)" fill="#5578a6"/>
                <path id="Trazado_912080" data-name="Trazado 912080" d="M59.483,1029.88c-.192-.236-.382-.479-.554-.731a5.283,5.283,0,0,1-.693-3.82,4.4,4.4,0,0,1,2.045-2.97,4.653,4.653,0,0,1,3.641-.431,5.768,5.768,0,0,1,3.445,3.2,4.816,4.816,0,0,1-.39,3.851,4.467,4.467,0,0,1-2.949,2,5.66,5.66,0,0,1-4.442-1.017c-.035-.025-.069-.051-.1-.077" transform="translate(-45.694 -803.047)" fill="#fdfdfd"/>
                <path id="Trazado_912081" data-name="Trazado 912081" d="M133.1,1004.861l46.182.041.006,17.315-46.187-.005Z" transform="translate(-104.611 -789.781)" fill="#fdfdfd"/>
                <path id="Trazado_912082" data-name="Trazado 912082" d="M164.3,1041.954q16.03-.085,32.061,0a4.344,4.344,0,0,1-.223,2.061l-31.836-.041Z" transform="translate(-129.136 -818.901)" fill="#c7d0d4"/>
                <path id="Trazado_912083" data-name="Trazado 912083" d="M524.935,707.8a.689.689,0,0,0,.624.382,11.055,11.055,0,0,0,4.039-.166c8.714.2,17.484-.048,26.207-.031,5.558.3,11.226.061,16.8.063l31.765.02,10.861-.045a38.09,38.09,0,0,1,4.77-.014c1.192.639,30.411.074,34.7.189l.008,11.568-8.258-.019c-.008,1.325.016,2.656-.027,3.98.208,13.929.073,27.886.051,41.818,2.3.06,7.69-.577,9.274,1.08a3.163,3.163,0,0,1,.738,2.449,16.24,16.24,0,0,1-.556,3.267L651.982,800.9l-1.2,9.243a42.1,42.1,0,0,1-.873,5.643,4.06,4.06,0,0,1-1.614,2.451c-.273.212-.555.406-.844.6-2.773.679-10.129.269-13.3.273l-28.765.077a49.882,49.882,0,0,1-5.985.116l-11.748.006-15.391-.017c-2.952,0-5.965.112-8.908-.107-3.266.138-6.577.026-9.848,0-3.62-.078-7.25-.075-10.871-.08-2.031,0-4.116.1-6.136-.084-3.065-.157-6.2-.037-9.276-.062a77.549,77.549,0,0,1-8.1.036,17.235,17.235,0,0,1-1.835.031l-18.092,0c.056-8.014.428-16.1.833-24.107.052-3.347.375-6.711.519-10.058l.677-.019,9.451.015,8.358,0c.166-2.517.059-5.125.058-7.649l-.028-14.193-.065-43.125q-1.432.023-2.864-.007c-1.123.03-2.252.011-3.375.016.318-3.937.031-8.051-.043-12,2.256-.025,10.763.333,12.222-.095" transform="translate(-392.345 -556.301)" fill="#a7d9c9"/>
                <path id="Trazado_912084" data-name="Trazado 912084" d="M1040.741,942.236a35.088,35.088,0,0,1,.621-4.578,5.514,5.514,0,0,1,2.8-3.641,3.638,3.638,0,0,1,1.251-.45c2.221-.328,13.254-.387,15.146.158,1.942.559,3.027,2.4,3.912,4.065a30.337,30.337,0,0,1-.08,4.263l-.192.615a6.591,6.591,0,0,1-3.151.129,22.8,22.8,0,0,0-4.143-.129c-3.891,0-8.588.33-12.366-.037-.284-.32-.22-.688-.254-1.105-.016.07-.033.139-.047.209a6.266,6.266,0,0,0-.093.911c-.718.359-2.253.1-3.057.024-.318-.226-.205-.08-.346-.433" transform="translate(-817.981 -733.551)" fill="#f1b31e"/>
                <path id="Trazado_912085" data-name="Trazado 912085" d="M1057.293,955.357c.084-1.357.062-2.656,1.154-3.633a1.968,1.968,0,0,1,1.054-.54,78.805,78.805,0,0,1,11.087-.142,5.019,5.019,0,0,1,2.939,1.02c.813.9.536,3.386.529,4.568a22.784,22.784,0,0,0-4.143-.13c-3.891,0-8.589.33-12.366-.037-.284-.319-.22-.688-.254-1.105" transform="translate(-830.991 -747.382)" fill="#a7d9c9"/>
                <path id="Trazado_912086" data-name="Trazado 912086" d="M927.777,879.13c5.615.159,11.265.04,16.884.025l.084,20.951c-1.282-.016-3.222-.292-4.225.648-1.6,1.506-1.708,9.946-2.081,12.353-3.563-.223-7.254-.063-10.825-.036.293-11.291.1-22.642.163-33.941" transform="translate(-729.068 -690.962)" fill="#0eaf9e"/>
                <path id="Trazado_912087" data-name="Trazado 912087" d="M938.868,901.788l12.191.015-.008,5.4q-6.086-.038-12.172.051Z" transform="translate(-737.913 -708.77)" fill="#fdfdfd"/>
                <path id="Trazado_912088" data-name="Trazado 912088" d="M839.635,878.086c5.308.032,10.642.143,15.947.017-.01,11.37-.251,22.8.022,34.161-5.259-.246-10.651.02-15.925.038Z" transform="translate(-659.92 -690.141)" fill="#0a7669"/>
                <path id="Trazado_912089" data-name="Trazado 912089" d="M849.16,902.172q6.039-.025,12.078.032c.011,1.806.025,3.609-.045,5.414l-12.03-.011c-.045-1.807-.006-3.626,0-5.435" transform="translate(-667.391 -709.066)" fill="#fdfdfd"/>
                <path id="Trazado_912090" data-name="Trazado 912090" d="M753.554,878.081c5.293.02,10.6.107,15.891.015l-.014,34.191c-3.4-.094-6.805-.031-10.2-.022l0,32.785c-.035,2.283-.365,4.641,1.386,6.424a9.776,9.776,0,0,0,2.175,1.545c-3.266.138-6.577.026-9.848,0l.113-40.547.038-11.012c.008-2.18.1-4.4-.048-6.577a167.484,167.484,0,0,0,.515-16.8" transform="translate(-591.778 -690.137)" fill="#0a7669"/>
                <path id="Trazado_912091" data-name="Trazado 912091" d="M766.718,902.257l12.036.007c.015,1.819-.007,3.64-.014,5.459l-12.02-.007c-.052-1.814-.005-3.643,0-5.458" transform="translate(-602.593 -709.138)" fill="#fdfdfd"/>
                <path id="Trazado_912092" data-name="Trazado 912092" d="M673.19,877.849l16.568.006c0,2.256-.062,15.745.6,16.843.149,2.173.057,4.4.048,6.577l-.038,11.012-.113,40.547c-3.62-.078-7.25-.075-10.871-.08-2.031,0-4.116.1-6.136-.084Z" transform="translate(-529.101 -689.955)" fill="#0eaf9e"/>
                <path id="Trazado_912093" data-name="Trazado 912093" d="M702.5,1182.661a5.455,5.455,0,0,1,1.131.029,2.414,2.414,0,0,1,1.513,1.026,2.28,2.28,0,0,1,.3,1.787,2.962,2.962,0,0,1-1.614,1.913,4.179,4.179,0,0,1-.909.038,2.286,2.286,0,0,1-1.474-.809,2.453,2.453,0,0,1-.461-2.021,2.773,2.773,0,0,1,1.515-1.964" transform="translate(-550.91 -929.513)" fill="#09444d"/>
                <path id="Trazado_912094" data-name="Trazado 912094" d="M682.178,900.57l12.6,0c.018,1.75-.009,3.5-.013,5.255l-12.579.033Z" transform="translate(-536.165 -707.811)" fill="#fdfdfd"/>
                <path id="Trazado_912095" data-name="Trazado 912095" d="M810.374,1037.381c.957.019,1.905.027,2.862-.013,3.571-.027,7.262-.187,10.825.036l.2.016c1.851.129,7-.571,8.108.709a2.458,2.458,0,0,1,.359,2.1q-.063.52-.134,1.039c-.852,11.1-2,22.17-2.764,33.282a6.871,6.871,0,0,1-2.1,3.594,49.9,49.9,0,0,1-5.985.115l-11.748.006-15.391-.017c-2.952,0-5.965.113-8.908-.107a9.783,9.783,0,0,1-2.175-1.545c-1.751-1.783-1.421-4.141-1.386-6.424l0-32.785c3.4-.009,6.807-.073,10.2.021a17.667,17.667,0,0,0,2.106.01c5.273-.018,10.665-.284,15.925-.038" transform="translate(-614.69 -815.259)" fill="#ea7e56"/>
                <path id="Trazado_912096" data-name="Trazado 912096" d="M782.135,1084.831c1.96-.014,3.923.148,5.885.147a50.8,50.8,0,0,0,8.377-.761,47.1,47.1,0,0,0,31.542-20.272c1.751-2.519,2.925-5.638,4.571-7.9.027-.037.056-.075.084-.112-.852,11.1-2,22.17-2.764,33.282a6.87,6.87,0,0,1-2.1,3.593,49.9,49.9,0,0,1-5.985.116l-11.748.006-15.391-.017c-2.952,0-5.965.112-8.908-.107a9.776,9.776,0,0,1-2.175-1.545c-1.751-1.783-1.421-4.141-1.386-6.424" transform="translate(-614.69 -829.918)" fill="#ea5d4a"/>
                <path id="Trazado_912097" data-name="Trazado 912097" d="M991.578,972.374c.14.353.027.207.346.433.8.076,2.339.335,3.057-.024a6.234,6.234,0,0,1,.093-.911c.014-.07.031-.139.047-.209.034.418-.03.786.254,1.105,3.777.366,8.475.035,12.366.037a22.8,22.8,0,0,1,4.143.13,6.591,6.591,0,0,0,3.151-.129l.192-.615.15.476c1.434.552,5.69.063,7.564.262,2.3.059,7.691-.577,9.275,1.08a3.164,3.164,0,0,1,.738,2.449,16.254,16.254,0,0,1-.556,3.267l-3.944,28.566-1.2,9.243a42.113,42.113,0,0,1-.874,5.643,4.06,4.06,0,0,1-1.614,2.451c-.273.212-.555.406-.844.6-2.773.679-10.129.269-13.3.273l-28.765.077a6.871,6.871,0,0,0,2.1-3.594c.763-11.111,1.912-22.179,2.764-33.282q.072-.519.134-1.039a2.457,2.457,0,0,0-.359-2.1c-1.1-1.28-6.257-.58-8.108-.709l-.2-.016c.373-2.407.476-10.847,2.081-12.353,1-.941,2.943-.663,4.225-.648,2.008.007,5.018.331,6.89-.129Z" transform="translate(-768.818 -763.689)" fill="#f7c52c"/>
                <path id="Trazado_912098" data-name="Trazado 912098" d="M997.421,1051.207c1.661-.338,4.329-1.747,6.047-2.4a69.6,69.6,0,0,0,36.488-30.581c.735-1.231,1.469-2.471,2.128-3.744.713-1.376,2.606-6.238,3.592-6.911l.187.375-3.944,28.566-1.2,9.243a42.019,42.019,0,0,1-.873,5.643,4.059,4.059,0,0,1-1.614,2.451c-.273.212-.555.406-.844.6-2.773.679-10.129.269-13.3.273l-28.765.077a6.871,6.871,0,0,0,2.1-3.593" transform="translate(-782.282 -791.915)" fill="#f1b31e"/>
                <path id="Trazado_912099" data-name="Trazado 912099" d="M524.935,707.8a.689.689,0,0,0,.624.382,11.055,11.055,0,0,0,4.039-.166c8.714.2,17.484-.048,26.207-.031,5.558.3,11.226.061,16.8.063l31.765.02,10.861-.045a38.09,38.09,0,0,1,4.77-.014c1.192.639,30.411.074,34.7.189l.008,11.568-8.258-.019c-.008,1.325.016,2.656-.027,3.98.208,13.929.073,27.886.051,41.818-1.874-.2-6.13.29-7.564-.262l-.15-.476a30.359,30.359,0,0,0,.08-4.263c.156-1.418.112-2.884.135-4.311-.461-3.2-.131-8.29-.129-11.7V719.86l-76.292.027-23.192.007c-3.854.006-8.342.331-12.112-.125l-.025,99.185a77.549,77.549,0,0,1-8.1.036,17.235,17.235,0,0,1-1.835.031l-18.092,0c.056-8.014.428-16.1.833-24.107.052-3.347.375-6.711.519-10.058l.677-.019,9.451.015,8.358,0c.166-2.517.059-5.125.058-7.649l-.028-14.193-.065-43.125q-1.432.023-2.864-.007c-1.123.03-2.252.011-3.375.016.318-3.937.031-8.051-.043-12,2.256-.025,10.763.333,12.222-.095" transform="translate(-392.345 -556.301)" fill="#69c7ac"/>
                <path id="Trazado_912100" data-name="Trazado 912100" d="M501.22,1067.719l9.451.014,8.358,0c-.258,11.38.167,22.762.089,34.137a17.171,17.171,0,0,1-1.835.031l-18.092,0c.056-8.014.428-16.1.833-24.107.052-3.347.375-6.711.519-10.058Z" transform="translate(-392.345 -839.185)" fill="#fdfdfd"/>
                <path id="Trazado_912101" data-name="Trazado 912101" d="M552.826,1067.787l8.358,0c-.258,11.38.167,22.762.089,34.137a17.268,17.268,0,0,1-1.835.031c-1.2-6.132-1.456-12.449-2.513-18.608-.909-5.3-2.628-10.4-4.1-15.563" transform="translate(-434.499 -839.238)" fill="#ea7e56"/>
              </g>
            </g>
          </g>
        </g>
      </g>
    </g>
  </g>
</svg>
